<svg width="25" height="25" viewBox="0 0 25 25" fill="none" xmlns="http://www.w3.org/2000/svg">
<path d="M20.2693 4.63352C20.9222 4.51288 21.5538 4.27071 22.2253 4.23345C22.8542 4.19797 24.018 4.33191 24.5858 4.60069C24.6674 4.63973 24.7871 4.66545 24.7765 4.78875C24.7596 4.97592 24.1422 5.92863 23.987 6.12734C22.6794 7.79591 20.5407 8.57032 18.4419 8.34678L9.08247 19.177C8.4633 19.829 7.78647 20.449 6.96859 20.8482C6.78763 20.936 5.85798 21.2474 5.82339 21.298C5.76307 21.3849 5.84734 21.8089 5.92451 21.871C6.01411 21.9429 7.12028 21.4709 7.30124 21.3796C7.98872 21.0336 8.5733 20.5404 9.15078 20.0419L18.677 8.98103C19.7566 9.08216 20.7856 8.88346 21.7959 8.5171C21.9485 8.4621 22.4186 8.18179 22.4932 8.17824C22.8595 8.1605 24.8501 9.31014 24.8501 9.58069C23.5106 10.9716 21.5493 11.4746 19.6687 11.1082L10.9719 22.2613C9.85866 23.4633 8.22291 24.1942 6.5836 24.165C5.82339 24.1517 5.10043 23.8288 4.56464 23.2885L2.01521 20.716C1.08645 19.7793 0.659769 18.4407 0.930324 17.15C1.18048 15.9587 1.80054 14.8499 2.70889 13.9983L13.862 5.30148C13.493 3.4138 14.0013 1.46846 15.3895 0.120117C15.6521 0.120117 16.8035 2.11602 16.7902 2.47706C16.7858 2.59947 16.4868 3.07671 16.4176 3.27187C16.1852 3.92209 15.9732 4.77367 15.9519 5.46204C15.9422 5.76453 16.0397 6.02355 15.9883 6.29411L4.93011 15.8203C4.46263 16.357 3.99514 16.9043 3.65983 17.5377C3.55604 17.7328 3.02026 18.9437 3.10098 19.0457C3.16307 19.1238 3.5862 19.208 3.67402 19.1468C3.72281 19.1131 3.98272 18.2988 4.05812 18.1347C4.3065 17.5971 4.66665 17.1128 5.03124 16.6515C8.80216 13.1777 12.7975 9.94439 16.6252 6.52829C16.3635 4.15361 17.436 1.67337 19.5623 0.505992C19.6661 0.449219 20.1203 0.199953 20.1832 0.193744C20.4015 0.173341 20.6143 1.22363 20.6498 1.43386C20.8272 2.50633 20.7279 3.64 20.2711 4.6344L20.2693 4.63352Z" fill="#C42032"/>
<path d="M10.7087 6.89229C10.4124 5.83047 10.3885 4.54156 10.8089 3.50724C10.8577 3.38748 11.0617 2.89427 11.1957 2.91468C11.2356 2.92089 11.7891 3.30942 11.869 3.37418C12.112 3.57377 13.204 4.73228 13.1552 4.98953L10.7096 6.8914L10.7087 6.89229Z" fill="#C42032"/>
<path d="M18.0781 14.2621L19.98 11.8164C20.8484 12.2333 21.6104 12.9802 22.0611 13.8274C20.9194 14.6098 19.3732 14.6009 18.0781 14.2621Z" fill="#C42032"/>
</svg>
