<svg width="25" height="24" viewBox="0 0 25 24" fill="none" xmlns="http://www.w3.org/2000/svg">
<path d="M13.1352 23.4461C14.4428 22.6212 15.5747 21.6854 16.5089 20.4594C16.9574 19.8708 18.2015 17.851 18.2385 17.1825C18.2639 16.7255 17.8566 16.3089 17.3901 16.3089C16.8315 16.3089 15.7186 16.8633 15.0923 16.9514C15.0363 16.9597 14.9844 16.9918 14.9294 16.9514C14.8014 16.8582 14.3042 14.3409 14.154 13.9285C13.9942 13.4911 13.7192 13.2787 13.2283 13.3077L10.0165 14.228C9.71604 13.2704 9.60179 12.1356 9.27278 11.2019C8.82211 9.92201 7.41615 10.9086 6.5 11.0682C6.53914 10.3977 6.73803 9.66396 6.93586 9.01004C8.55446 3.67502 13.9233 -2.47247 19.7905 2.14333C24.1575 5.57876 26.1644 13.0382 23.928 18.0966C22.0787 22.2792 17.7572 24.6762 13.1352 23.4461Z" fill="#C42032"/>
<path d="M4.18822 12.475L8.15115 11.3889L9.10115 15.1985L12.9858 14.1373L13.9675 18.0163L17.0852 17.1613C15.8781 20.1822 13.3529 22.9036 10.012 23.5927C6.87319 24.2394 3.74179 23.0114 2.05125 20.3418C-0.134386 16.8929 0.860047 12.3703 3.44663 9.41992L4.18822 12.475Z" fill="#C42032"/>
</svg>
