<svg width="25" height="25" viewBox="0 0 25 25" fill="none" xmlns="http://www.w3.org/2000/svg">
<path d="M0.854617 11.1203C0.884683 10.7603 0.991795 10.2274 1.06414 9.86003C1.47755 7.76301 2.44155 5.80156 3.87721 4.21875L7.50489 7.83874C7.16007 8.40623 7.24557 9.27757 7.32919 9.92453C7.42691 10.6856 7.67026 11.4456 8.07239 12.0991C7.53778 12.1038 7.32262 12.4226 7.27658 12.9163C7.18356 13.9007 7.41281 15.3087 7.87696 16.1885C8.70378 17.7535 10.4627 18.3135 12.1492 18.3023V20.7041C12.1492 20.9762 12.5992 21.2978 12.8736 21.2894C13.132 21.2809 13.5548 20.9565 13.5548 20.7041V18.3023C14.4295 18.307 15.3559 18.1537 16.1489 17.7825C16.4477 17.6423 16.6976 17.4282 16.9927 17.2832L20.8177 21.0771C19.1706 22.5506 17.0678 23.564 14.8768 23.9324C14.5169 23.9931 14.0941 24.0614 13.7418 24.0857H13.3199C13.2306 24.0474 13.1282 24.0474 13.039 24.0857H12.1952C12.1614 24.0661 12.137 24.0726 12.1013 24.0857H11.8673C6.12748 23.8407 1.09421 18.8418 0.853678 13.1257V12.8461C0.873409 12.8125 0.866832 12.7882 0.853678 12.7527V11.8664C0.89314 11.7616 0.89314 11.6448 0.853678 11.5401C0.862134 11.4017 0.842403 11.2577 0.853678 11.1203H0.854617Z" fill="#C42032"/>
<path d="M0.851074 11.3403V11.0439C0.921542 11.0972 0.921542 11.287 0.851074 11.3403Z" fill="#C42032"/>
<path d="M13.32 24.0871H13.0391C13.086 24.0104 13.2758 24.0123 13.32 24.0871Z" fill="#C42032"/>
<path d="M0.851074 12.2297V12.1455L0.879261 12.196L0.851074 12.2297Z" fill="#C42032"/>
<path d="M12.1951 24.0865H12.1021L12.1584 24.0547L12.1951 24.0865Z" fill="#C42032"/>
<path d="M17.6314 12.0994C18.2477 11.0841 18.5221 9.71163 18.43 8.5299C18.3924 8.05029 18.2233 7.72681 17.7019 7.66884C17.0037 7.59031 16.1083 7.67819 15.429 7.85582C15.6959 6.56003 15.2092 5.32594 14.4162 4.31624C14.1418 3.96751 13.3094 3.01671 12.8725 3.00362C12.4628 2.99053 11.7826 3.72444 11.5138 4.03109C10.6015 5.07165 9.97389 6.45626 10.2717 7.85582C9.9861 7.70717 9.56236 7.79412 9.31149 7.62303L4.8833 3.21584C5.86797 2.34918 6.99263 1.61994 8.21126 1.11883C13.7115 -1.14554 19.9953 0.886968 23.0856 5.90185C25.8319 10.3586 25.3424 16.1925 21.8237 20.0761L17.8851 16.1579C17.855 16.0868 18.1322 15.4427 18.1782 15.2828C18.3746 14.5947 18.492 13.6289 18.4253 12.9184C18.3783 12.4229 18.1585 12.1153 17.6295 12.1013L17.6314 12.0994Z" fill="#C42032"/>
<path d="M12.1491 12.4732H11.4698C10.9446 12.4732 9.98813 12.0815 9.59445 11.7281C9.1397 11.3205 8.68213 10.3014 8.68213 9.6984V9.02246C9.37365 9.0636 10.1244 9.13278 10.7407 9.46935C11.8616 10.0827 12.1285 11.2859 12.1501 12.4742L12.1491 12.4732Z" fill="#C42032"/>
<path d="M17.0226 9.02148V9.69743C17.0226 10.207 16.6167 11.1783 16.2738 11.5645C15.8698 12.0207 14.8391 12.4723 14.234 12.4723H13.5547C13.5763 11.7598 13.6571 11.0194 14.0151 10.3893C14.6267 9.31505 15.8698 9.05982 17.0226 9.02148Z" fill="#C42032"/>
<path d="M13.5547 16.9039C13.581 15.8624 13.8149 14.6255 14.7592 14.0215C15.4216 13.598 16.2503 13.483 17.0236 13.4521C17.064 14.9499 16.5547 16.2924 15.0082 16.7402C14.8447 16.7879 14.4266 16.9039 14.2819 16.9039H13.5556H13.5547Z" fill="#C42032"/>
<path d="M12.1491 16.9039H11.4698C10.86 16.9039 9.84058 16.4504 9.42999 15.9951C9.08799 15.6165 8.68115 14.6311 8.68115 14.1281V13.4521C9.74099 13.4989 10.9549 13.7008 11.5778 14.6507C12.011 15.3108 12.1181 16.1325 12.1491 16.9039Z" fill="#C42032"/>
<path d="M12.8978 9.53462C12.8668 9.56079 12.832 9.53742 12.801 9.5047C12.2373 8.91196 11.5993 7.97705 11.5833 7.13375C11.5664 6.2325 12.195 5.28075 12.8348 4.68708C12.9842 4.6609 13.6128 5.5631 13.703 5.72484C14.5139 7.17115 14.0056 8.31362 12.9438 9.41869C12.9091 9.45515 12.9025 9.52901 12.8969 9.53368L12.8978 9.53462Z" fill="#C42032"/>
</svg>
