<svg width="18" height="25" viewBox="0 0 18 25" fill="none" xmlns="http://www.w3.org/2000/svg">
<path d="M12.3141 24.3949V10.3844C12.3141 10.3788 12.3921 10.3008 12.3977 10.3008H17.7665C17.7721 10.3008 17.8502 10.3788 17.8502 10.3844V21.9614C17.8502 23.0394 16.8301 24.3938 15.6964 24.3938H12.313L12.3141 24.3949Z" fill="#C42032"/>
<path d="M14.7188 3.42188L11.3354 9.40602H0.904297L0.957806 9.20758L4.45602 3.42188H14.7188Z" fill="#C42032"/>
<path d="M14.719 2.47094H4.42725V1.60364C4.42725 1.56685 4.51866 1.27812 4.5443 1.21793C4.75945 0.708472 5.22321 0.550173 5.73936 0.511156C8.22646 0.323873 10.9477 0.654963 13.4593 0.5145C13.8773 0.566895 14.233 0.628208 14.4849 0.998315C14.525 1.05628 14.7179 1.45872 14.7179 1.49216V2.47094H14.719Z" fill="#C42032"/>
<path d="M17.7957 9.40607H12.4814L15.2506 4.42969L17.7957 9.40607Z" fill="#C42032"/>
<path d="M0.932242 10.3008C0.926668 10.3008 0.848633 10.3788 0.848633 10.3844V22.298C0.848633 23.3515 2.07602 24.4518 3.11389 24.4518H11.3633V10.3019H0.932242V10.3008ZM8.50391 17.704C8.3378 19.7485 5.8351 20.6682 4.51184 19.0251C3.37141 17.6093 4.29222 15.8011 5.29442 14.6049C5.47167 14.3931 5.76821 14.003 6.03464 13.9472C6.70352 13.8079 7.20406 14.5994 7.54964 15.091C8.05687 15.8123 8.57748 16.7933 8.50391 17.7029V17.704Z" fill="#C42032"/>
</svg>
