<svg width="25" height="19" viewBox="0 0 25 19" fill="none" xmlns="http://www.w3.org/2000/svg">
<path d="M0.877754 3.49199C0.908852 2.39034 1.52356 1.97916 2.38706 1.43915C4.71217 -0.00979125 7.41254 -0.309679 9.46089 1.73801C9.76668 2.03584 10.0403 2.36561 10.2684 2.71393C10.4394 2.96539 10.5597 3.26321 10.7618 3.40543C10.9474 3.54867 11.2179 3.54661 11.4564 3.5394C11.7 3.53321 11.9436 3.54558 12.1861 3.57547C13.8426 3.7486 15.3208 4.84304 16.0589 6.32186C16.2289 6.66091 16.5679 6.77118 16.9265 6.74851C17.6138 6.74129 18.3084 6.87114 18.9521 7.11332C19.1003 7.16794 19.5253 7.33283 19.1636 7.41115C18.3612 7.52657 17.5568 7.68012 16.8042 7.99031C16.6964 8.03256 16.5845 8.07276 16.4736 8.09852C16.1615 8.17993 15.8516 8.09543 15.5613 7.96661C13.826 7.21019 11.8596 7.25657 10.1461 8.08306C9.63918 8.33039 9.15612 7.97073 8.67617 7.81512C7.08705 7.26584 5.34036 7.26687 3.80514 7.98516C3.52422 8.11501 3.25677 8.27577 2.99969 8.44375C2.65969 8.69417 2.30206 8.74879 2.02735 8.37986C0.94928 7.01748 0.767873 5.18002 0.875681 3.50951V3.48993L0.877754 3.49199Z" fill="#C42032"/>
<path d="M0.980469 4.65378V4.32812C1.05821 4.38687 1.05821 4.59504 0.980469 4.65378Z" fill="#C42032"/>
<path d="M6.27142 18.1537H5.94385C6.00293 18.0764 6.21233 18.0764 6.27142 18.1537Z" fill="#C42032"/>
<path d="M0.980469 3.58299V3.30371C1.05718 3.35112 1.05614 3.53867 0.980469 3.58299Z" fill="#C42032"/>
<path d="M19.8498 18.1535H19.5688C19.6165 18.0772 19.8052 18.0783 19.8498 18.1535Z" fill="#C42032"/>
<path d="M7.0209 18.1061V18.1524H6.78662C6.82705 18.0762 6.94522 18.1092 7.0209 18.1061Z" fill="#C42032"/>
<path d="M12.5448 18.1545H12.3105V18.1081C12.3852 18.1143 12.5044 18.0772 12.5448 18.1545Z" fill="#C42032"/>
<path d="M13.5287 18.1061V18.1524H13.2944C13.3349 18.0762 13.453 18.1092 13.5287 18.1061Z" fill="#C42032"/>
<path d="M24.843 13.0528C24.7269 12.3324 24.247 11.6461 23.8437 11.0113C22.3033 8.52459 19.3448 7.62596 16.7564 9.06769C16.3884 9.26143 16.0401 9.34902 15.6618 9.17486C14.0291 8.16184 11.9186 8.10928 10.2745 9.12952C9.89302 9.34387 9.49911 9.29234 9.11557 9.0749C8.76312 8.89043 8.38994 8.73276 8.00639 8.61837C4.71101 7.5837 2.15162 9.89315 1.05281 12.8426C0.799881 13.633 1.22489 14.4172 1.61569 15.0881C2.2304 16.1207 3.06073 17.1111 4.11703 17.6737C5.17748 18.2632 6.44319 18.2045 7.60937 18.0777C8.05822 18.0169 8.49775 17.8716 8.9041 17.6686C9.29594 17.4542 9.7282 17.2079 10.1657 17.4481C10.656 17.7191 11.1722 17.9973 11.734 18.0695C12.496 18.1849 13.3252 18.1859 14.0861 18.0757C14.4697 18.0169 14.8532 17.8881 15.1994 17.7047C15.4866 17.5573 15.7882 17.3275 16.1168 17.345C16.3273 17.3491 16.5626 17.4666 16.7699 17.581C17.1545 17.7912 17.5753 17.9448 18.0055 18.0386C19.1354 18.2581 20.3742 18.2271 21.4315 17.715C22.6952 17.1121 23.6862 15.9383 24.3392 14.7171C24.6015 14.2142 24.8917 13.6495 24.843 13.0734L24.8409 13.0559L24.843 13.0528ZM6.8599 15.2994C3.98849 16.0105 3.22866 11.4091 6.20788 11.1803C7.87578 10.9876 8.92379 12.8312 8.23652 14.2431C8.01054 14.7367 7.48602 15.1541 6.88271 15.2942L6.8599 15.2994ZM13.4144 15.2994C10.543 16.0105 9.78314 11.4091 12.7624 11.1803C14.4303 10.9876 15.4783 12.8312 14.791 14.2431C14.565 14.7367 14.0405 15.1541 13.4372 15.2942L13.4144 15.2994ZM19.9699 15.2994C17.0985 16.0105 16.3387 11.4091 19.3179 11.1803C20.9858 10.9876 22.0338 12.8312 21.3465 14.2431C21.1205 14.7367 20.596 15.1541 19.9927 15.2942L19.9699 15.2994Z" fill="#C42032"/>
<path d="M6.21214 12.5784C7.21039 12.4176 7.35448 13.8027 6.51794 13.9531C5.53834 14.1283 5.35486 12.7175 6.21214 12.5784Z" fill="#C42032"/>
<path d="M12.7678 12.5784C13.7661 12.4176 13.9101 13.8027 13.0736 13.9531C12.094 14.1283 11.9105 12.7175 12.7678 12.5784Z" fill="#C42032"/>
<path d="M19.322 12.5784C20.3203 12.4176 20.4643 13.8027 19.6278 13.9531C18.6482 14.1283 18.4647 12.7175 19.322 12.5784Z" fill="#C42032"/>
</svg>
