<svg width="19" height="25" viewBox="0 0 19 25" fill="none" xmlns="http://www.w3.org/2000/svg">
<path d="M12.2722 0.187216C13.0076 0.444483 13.3265 1.42609 12.8277 2.08397C12.5779 2.44092 11.9428 2.55674 11.5301 2.58047C10.0366 2.66496 8.59224 2.64313 7.10816 2.55484C6.82989 2.5368 6.5185 2.48174 6.28566 2.3194C5.46412 1.76215 5.75563 0.351449 6.71631 0.153989C7.32774 0.131205 10.7956 0.153989 12.0583 0.146395C12.1311 0.146395 12.1879 0.155888 12.2618 0.183418L12.2722 0.187216Z" fill="#C42032"/>
<path d="M11.6808 3.33398C11.7414 3.35297 11.747 3.44031 11.7537 3.49537C11.8559 4.36495 11.6931 5.45383 11.7489 6.35854C11.8133 7.40565 12.1692 8.44137 12.4986 9.42582C11.5256 9.61094 10.6406 8.88375 9.80486 8.49548C8.87163 8.06164 7.86174 7.80437 6.84521 8.11385C6.95974 7.54995 7.13295 6.9813 7.17175 6.40316C7.23327 5.48326 7.06669 4.38109 7.16986 3.49537C7.17554 3.4479 7.19068 3.33398 7.24274 3.33398H11.6817H11.6808Z" fill="#C42032"/>
<path d="M18.058 20.651C17.987 19.8764 17.1702 18.8957 16.7594 18.2037C15.2555 15.6699 13.8859 13.0146 12.8022 10.2701C12.7104 10.1581 12.5429 10.2654 12.4274 10.2701C11.001 10.3204 10.3309 9.55814 9.13363 9.07588C8.25908 8.72368 7.46688 8.70944 6.57434 9.01417C5.49062 12.1156 3.98856 15.1164 2.32085 17.9407C1.89588 18.6603 0.937097 19.8745 0.865164 20.651C0.698583 22.4576 1.92996 23.9841 3.73584 24.1436H15.1864C16.9904 23.9879 18.2236 22.4557 18.0571 20.651H18.058ZM9.12038 13.795C9.73086 13.6127 9.88703 14.4101 9.41663 14.5611C8.84495 14.7443 8.73232 13.9108 9.12038 13.795ZM5.98563 20.9501C5.54173 20.9007 4.33875 20.3093 4.85648 19.7805C5.22182 19.4074 5.47927 19.9314 5.79918 20.0586C6.18534 20.2124 6.8157 20.1602 7.04096 19.7691C7.43754 19.0789 5.96576 18.9831 5.55972 18.8464C3.50964 18.16 4.90191 15.6139 6.9643 16.3601C7.31544 16.4873 8.07168 17.0645 7.6098 17.4328C7.23878 17.7299 7.07219 17.336 6.79582 17.185C6.44278 16.9923 5.93263 17.0085 5.60799 17.2524C5.41301 17.3986 5.28808 17.6853 5.4575 17.8951C5.62692 18.104 6.73146 18.2597 7.07787 18.4011C8.74273 19.0808 7.783 21.1485 5.98563 20.9491V20.9501ZM7.89563 11.865C7.42239 11.8603 7.33816 11.0951 7.86251 11.0277C8.42282 10.9565 8.49192 11.8697 7.89563 11.865ZM11.5661 19.621C11.4147 21.3801 8.66512 21.3697 8.48056 19.6666C8.42945 19.1957 8.4304 17.4974 8.59792 17.1119C8.8194 16.6021 9.37499 16.267 9.92111 16.2338C10.6887 16.1882 11.4781 16.7113 11.5651 17.5097C11.62 18.0166 11.6106 19.1046 11.5661 19.6201V19.621ZM11.1894 13.5282C10.8364 13.1295 11.408 12.6121 11.7828 12.9567C12.1841 13.3251 11.5547 13.9412 11.1894 13.5282ZM14.2976 21.7048C14.3109 21.7048 14.503 21.8197 14.5286 21.8481C14.752 22.0883 14.5967 22.4756 14.2863 22.5383C14.0336 22.5896 12.7908 22.5877 12.5249 22.5459C11.8888 22.4472 12.1434 21.5244 12.4056 21.1665C12.7757 20.6605 13.2234 20.6824 13.636 20.3852C14.0828 20.0634 13.6502 19.4084 13.1571 19.6704C12.8628 19.827 13.0284 20.3321 12.7 20.4298C11.9636 20.6491 12.0592 19.6457 12.4283 19.2213C13.3379 18.1761 15.0775 19.1701 14.5447 20.5476C14.3222 21.1228 13.7449 21.176 13.2963 21.4513C13.2045 21.5073 13.0502 21.5814 13.0587 21.7048H14.2967H14.2976Z" fill="#C42032"/>
<path d="M9.82274 17.0772C10.2941 16.9966 10.7153 17.1902 10.7692 17.6981C10.808 18.0598 10.8175 19.2683 10.7484 19.5987C10.5913 20.3467 9.36559 20.3363 9.27378 19.479C9.23403 19.1069 9.22551 18.0161 9.28514 17.662C9.33341 17.3753 9.52649 17.1276 9.82274 17.0763V17.0772Z" fill="#C42032"/>
</svg>
