<svg width="89" height="141" viewBox="0 0 89 141" fill="none" xmlns="http://www.w3.org/2000/svg">
<path d="M87.7296 77.3304C88.2961 83.802 88.5431 89.3877 85.1386 95.1483C78.649 106.115 65.4588 107.682 57.1856 97.5887C51.642 90.8219 51.9975 82.3618 53.6063 74.2212C56.6613 73.715 59.2885 72.1484 62.4942 72.6605C65.3383 73.1125 69.4538 76.987 72.2196 78.4452C78.0645 81.5182 82.18 80.1022 87.7296 77.3304Z" fill="white"/>
<path d="M81.3728 53.2166C82.8792 58.7059 84.7351 64.117 85.9342 69.7027C86.109 70.5282 86.9405 73.4929 86.4826 73.9147C85.7052 74.6197 80.7461 76.7648 79.6314 76.8913C74.1782 77.4999 69.7915 71.2634 64.6335 69.8052C60.9579 68.7688 58.0294 69.5039 54.5044 70.5945L59.2827 53.2226H81.3728V53.2166Z" fill="white"/>
<path d="M72.8582 107.49V132.02C72.8582 132.84 74.3164 135.834 74.8226 136.708C75.6782 138.178 76.8713 139.414 77.9258 140.727H62.7351C63.7896 139.414 64.9827 138.178 65.8383 136.708C66.3445 135.84 67.8027 132.846 67.8027 132.02V107.49C69.3211 108.002 71.3578 108.002 72.8642 107.49H72.8582Z" fill="white"/>
<path d="M28.7261 30.5175H18.5969V35.579H28.7261V30.5175Z" fill="white"/>
<path d="M21.4591 0.726929H25.9543C27.533 0.726929 28.8164 2.01039 28.8164 3.58911V26.6553H18.5969V3.58911C18.5969 2.01039 19.8804 0.726929 21.4591 0.726929Z" fill="white"/>
<path d="M46.4601 60.7905C46.0142 55.6265 44.0618 51.1313 40.7417 47.2026C38.8798 44.9972 32.9445 39.773 30.1546 39.4295C27.9251 39.1584 18.6215 39.0981 16.6089 39.5079C15.3255 39.767 11.3666 42.599 10.2157 43.5631C5.26866 47.7088 1.67134 53.3789 0.912109 59.8926L0.936213 138.907C1.22544 139.961 2.14134 140.697 3.23801 140.721L44.6403 140.648C45.8394 140.305 46.5203 139.287 46.4661 138.039V60.7905H46.4601ZM41.4286 122.596H6.1243V79.952H41.4286V122.596Z" fill="white"/>
</svg>
