<svg width="22" height="34" viewBox="0 0 22 34" fill="none" xmlns="http://www.w3.org/2000/svg">
<path d="M21.5012 18.6037C21.6387 20.1754 21.6987 21.5319 20.8719 22.9309C19.2958 25.5942 16.0925 25.9747 14.0833 23.5236C12.737 21.8802 12.8233 19.8256 13.2141 17.8486C13.956 17.7257 14.594 17.3452 15.3725 17.4696C16.0633 17.5794 17.0627 18.5203 17.7344 18.8744C19.1539 19.6208 20.1534 19.2769 21.5012 18.6037Z" fill="white"/>
<path d="M19.9573 12.7474C20.3232 14.0806 20.7739 15.3947 21.0651 16.7512C21.1075 16.9517 21.3095 17.6717 21.1983 17.7741C21.0095 17.9453 19.8051 18.4663 19.5344 18.497C18.21 18.6448 17.1447 17.1302 15.8921 16.7761C14.9994 16.5244 14.2882 16.7029 13.4321 16.9678L14.5926 12.7489H19.9573V12.7474Z" fill="white"/>
<path d="M17.8896 25.9281V31.8855C17.8896 32.0845 18.2438 32.8118 18.3667 33.024C18.5745 33.3811 18.8642 33.681 19.1203 34.0001H15.4312C15.6872 33.681 15.977 33.3811 16.1848 33.024C16.3077 32.8133 16.6618 32.086 16.6618 31.8855V25.9281C17.0306 26.0525 17.5252 26.0525 17.8911 25.9281H17.8896Z" fill="white"/>
<path d="M7.17185 7.23486H4.71191V8.4641H7.17185V7.23486Z" fill="white"/>
<path d="M5.40702 0H6.49869C6.8821 0 7.1938 0.311698 7.1938 0.695102V6.29689H4.71191V0.695102C4.71191 0.311698 5.02361 0 5.40702 0Z" fill="white"/>
<path d="M11.4786 14.5868C11.3703 13.3327 10.8962 12.2411 10.0899 11.2869C9.63771 10.7513 8.19629 9.4826 7.51875 9.39919C6.9773 9.33334 4.71785 9.3187 4.22908 9.41821C3.91738 9.48114 2.95595 10.1689 2.67644 10.4031C1.47501 11.4099 0.601377 12.7869 0.416992 14.3688L0.422846 33.558C0.493088 33.8141 0.715521 33.9926 0.981855 33.9985L11.0367 33.9809C11.3279 33.8975 11.4933 33.6502 11.4801 33.3473V14.5868H11.4786ZM10.2567 29.5966H1.68281V19.2404H10.2567V29.5966Z" fill="white"/>
</svg>
