<svg width="11" height="24" viewBox="0 0 11 24" fill="none" xmlns="http://www.w3.org/2000/svg">
<path d="M10.0477 7.03616C10.1956 8.72648 10.2602 10.1854 9.37093 11.6901C7.67588 14.5545 4.2307 14.9637 2.0698 12.3275C0.621847 10.56 0.714705 8.35033 1.13492 6.22405C1.93287 6.09184 2.61907 5.68264 3.45637 5.81642C4.19923 5.93446 5.27417 6.94645 5.99657 7.32732C7.52322 8.12999 8.59816 7.76013 10.0477 7.03616Z" fill="white"/>
<path d="M8.38795 0.737778C8.78141 2.17156 9.26616 3.58488 9.57936 5.04385C9.625 5.25947 9.84219 6.0338 9.72258 6.14397C9.51955 6.32811 8.22427 6.88841 7.9331 6.92146C6.50876 7.08042 5.36299 5.45148 4.01577 5.0706C3.05572 4.7999 2.29082 4.99191 1.37012 5.27678L2.61819 0.739351H8.38795V0.737778Z" fill="white"/>
<path d="M6.16313 14.9135V21.3207C6.16313 21.5347 6.544 22.3169 6.6762 22.5451C6.89969 22.9292 7.21131 23.2518 7.48674 23.5949H3.51904C3.79447 23.2518 4.10609 22.9292 4.32958 22.5451C4.46178 22.3185 4.84266 21.5363 4.84266 21.3207V14.9135C5.23927 15.0473 5.77123 15.0473 6.1647 14.9135H6.16313Z" fill="white"/>
</svg>
