<svg width="61" height="96" viewBox="0 0 61 96" fill="none" xmlns="http://www.w3.org/2000/svg">
<path d="M59.9002 52.5282C60.2886 56.9658 60.458 60.796 58.1235 64.7461C53.6735 72.2661 44.6288 73.3404 38.9557 66.4195C35.1544 61.7794 35.3981 55.9783 36.5014 50.3961C38.5962 50.049 40.3977 48.9748 42.5959 49.326C44.5461 49.6359 47.3682 52.2926 49.2647 53.2926C53.2727 55.3998 56.0947 54.4288 59.9002 52.5282Z" fill="white"/>
<path d="M55.5412 35.9929C56.5742 39.7571 57.8468 43.4675 58.6691 47.2977C58.7889 47.8638 59.3591 49.8967 59.0451 50.1859C58.5121 50.6693 55.1115 52.1403 54.3471 52.2271C50.6078 52.6444 47.5998 48.3679 44.0629 47.368C41.5424 46.6573 39.5343 47.1614 37.1172 47.9092L40.3938 35.997H55.5412V35.9929Z" fill="white"/>
<path d="M49.7025 73.2087V90.0296C49.7025 90.5915 50.7025 92.6451 51.0495 93.2442C51.6363 94.2524 52.4544 95.0994 53.1775 96.0002H42.761C43.4841 95.0994 44.3022 94.2524 44.8889 93.2442C45.236 92.6492 46.2359 90.5957 46.2359 90.0296V73.2087C47.2771 73.5599 48.6737 73.5599 49.7067 73.2087H49.7025Z" fill="white"/>
<path d="M19.4406 20.4277H12.4949V23.8985H19.4406V20.4277Z" fill="white"/>
<path d="M14.4575 0H17.5399C18.6225 0 19.5025 0.880089 19.5025 1.96264V17.7795H12.4949L12.4949 1.96264C12.4949 0.880089 13.375 0 14.4575 0Z" fill="white"/>
<path d="M31.601 41.1864C31.2953 37.6454 29.9566 34.563 27.6799 31.869C26.4031 30.3567 22.3332 26.7744 20.4202 26.5389C18.8914 26.353 12.5118 26.3116 11.1317 26.5926C10.2516 26.7703 7.53698 28.7123 6.74779 29.3734C3.35551 32.2161 0.888781 36.1042 0.368164 40.5707L0.384692 94.752C0.583022 95.4751 1.21107 95.9792 1.96307 95.9957L30.3532 95.9461C31.1755 95.7106 31.6424 95.0123 31.6052 94.157L31.6052 41.1864H31.601ZM28.1509 83.567H3.94224L3.94224 54.3257H28.1509L28.1509 83.567Z" fill="white"/>
</svg>
