<svg width="21" height="61" viewBox="0 0 21 61" fill="none" xmlns="http://www.w3.org/2000/svg">
<path d="M12.6459 13.4375H8.3457V15.6067H12.6459V13.4375Z" fill="#CC7C7A"/>
<path d="M9.5608 0.669922H11.4691C12.1394 0.669922 12.6842 1.21998 12.6842 1.89657V11.7821H8.3457V1.89657C8.3457 1.21998 8.89058 0.669922 9.5608 0.669922Z" fill="#CC7C7A"/>
<path d="M20.1746 26.4114C19.9853 24.1983 19.1564 22.2718 17.7469 20.588C16.9565 19.6429 14.4368 17.4039 13.2524 17.2567C12.3059 17.1405 8.35615 17.1147 7.50174 17.2903C6.95687 17.4013 5.2762 18.6151 4.7876 19.0283C2.6874 20.805 1.16021 23.235 0.837891 26.0266L0.848123 59.8899C0.970912 60.3418 1.35974 60.6569 1.82532 60.6672L19.402 60.6362C19.9111 60.489 20.2002 60.0526 20.1771 59.518L20.1771 26.4114H20.1746ZM18.0386 52.8993H3.05065L3.05065 34.6235H18.0386L18.0386 52.8993Z" fill="#CC7C7A"/>
</svg>
