<svg width="20" height="64" viewBox="0 0 20 64" fill="none" xmlns="http://www.w3.org/2000/svg">
<path d="M14 0H6C5.46957 0 4.96086 0.210714 4.58578 0.585786C4.21071 0.960859 4 1.46957 4 2V20.333C1.989 21 0 22.723 0 26V62C0 62.5304 0.210712 63.0391 0.585785 63.4142C0.960858 63.7893 1.46957 64 2 64H18C18.5304 64 19.0391 63.7893 19.4142 63.4142C19.7893 63.0391 20 62.5304 20 62V26C20 22.723 18.011 21 16 20.333V2C16 1.46957 15.7893 0.960859 15.4142 0.585786C15.0391 0.210714 14.5304 0 14 0ZM4 38H16V46H4V38Z" fill="#CC7C7A"/>
</svg>
