<svg width="28" height="32" viewBox="0 0 28 32" fill="none" xmlns="http://www.w3.org/2000/svg">
<path d="M24.7568 0.963257H5.3043C3.95492 0.963257 2.86103 2.05715 2.86103 3.40653L2.86103 5.66528H1.90529C1.31293 5.66528 0.832222 6.14598 0.832222 6.73835C0.832222 7.33071 1.31293 7.81142 1.90529 7.81142H2.86103L2.86103 11.8577H1.90529C1.31293 11.8577 0.832222 12.3384 0.832222 12.9307C0.832222 13.5231 1.31293 14.0038 1.90529 14.0038H2.86103V18.0501H1.87312C1.28075 18.0501 0.800049 18.5308 0.800049 19.1231C0.800049 19.7155 1.28075 20.1962 1.87312 20.1962H2.86103V24.2425H1.93936C1.34699 24.2425 0.866288 24.7232 0.866288 25.3155C0.866288 25.9079 1.34699 26.3886 1.93936 26.3886H2.86103V28.5934C2.86103 29.9428 3.95492 31.0367 5.3043 31.0367H24.7568C26.1062 31.0367 27.2 29.9428 27.2 28.5934V3.40653C27.2 2.05715 26.1062 0.963257 24.7568 0.963257ZM15.824 23.3747C6.05564 24.0513 4.85766 9.32072 14.5711 8.42176C24.5902 7.49442 25.7116 22.6906 15.824 23.3747Z" fill="white"/>
<path d="M14.5682 9.9963C7.02834 10.846 8.08533 22.4445 15.823 21.7963C23.5758 21.1472 22.5311 9.09923 14.5682 9.9963ZM18.9883 15.1762L14.326 18.6093C14.1755 18.6471 14.027 18.6424 13.8756 18.6093C13.5264 18.5317 11.3348 16.2843 11.2534 15.8944C11.1257 15.286 11.6679 14.8715 12.2518 15.0002C12.7485 15.1099 13.9607 16.7839 14.2304 16.7423L18.1224 13.9158C18.9154 13.7379 19.416 14.5119 18.9873 15.1771L18.9883 15.1762Z" fill="white"/>
</svg>
