<svg width="57" height="64" viewBox="0 0 57 64" fill="none" xmlns="http://www.w3.org/2000/svg">
<path d="M51.1421 0H9.74478C6.87313 0 4.5452 2.32793 4.5452 5.19958L4.5452 10.0065H2.51128C1.25065 10.0065 0.227648 11.0295 0.227648 12.2901C0.227648 13.5507 1.25065 14.5737 2.51128 14.5737H4.5452L4.5452 23.1847H2.51128C1.25065 23.1847 0.227648 24.2077 0.227648 25.4683C0.227648 26.7289 1.25065 27.7519 2.51128 27.7519H4.5452L4.5452 36.3629H2.44281C1.18218 36.3629 0.15918 37.3859 0.15918 38.6465C0.15918 39.9071 1.18218 40.9301 2.44281 40.9301H4.5452V49.541H2.58377C1.32315 49.541 0.300145 50.564 0.300145 51.8247C0.300145 53.0853 1.32315 54.1083 2.58377 54.1083H4.5452V58.8004C4.5452 61.6721 6.87313 64 9.74478 64H51.1421C54.0138 64 56.3417 61.6721 56.3417 58.8004L56.3417 5.19958C56.3417 2.32793 54.0138 0 51.1421 0ZM32.132 47.6944C11.3437 49.1343 8.79428 17.7857 29.4657 15.8726C50.7877 13.8991 53.174 46.2384 32.132 47.6944Z" fill="white"/>
<path d="M29.4588 19.2236C13.413 21.0319 15.6624 45.7149 32.1291 44.3354C48.628 42.954 46.4048 17.3145 29.4588 19.2236ZM38.8652 30.247L28.9433 37.553C28.6231 37.6336 28.307 37.6235 27.9848 37.553C27.2417 37.3879 22.5778 32.6051 22.4046 31.7755C22.1327 30.4806 23.2866 29.5986 24.5291 29.8724C25.5863 30.106 28.166 33.6684 28.7399 33.5798L37.0226 27.5646C38.7102 27.1861 39.7755 28.8333 38.8632 30.249L38.8652 30.247Z" fill="white"/>
</svg>
