<svg width="88" height="101" viewBox="0 0 88 101" fill="none" xmlns="http://www.w3.org/2000/svg">
<path d="M79.8558 0.604492H15.0142C10.5162 0.604492 6.86992 4.25079 6.86992 8.74873V16.2779H3.68415C1.7096 16.2779 0.107244 17.8802 0.107244 19.8548C0.107244 21.8293 1.7096 23.4317 3.68415 23.4317H6.86992V36.9192H3.68415C1.7096 36.9192 0.107244 38.5215 0.107244 40.4961C0.107244 42.4706 1.7096 44.073 3.68415 44.073H6.86992V57.5605H3.5769C1.60235 57.5605 0 59.1629 0 61.1374C0 63.112 1.60235 64.7143 3.5769 64.7143H6.86992V78.2018H3.7977C1.82315 78.2018 0.220797 79.8042 0.220797 81.7787C0.220797 83.7533 1.82315 85.3556 3.7977 85.3556H6.86992V92.705C6.86992 97.2029 10.5162 100.849 15.0142 100.849H79.8558C84.3537 100.849 88 97.2029 88 92.705V8.74873C88 4.25079 84.3537 0.604492 79.8558 0.604492ZM50.0798 75.3094C17.5186 77.5647 13.5254 28.4627 45.9036 25.4662C79.3006 22.375 83.0384 73.0289 50.0798 75.3094Z" fill="white"/>
<path d="M45.8942 30.7148C20.7612 33.5473 24.2845 72.2087 50.0767 70.0481C75.9193 67.8843 72.4371 27.7245 45.8942 30.7148ZM60.6276 47.981L45.0867 59.4246C44.5852 59.5508 44.09 59.535 43.5853 59.4246C42.4214 59.166 35.1162 51.6746 34.8449 50.3751C34.4191 48.3469 36.2264 46.9654 38.1726 47.3943C39.8286 47.7602 43.8692 53.3401 44.7681 53.2013L57.7415 43.7796C60.3847 43.1866 62.0533 45.7668 60.6245 47.9842L60.6276 47.981Z" fill="white"/>
</svg>
