<svg width="36" height="36" viewBox="0 0 36 36" fill="none" xmlns="http://www.w3.org/2000/svg">
<path d="M18.4027 0C8.68483 0 0.808105 7.87672 0.808105 17.5946C0.808105 27.3125 8.68483 35.1892 18.4027 35.1892C28.1206 35.1892 35.9973 27.3125 35.9973 17.5946C35.9973 7.87672 28.1206 0 18.4027 0ZM25.0792 22.0498C25.6919 22.6625 25.6919 23.6584 25.0792 24.2711C24.4666 24.8838 23.4706 24.8838 22.8579 24.2711L18.4027 19.8159L13.9475 24.2711C13.3348 24.8838 12.3388 24.8838 11.7262 24.2711C11.1135 23.6584 11.1135 22.6625 11.7262 22.0498L16.1814 17.5946L11.7262 13.1394C11.1135 12.5267 11.1135 11.5307 11.7262 10.9181C12.3388 10.3054 13.3348 10.3054 13.9475 10.9181L18.4027 15.3733L22.8579 10.9181C23.4706 10.3054 24.4666 10.3054 25.0792 10.9181C25.6919 11.5307 25.6919 12.5267 25.0792 13.1394L20.624 17.5946L25.0792 22.0498Z" fill="#5C052E"/>
</svg>
