<svg width="17" height="17" viewBox="0 0 17 17" fill="none" xmlns="http://www.w3.org/2000/svg">
<path d="M8.32617 16.7649C12.7445 16.7649 16.3262 13.1832 16.3262 8.76489C16.3262 4.34661 12.7445 0.764893 8.32617 0.764893C3.90789 0.764893 0.326172 4.34661 0.326172 8.76489C0.326172 13.1832 3.90789 16.7649 8.32617 16.7649Z" fill="#C42032"/>
<path d="M5.99805 6.36506C6.18613 5.83039 6.55737 5.37954 7.04601 5.09236C7.53465 4.80518 8.10916 4.70021 8.66779 4.79602C9.22641 4.89184 9.7331 5.18227 10.0981 5.61588C10.4631 6.04948 10.6629 6.59827 10.662 7.16505C10.662 8.76505 8.26205 9.56505 8.26205 9.56505" stroke="white" stroke-width="2" stroke-linecap="round" stroke-linejoin="round"/>
<path d="M8.32617 12.7649H8.33417" stroke="white" stroke-width="2" stroke-linecap="round" stroke-linejoin="round"/>
</svg>
