<svg width="21" height="21" viewBox="0 0 21 21" fill="none" xmlns="http://www.w3.org/2000/svg">
<path d="M10.3172 19.2382C14.9196 19.2382 18.6506 15.5072 18.6506 10.9049C18.6506 6.30249 14.9196 2.57153 10.3172 2.57153C5.71485 2.57153 1.98389 6.30249 1.98389 10.9049C1.98389 15.5072 5.71485 19.2382 10.3172 19.2382Z" fill="#C42032" fill-opacity="0.56"/>
<path d="M7.89258 8.40477C8.0885 7.84783 8.4752 7.37819 8.98421 7.07905C9.49321 6.7799 10.0917 6.67055 10.6736 6.77036C11.2555 6.87018 11.7833 7.17271 12.1635 7.62438C12.5437 8.07605 12.7518 8.64771 12.7509 9.2381C12.7509 10.9048 10.2509 11.7381 10.2509 11.7381" stroke="white" stroke-width="2" stroke-linecap="round" stroke-linejoin="round"/>
<path d="M10.3174 15.0715H10.3257" stroke="white" stroke-width="2" stroke-linecap="round" stroke-linejoin="round"/>
</svg>
