<svg width="32" height="30" viewBox="0 0 32 30" fill="none" xmlns="http://www.w3.org/2000/svg">
<path d="M31.9988 14.746H27.6914V28.0451C27.6914 28.0922 27.5186 28.5778 27.4764 28.6503C27.3338 28.8979 26.9328 29.1962 26.6538 29.2627C19.6346 29.3714 12.5985 29.2784 5.57331 29.3098C5.1445 29.2615 4.66496 28.9462 4.47894 28.5585C4.45116 28.5017 4.30862 28.0717 4.30862 28.0451V14.746H0C0.135286 14.56 0.309225 14.3884 0.477125 14.2326C5.3595 9.70175 10.4279 5.35689 15.3356 0.852585C16.0266 0.490212 16.7537 0.748705 17.2997 1.24153C21.9079 5.6178 26.7552 9.74523 31.3852 14.0961C31.6002 14.2979 31.8188 14.5141 32 14.7472L31.9988 14.746Z" fill="#848569"/>
</svg>
