<svg width="13" height="13" viewBox="0 0 13 13" fill="none" xmlns="http://www.w3.org/2000/svg">
<path d="M12.1315 5.21101C11.684 2.927 9.76334 0.995202 7.48804 0.520968C6.68413 0.353574 5.50786 0.374911 4.71056 0.570555C2.20115 1.18604 0.153348 3.36577 0.100455 6.01372C0.0947454 6.09156 0.104663 6.1721 0.100455 6.25024C0.11999 6.29532 0.11999 6.34731 0.100455 6.39209V6.58142C0.11999 6.6265 0.11999 6.67849 0.100455 6.72327V6.95979C0.189111 9.84456 2.79469 12.4552 5.68036 12.5412H5.91688C5.94062 12.5024 6.03649 12.5033 6.05873 12.5412H6.24776C6.26339 12.5039 6.35054 12.5039 6.36587 12.5412H6.57864C9.31526 12.5139 11.6407 10.2788 12.1336 7.6474C12.2625 6.95949 12.2661 5.89742 12.1315 5.21101ZM7.39037 9.82322C6.78601 10.0606 6.1534 10.3281 5.49644 10.1117C3.99831 9.61886 5.55595 7.31802 5.44145 6.31185C5.37803 5.75587 4.69463 5.95362 4.3328 6.06091L4.4509 5.64708C5.04655 5.42589 5.64761 5.15782 6.29555 5.33934C7.86971 5.77991 6.24987 8.18384 6.39562 9.18851C6.46865 9.69009 7.17429 9.54012 7.50036 9.39557L7.39007 9.82322H7.39037ZM7.58451 3.8391C7.41141 4.55947 6.36918 4.70102 5.9304 4.1198C5.54963 3.61521 5.88563 2.86809 6.50141 2.77944C7.14334 2.68718 7.7459 3.16772 7.58451 3.8391Z" fill="white"/>
</svg>
