<svg width="87" height="96" viewBox="0 0 87 96" fill="none" xmlns="http://www.w3.org/2000/svg">
<path d="M10.6792 52.1565L46.7037 41.6941L39.9923 52.1565H10.6792Z" fill="white"/>
<path d="M84.3094 52.1564H68.1211L75.5398 40.1006C80.5067 41.9801 83.7373 46.9471 84.3055 52.1564H84.3094Z" fill="white"/>
<path d="M72.9093 38.2447L58.7435 29.467L44.0413 52.1562H54.7977C55.0004 52.1562 57.6309 54.7152 58.9263 55.6807C58.9938 55.8079 59.0415 55.9192 59.0415 56.0026V59.6543L72.21 39.1944C72.21 39.1944 72.21 39.1824 72.21 39.1745L72.9053 38.2447H72.9093Z" fill="white"/>
<path d="M66.051 55.5142L59.137 66.1674C58.6364 69.239 59.4986 73.1609 59.0337 76.1292C58.7436 77.9888 56.0098 77.8894 55.7078 75.7278L55.6999 56.9844C55.7038 56.3566 54.9687 55.6096 54.4085 55.5103H0.514815C0.494947 55.5103 0.216797 55.7844 0.216797 55.8083V94.8924C0.216797 95.397 1.55589 96.0964 2.0804 95.9891H82.4421C82.9705 96.0964 84.3057 95.397 84.3057 94.8924V55.5103H66.0471L66.051 55.5142ZM13.417 73.8165C5.27119 73.7371 4.80231 61.7249 12.3998 60.6838C22.0834 59.3606 22.6476 73.9079 13.417 73.8165ZM31.4809 88.7651C27.3325 92.9135 20.6688 86.985 24.5987 82.3637C28.7352 77.504 36.0068 84.2392 31.4809 88.7651ZM42.6268 70.6973C38.4784 74.8457 31.8147 68.9171 35.7446 64.2958C39.8811 59.4362 47.1527 66.1714 42.6268 70.6973ZM75.3572 88.8049C67.8471 96.0249 57.2814 84.0684 65.161 77.5199C72.6869 71.2655 82.2116 82.2127 75.3572 88.8049Z" fill="white"/>
<path d="M82.0253 2.24506L82.7113 2.70604C84.6836 4.03135 85.2083 6.70581 83.883 8.67809L68.4646 31.6231L60.8657 26.5169L76.4371 3.34429C77.6759 1.50064 80.1795 1.00947 82.0231 2.24835L82.0253 2.24506Z" fill="white"/>
</svg>
