<svg width="30" height="32" viewBox="0 0 30 32" fill="none" xmlns="http://www.w3.org/2000/svg">
<path d="M4.14307 17.3854L16.1512 13.8979L13.9141 17.3854H4.14307Z" fill="white"/>
<path d="M28.6864 17.3854H23.2903L25.7632 13.3668C27.4188 13.9933 28.4957 15.649 28.6851 17.3854H28.6864Z" fill="white"/>
<path d="M24.8864 12.7483L20.1644 9.82239L15.2637 17.3854H18.8492C18.9167 17.3854 19.7936 18.2384 20.2253 18.5603C20.2479 18.6027 20.2638 18.6398 20.2638 18.6676V19.8848L24.6532 13.0648C24.6532 13.0648 24.6532 13.0609 24.6532 13.0582L24.885 12.7483H24.8864Z" fill="white"/>
<path d="M22.6003 18.5047L20.2956 22.0558C20.1287 23.0797 20.4161 24.387 20.2612 25.3764C20.1645 25.9963 19.2532 25.9631 19.1525 25.2426L19.1499 18.9948C19.1512 18.7855 18.9062 18.5365 18.7194 18.5034H0.754857C0.748234 18.5034 0.655518 18.5948 0.655518 18.6028V31.6308C0.655518 31.799 1.10188 32.0321 1.27672 31.9964H28.0639C28.2401 32.0321 28.6851 31.799 28.6851 31.6308V18.5034H22.5989L22.6003 18.5047ZM5.05559 24.6055C2.34031 24.579 2.18402 20.575 4.71652 20.2279C7.94439 19.7869 8.13247 24.636 5.05559 24.6055ZM11.0769 29.5884C9.69409 30.9712 7.47286 28.995 8.78281 27.4546C10.1616 25.8347 12.5855 28.0797 11.0769 29.5884ZM14.7922 23.5658C13.4094 24.9486 11.1882 22.9724 12.4981 21.4319C13.8769 19.812 16.3008 22.0571 14.7922 23.5658ZM25.7023 29.6016C23.199 32.0083 19.677 28.0228 22.3036 25.84C24.8122 23.7552 27.9871 27.4042 25.7023 29.6016Z" fill="white"/>
<path d="M27.9249 0.748352L28.1536 0.902012C28.811 1.34378 28.9859 2.23527 28.5442 2.8927L23.4047 10.541L20.8717 8.83896L26.0622 1.11476C26.4751 0.500215 27.3097 0.336491 27.9242 0.749452L27.9249 0.748352Z" fill="white"/>
</svg>
