<svg width="118" height="132" viewBox="0 0 118 132" fill="none" xmlns="http://www.w3.org/2000/svg">
<path d="M14.9885 71.853L63.9369 57.6371L54.8178 71.853H14.9885Z" fill="white"/>
<path d="M115.034 71.853H93.0378L103.118 55.4721C109.867 58.0259 114.256 64.7748 115.028 71.853H115.034Z" fill="white"/>
<path d="M99.5439 52.9505L80.296 41.0239L60.3193 71.8528H74.9347C75.2101 71.8528 78.7843 75.3298 80.5444 76.6418C80.6362 76.8146 80.701 76.9657 80.701 77.0791V82.0409L98.5936 54.2409C98.5936 54.2409 98.5936 54.2247 98.5936 54.2139L99.5385 52.9505H99.5439Z" fill="white"/>
<path d="M90.2252 76.4152L80.8307 90.8903C80.1504 95.0638 81.322 100.393 80.6903 104.426C80.2962 106.953 76.5816 106.818 76.1713 103.881L76.1605 78.4129C76.1659 77.5599 75.1671 76.5448 74.4058 76.4099H1.17764C1.15064 76.4099 0.772705 76.7824 0.772705 76.8148V129.92C0.772705 130.606 2.5922 131.556 3.30489 131.411H112.497C113.215 131.556 115.029 130.606 115.029 129.92V76.4099H90.2198L90.2252 76.4152ZM18.7086 101.284C7.64037 101.176 7.00328 84.8541 17.3264 83.4395C30.484 81.6416 31.2507 101.408 18.7086 101.284ZM43.2529 121.595C37.6162 127.232 28.5619 119.176 33.9017 112.897C39.5221 106.294 49.4025 115.445 43.2529 121.595ZM58.3974 97.0453C52.7607 102.682 43.7064 94.6265 49.0462 88.3473C54.6666 81.7442 64.547 90.8957 58.3974 97.0453ZM102.87 121.649C92.6656 131.459 78.3093 115.213 89.0158 106.316C99.2417 97.8173 112.183 112.692 102.87 121.649Z" fill="white"/>
<path d="M111.93 4.03577L112.862 4.66212C115.542 6.4629 116.255 10.0968 114.454 12.7767L93.5045 43.9533L83.1795 37.0152L104.337 5.52936C106.02 3.0243 109.422 2.35692 111.927 4.04025L111.93 4.03577Z" fill="white"/>
</svg>
