<svg width="30" height="30" viewBox="0 0 30 30" fill="none" xmlns="http://www.w3.org/2000/svg">
<path d="M26.0222 23.6265H29.134C29.1564 23.6265 29.4527 23.8104 29.5082 23.8514C30.2395 24.4002 30.1324 25.5203 29.2979 25.8893C29.2398 25.9144 28.9316 26.0255 28.9091 26.0255H26.0222V28.9124C26.0222 28.9349 25.9111 29.243 25.886 29.3012C25.517 30.137 24.3969 30.2428 23.8481 29.5114C23.8058 29.4559 23.6233 29.1584 23.6233 29.1372V26.0255H20.6623C20.0342 26.0255 19.4734 25.1579 19.6255 24.5404C19.6969 24.2534 20.14 23.6265 20.4362 23.6265H23.5096C23.5175 23.6265 23.622 23.5221 23.622 23.5141V20.4407C23.622 20.1445 24.2488 19.7002 24.5358 19.6301C25.1534 19.478 26.0209 20.0374 26.0209 20.6669V23.6279L26.0222 23.6265Z" fill="white"/>
<path d="M13.3361 0.0327231C4.20322 0.650308 -1.94618 9.65092 0.586315 18.436C1.02008 19.9409 1.85984 20.8574 1.48426 22.5184C1.14968 23.9995 0.348273 25.5362 0.0057582 27.0385C-0.0471399 28.1243 0.803197 28.9495 1.90083 28.7815C3.13468 28.5924 4.86577 27.6773 6.17235 27.3559C7.94576 26.9195 8.82916 27.7804 10.428 28.238C11.9025 28.6599 13.6588 28.8833 15.1915 28.804C15.5208 28.7868 16.6568 28.6823 16.8974 28.5607C17.0482 28.484 17.1514 28.3385 17.1672 28.1666C15.7403 23.4732 18.5227 18.4981 23.1923 17.1598C24.6655 16.7379 25.8081 16.73 27.3131 16.9773C27.7217 17.0448 28.301 17.4031 28.5562 16.9019C28.6818 16.6546 28.7784 15.5266 28.7969 15.1933C29.2478 6.50084 22.0008 -0.551801 13.3374 0.0340455L13.3361 0.0327231ZM15.9373 18.8274C13.4458 18.8486 10.4968 18.8658 7.92196 18.8221C6.55454 18.6357 6.40643 16.8199 7.70772 16.447L16.2309 16.4364C17.5031 16.6163 17.6274 18.8142 15.9373 18.8287V18.8274ZM21.2655 12.309C16.7877 12.4704 12.2662 12.3421 7.77384 12.3738C6.45007 12.0975 6.51223 10.2249 7.8598 9.99872L20.8807 9.98682C22.1529 10.1601 22.4081 11.7774 21.2655 12.3077V12.309Z" fill="white"/>
</svg>
