<svg width="63" height="64" viewBox="0 0 63 64" fill="none" xmlns="http://www.w3.org/2000/svg">
<path d="M31.2501 0C14.1623 0 0.260742 14.3537 0.260742 32C0.260742 49.6463 14.1623 64 31.2501 64C48.3378 64 62.2394 49.6463 62.2394 32C62.2394 14.3537 48.3378 0 31.2501 0ZM31.2501 60.4553C16.1149 60.4553 3.80333 47.6895 3.80333 31.9979C3.80333 30.2266 3.96171 28.4928 4.26178 26.8091L23.4605 34.3548C23.2855 35.7697 23.0896 37.1909 22.9875 38.5496C22.6812 42.6132 22.4665 46.6934 22.3102 50.7653C22.2206 53.0867 21.4913 56.4918 23.596 58.1818C26.1904 60.2657 28.5431 57.1628 28.5764 54.6934C28.6515 49.3087 27.6783 43.5884 27.6158 38.1558C27.6116 37.4598 27.5345 36.7012 27.4324 35.9156L36.9974 39.6749L36.5452 47.2936C36.6431 49.8671 35.0427 56.3605 38.4165 57.7734C39.869 58.3819 41.0151 57.8234 41.7799 56.8565C42.4176 56.05 42.6885 55.0393 42.6072 54.0412L41.5757 41.4754L54.7645 46.658C49.9549 54.9185 41.2131 60.4553 31.248 60.4553H31.2501ZM41.236 37.3118L40.863 32.7585L40.4441 6.95389C40.2253 6.61631 39.7544 6.54545 39.4314 6.80177C39.0604 7.0956 37.8414 9.06069 37.5392 9.57749C35.2636 13.4827 34.3759 17.4379 34.2675 21.8703C34.2029 24.5105 34.1466 28.1532 34.4071 30.7372C34.5822 32.471 35.5449 33.1107 37.3912 32.994L37.2287 35.7364L26.8489 31.6582C26.7843 30.9435 26.7635 30.26 26.8177 29.6369C27.001 27.5218 28.4785 27.3363 29.7163 26.1276C31.0583 24.8148 31.6001 22.8914 31.4397 21.0805C30.8437 16.9211 31.1896 12.349 30.6041 8.22923C30.4061 6.83303 28.6598 6.85804 28.5098 8.13128C28.4535 11.726 29.1537 15.5811 29.1183 19.1175C29.1016 20.6825 27.0385 21.0471 26.726 19.3196C26.478 17.9547 26.5697 15.3873 26.5238 13.8682C26.4655 12.0219 26.5634 9.94217 26.3905 7.95624C26.3071 7.01016 24.4983 6.88721 24.242 7.98125C24.0711 8.70852 24.1857 8.48763 24.0711 10.4423C23.869 13.168 24.2983 16.5793 23.9294 19.2342C23.7898 20.2365 22.802 20.8929 21.9372 20.1907C21.2975 19.6718 21.7309 17.1586 21.7601 16.3543C21.8601 13.6077 21.9476 10.8653 22.1456 8.11878C21.9664 6.87888 20.1763 6.70175 19.993 8.47929C19.6179 12.0927 19.3511 16.3438 19.174 19.9677C19.1636 20.1844 19.1803 20.4074 19.174 20.6241C19.2136 20.7241 19.2323 20.7929 19.174 20.8867V22.9872C19.5095 23.9312 19.7825 24.721 20.4243 25.5254C22.0289 27.5426 23.8731 27.2717 23.8065 30.46L5.17035 23.1373C8.77129 11.7718 19.1031 3.54259 31.2542 3.54259C46.3894 3.54259 58.701 16.3084 58.701 32C58.701 36.0094 57.8966 39.825 56.4462 43.2884L41.2381 37.3118H41.236Z" fill="white"/>
</svg>
