<svg width="112" height="115" viewBox="0 0 112 115" fill="none" xmlns="http://www.w3.org/2000/svg">
<path d="M55.9999 0.917236C25.6638 0.917236 0.984375 26.3995 0.984375 57.727C0.984375 89.0545 25.6638 114.537 55.9999 114.537C86.3359 114.537 111.015 89.0545 111.015 57.727C111.015 26.3995 86.3359 0.917236 55.9999 0.917236ZM55.9999 108.244C29.1303 108.244 7.27355 85.5807 7.27355 57.7233C7.27355 54.5787 7.55472 51.5007 8.08745 48.5115L42.1711 61.9075C41.8603 64.4194 41.5126 66.9425 41.3313 69.3546C40.7875 76.5686 40.4064 83.8123 40.129 91.0411C39.9699 95.1624 38.675 101.207 42.4116 104.208C47.0174 107.907 51.1942 102.399 51.2534 98.0147C51.3866 88.4552 49.6589 78.3 49.5479 68.6554C49.5405 67.4197 49.4036 66.0731 49.2224 64.6784L66.2031 71.3523L65.4003 84.8777C65.5742 89.4466 62.733 100.974 68.7225 103.483C71.3011 104.563 73.3358 103.571 74.6935 101.855C75.8256 100.423 76.3065 98.6288 76.1622 96.8568L74.331 74.5487L97.7452 83.7494C89.2067 98.4143 73.6873 108.244 55.9962 108.244H55.9999ZM73.728 67.1571L73.0657 59.0736L72.3221 13.2625C71.9337 12.6632 71.0976 12.5374 70.5242 12.9925C69.8657 13.5141 67.7014 17.0027 67.165 17.9202C63.1251 24.8531 61.5491 31.8748 61.3568 39.7437C61.2421 44.4309 61.1422 50.8977 61.6046 55.4851C61.9154 58.5631 63.6246 59.6988 66.9023 59.4917L66.6138 64.3602L48.1865 57.1203C48.0718 55.8513 48.0348 54.6379 48.131 53.5317C48.4566 49.7767 51.0795 49.4475 53.277 47.3018C55.6595 44.9711 56.6214 41.5564 56.3365 38.3415C55.2785 30.9573 55.8926 22.8406 54.853 15.5266C54.5016 13.0479 51.4014 13.0923 51.135 15.3527C51.0351 21.7344 52.2782 28.5785 52.2153 34.8566C52.1857 37.6349 48.5232 38.2823 47.9682 35.2155C47.528 32.7923 47.6908 28.2345 47.6094 25.5375C47.5058 22.2597 47.6797 18.5676 47.3726 15.042C47.2246 13.3624 44.0134 13.1441 43.5584 15.0864C43.255 16.3775 43.4585 15.9854 43.255 19.4555C42.8962 24.2945 43.6583 30.3506 43.0035 35.0638C42.7556 36.8432 41.002 38.0086 39.4667 36.7618C38.331 35.8407 39.1005 31.379 39.1523 29.951C39.3299 25.0751 39.4852 20.2065 39.8367 15.3306C39.5185 13.1293 36.3406 12.8149 36.0151 15.9706C35.3492 22.3855 34.8756 29.9325 34.5612 36.366C34.5427 36.7507 34.5723 37.1466 34.5612 37.5313C34.6315 37.7089 34.6648 37.831 34.5612 37.9975V41.7266C35.1568 43.4025 35.6414 44.8046 36.7809 46.2326C39.6295 49.8137 42.9036 49.3328 42.7852 54.9931L9.70043 41.993C16.0932 21.8158 34.4354 7.20641 56.0073 7.20641C82.8769 7.20641 104.734 29.8696 104.734 57.727C104.734 64.8449 103.306 71.6187 100.731 77.7673L73.7317 67.1571H73.728Z" fill="white"/>
</svg>
