<svg width="25" height="25" viewBox="0 0 25 25" fill="none" xmlns="http://www.w3.org/2000/svg">
<path d="M12.4999 0.643799C6.09198 0.643799 0.878906 6.02645 0.878906 12.6438C0.878906 19.2611 6.09198 24.6438 12.4999 24.6438C18.9078 24.6438 24.1209 19.2611 24.1209 12.6438C24.1209 6.02645 18.9078 0.643799 12.4999 0.643799ZM12.4999 23.3145C6.8242 23.3145 2.20738 18.5274 2.20738 12.643C2.20738 11.9788 2.26677 11.3286 2.3793 10.6972L9.57883 13.5268C9.51319 14.0574 9.43973 14.5904 9.40144 15.0999C9.28656 16.6237 9.20607 18.1538 9.14747 19.6808C9.11386 20.5513 8.84035 21.8282 9.62962 22.462C10.6025 23.2434 11.4848 22.0799 11.4973 21.1538C11.5254 19.1346 11.1605 16.9895 11.137 14.9522C11.1355 14.6912 11.1066 14.4068 11.0683 14.1122L14.6551 15.5219L14.4856 18.3789C14.5223 19.344 13.9221 21.779 15.1873 22.3088C15.732 22.537 16.1618 22.3276 16.4486 21.965C16.6877 21.6626 16.7893 21.2835 16.7588 20.9092L16.372 16.1971L21.3178 18.1405C19.5142 21.2382 16.236 23.3145 12.4991 23.3145H12.4999ZM16.2446 14.6357L16.1047 12.9282L15.9477 3.25151C15.8656 3.12491 15.689 3.09834 15.5679 3.19446C15.4288 3.30465 14.9716 4.04156 14.8583 4.23536C14.005 5.6998 13.6721 7.183 13.6314 8.84515C13.6072 9.83526 13.5861 11.2012 13.6838 12.1702C13.7494 12.8204 14.1105 13.0603 14.8028 13.0166L14.7419 14.0449L10.8495 12.5156C10.8252 12.2476 10.8174 11.9913 10.8377 11.7576C10.9065 10.9645 11.4606 10.8949 11.9248 10.4417C12.428 9.94935 12.6312 9.22807 12.571 8.54898C12.3475 6.9892 12.4772 5.27469 12.2577 3.72976C12.1834 3.20619 11.5286 3.21556 11.4723 3.69303C11.4512 5.04104 11.7138 6.48673 11.7005 7.81285C11.6942 8.39973 10.9206 8.53648 10.8034 7.88866C10.7104 7.3768 10.7448 6.41405 10.7276 5.84437C10.7057 5.152 10.7424 4.37211 10.6776 3.62739C10.6463 3.27261 9.96799 3.2265 9.87187 3.63677C9.80779 3.90949 9.85077 3.82666 9.80779 4.55966C9.73199 5.5818 9.89297 6.86104 9.75465 7.85662C9.7023 8.23249 9.33189 8.47865 9.00758 8.2153C8.76768 8.02072 8.93022 7.07829 8.94116 6.77665C8.97867 5.74669 9.01149 4.7183 9.08573 3.68834C9.01853 3.22338 8.34726 3.15695 8.27849 3.82353C8.13783 5.17857 8.0378 6.77274 7.97138 8.13169C7.96747 8.21296 7.97372 8.29657 7.97138 8.37784C7.98623 8.41535 7.99326 8.44114 7.97138 8.47631V9.26401C8.09719 9.61801 8.19956 9.91418 8.44025 10.2158C9.04197 10.9723 9.73355 10.8707 9.70855 12.0663L2.72001 9.32028C4.07036 5.05823 7.94481 1.97227 12.5015 1.97227C18.1772 1.97227 22.794 6.75945 22.794 12.6438C22.794 14.1473 22.4923 15.5782 21.9485 16.8769L16.2454 14.6357H16.2446Z" fill="white"/>
</svg>
