<svg width="32" height="26" viewBox="0 0 32 26" fill="none" xmlns="http://www.w3.org/2000/svg">
<path d="M30.251 4.9068C32.6018 5.27358 32.5226 8.47736 30.251 8.9664C32.5712 9.37625 32.5531 12.5939 30.251 13.026L30.7845 13.2261C32.7296 14.125 32.2405 16.9314 30.026 17.1148C28.8728 17.2106 27.7225 17.1148 26.5777 17.1134C24.9897 17.1092 23.4003 17.1217 21.8123 17.1162C22.2305 18.6944 22.7668 20.2671 23.0085 21.8968C23.1391 22.7804 23.2627 23.5195 22.8904 24.3615C22.3861 25.5021 20.8523 26.3218 19.6602 25.7563C18.7627 25.3312 18.7697 24.2281 18.5057 23.3945C17.7513 21.0132 16.726 18.5916 14.7476 16.9883C14.1835 16.5313 13.5597 16.1409 12.9248 15.7935L12.9359 2.48522L19.6714 0.815251C23.0655 0.997252 26.8555 0.412348 30.2094 0.822198C32.1836 1.06255 32.5893 3.70782 30.9332 4.59837C30.6984 4.7248 30.4094 4.72619 30.2483 4.90402L30.251 4.9068Z" fill="white"/>
<path d="M8.71105 0.128988C6.57983 0.0331244 4.68201 0.0414603 2.16039 0.128988C1.13091 0.16511 0.127818 1.36965 0.00972521 2.38802L0 16.7661C0.1431 17.9873 1.08089 18.9376 2.28821 19.1446C4.40554 19.1557 6.46729 19.221 8.41095 19.1641C9.67523 19.1266 10.6811 18.0707 10.8687 16.8286L10.8714 2.50889C10.7395 1.35437 9.8489 0.362393 8.71105 0.130376V0.128988ZM7.17723 16.3966C5.30999 16.9009 4.78204 14.043 6.50619 13.7443C8.3262 13.429 8.76245 15.9686 7.17723 16.3966Z" fill="white"/>
</svg>
