<svg width="141" height="112" viewBox="0 0 141 112" fill="none" xmlns="http://www.w3.org/2000/svg">
<path d="M12.4203 61.1558C13.7905 53.3598 19.0434 46.1452 25.8434 42.1663C27.5674 41.1602 32.4715 39.5524 33.3512 38.7334C34.2309 37.9144 36.1016 33.9001 37.1987 32.4592C44.8228 22.4437 56.5471 19.9917 68.4939 22.8633C68.6152 23.3386 68.2967 23.4094 68.0844 23.6824C67.776 24.0868 65.3897 26.5338 65.0863 26.7057C63.9791 27.3428 60.3844 26.6198 58.7666 26.6805C48.473 27.0748 43.2757 31.807 38.3514 40.1844C37.9671 40.8366 37.3048 42.6769 36.956 43.0308C36.4201 43.5718 31.2834 45.1643 30.0043 45.7862C23.634 48.9006 19.458 54.2091 17.8856 61.1558H12.4153H12.4203Z" fill="white"/>
<path d="M0.655447 69.6393V67.7232C1.35314 66.8586 1.975 65.9739 3.23895 66.07C48.5134 66.1812 93.8131 65.9132 139.067 66.2065C139.608 66.3733 140.402 67.1721 140.569 67.708C141.034 69.1641 139.381 75.4282 138.85 77.2331C133.177 96.5461 115.563 110.308 95.436 111.496C79.0654 110.773 61.9263 112.421 45.6468 111.481C25.6613 110.328 7.95092 96.1821 2.43002 77.0207L0.650391 69.6343L0.655447 69.6393Z" fill="white"/>
<path d="M23.0879 61.1558C24.4681 55.3568 28.4723 51.833 33.7606 49.5376C35.5251 48.7692 39.054 48.026 40.3331 46.8126C41.8347 45.3919 43.3716 41.0793 44.858 39.0267C48.4021 34.1327 53.2152 31.7211 59.3175 31.6048C61.6735 31.5593 64.3582 32.4289 66.6585 31.5593C68.8173 30.7453 73.317 24.9363 74.3736 24.8756C74.9146 24.8453 78.762 27.2771 78.6104 27.9192C78.5649 28.1113 75.9055 29.6331 75.3241 30.1083C73.4737 31.6352 72.048 34.0619 70.2582 35.4371C65.2935 39.2593 57.6087 34.4664 51.7996 39.1329C46.7287 43.2028 46.9562 49.5326 40.773 52.4498C37.7446 53.8755 34.4937 54.3507 31.7484 56.555C30.1002 57.8797 29.4228 59.3661 28.4217 61.1558H23.0879Z" fill="white"/>
<path d="M125.655 61.1553H119.502C115.437 56.413 112.626 47.4845 107.469 43.9252C100.719 39.2689 92.1803 43.5713 86.0881 40.9676C84.7888 40.4115 78.2972 35.5428 78.1455 34.4962C78.0191 33.6469 81.7401 31.8015 82.5743 31.8925C83.2366 31.9633 86.8161 36.0837 88.6564 36.4882C92.332 37.3022 97.2664 35.9978 101.422 36.5741C106.943 37.3426 111.605 39.5924 114.835 44.2235L125.665 61.1604L125.655 61.1553Z" fill="white"/>
<path d="M113.349 61.1553H107.469C105.618 58.774 104.719 55.6698 102.226 53.8194C98.0601 50.7253 93.8942 52.1965 89.1316 51.8679C81.4923 51.3421 75.5114 46.5997 70.6831 41.0536C71.5325 40.9171 74.1766 38.2527 74.4092 38.2122C75.203 38.0757 76.4972 40.0222 76.9978 40.4823C80.4256 43.6219 83.8787 46.0537 88.6311 46.6301C93.9397 47.2722 101.746 44.81 105.831 49.1226C108.864 52.3279 110.973 57.4242 113.349 61.1604V61.1553Z" fill="white"/>
<path d="M69.1762 0.698629C71.3198 0.819967 73.6758 1.20421 73.4382 3.92421C73.0438 8.40868 68.0386 16.781 63.0789 17.2057C54.7571 17.9186 51.3647 7.81715 58.4529 3.41863C61.2841 1.65923 65.8495 0.511566 69.1762 0.693574V0.698629Z" fill="white"/>
<path d="M45.3333 15.8913C42.9773 14.2431 40.2118 10.0266 39.2411 7.32678C37.9569 3.7473 37.4817 1.15369 42.1027 0.754283C46.2888 0.395323 53.2911 2.01317 55.6774 5.75444C60.3742 13.1207 51.9008 20.4971 45.3283 15.8913H45.3333Z" fill="white"/>
<path d="M101.311 61.1555C92.832 60.7106 82.9985 62.6571 75.3492 58.2636C73.6555 57.2929 71.795 55.8267 70.2732 54.588C66.2892 51.3372 60.7683 46.428 57.1888 42.7828C56.9512 42.5452 56.5872 42.5553 56.7288 42.0143C58.1747 42.2317 59.5752 41.7059 60.9706 41.7161C65.9758 41.7565 68.4834 46.423 71.9163 49.3907C76.5828 53.4252 82.3312 56.3727 88.5801 56.7924C93.3224 57.1109 99.7534 55.0279 101.311 61.1555Z" fill="white"/>
<path d="M70.4047 61.1557H62.6087C61.7846 61.1557 52.1887 51.0391 50.2827 50.22L52.7651 45.5687L70.4047 61.1557Z" fill="white"/>
<path d="M34.3018 61.1556C37.8408 57.4801 43.6853 57.9351 47.2951 54.0624L54.8181 61.1556H34.3018Z" fill="white"/>
</svg>
