<svg width="97" height="78" viewBox="0 0 97 78" fill="none" xmlns="http://www.w3.org/2000/svg">
<path d="M8.32085 42.3797C9.26036 37.0339 12.8624 32.0868 17.5252 29.3584C18.7074 28.6685 22.0702 27.566 22.6735 27.0044C23.2767 26.4428 24.5594 23.6901 25.3117 22.7021C30.5397 15.8343 38.5792 14.1529 46.7713 16.1221C46.8545 16.448 46.6361 16.4965 46.4905 16.6837C46.279 16.9611 44.6427 18.639 44.4347 18.7569C43.6754 19.1937 41.2105 18.6979 40.1011 18.7395C33.0427 19.0099 29.4788 22.2549 26.1021 27.9994C25.8387 28.4466 25.3845 29.7085 25.1453 29.9512C24.7778 30.3222 21.2555 31.4142 20.3784 31.8406C16.0102 33.9762 13.1467 37.6163 12.0685 42.3797H8.31738H8.32085Z" fill="white"/>
<path d="M0.253467 48.1971L0.253467 46.8832C0.731887 46.2904 1.15831 45.6837 2.02501 45.7496C33.0703 45.8258 64.133 45.6421 95.1644 45.8432C95.5354 45.9576 96.0797 46.5053 96.1941 46.8728C96.513 47.8712 95.3794 52.1666 95.0154 53.4043C91.1256 66.6475 79.0472 76.0842 65.2458 76.8989C54.0203 76.4031 42.2678 77.5333 31.1046 76.8885C17.4003 76.098 5.25608 66.3979 1.47032 53.2587L0.25 48.1937L0.253467 48.1971Z" fill="white"/>
<path d="M15.6357 42.3798C16.5822 38.4033 19.3279 35.987 22.9542 34.413C24.1641 33.8861 26.5839 33.3764 27.461 32.5444C28.4907 31.5702 29.5446 28.613 30.5638 27.2055C32.9941 23.8496 36.2945 22.196 40.4789 22.1162C42.0945 22.085 43.9354 22.6813 45.5128 22.085C46.9931 21.5269 50.0785 17.5435 50.8031 17.5019C51.1741 17.4811 53.8123 19.1486 53.7083 19.5889C53.6771 19.7207 51.8536 20.7642 51.4549 21.0901C50.186 22.137 49.2084 23.8011 47.9811 24.7441C44.5767 27.365 39.3071 24.0784 35.3238 27.2783C31.8466 30.0691 32.0026 34.4096 27.7627 36.4099C25.686 37.3876 23.4569 37.7134 21.5744 39.225C20.4442 40.1333 19.9797 41.1525 19.2932 42.3798H15.6357Z" fill="white"/>
<path d="M85.9673 42.3794H81.7481C78.9608 39.1276 77.0333 33.0052 73.4971 30.5645C68.8689 27.3716 63.0135 30.3218 58.836 28.5364C57.945 28.1551 53.4936 24.8165 53.3896 24.0989C53.3029 23.5165 55.8545 22.2511 56.4265 22.3135C56.8807 22.362 59.3352 25.1875 60.5971 25.4648C63.1175 26.023 66.5011 25.1286 69.3508 25.5238C73.1366 26.0507 76.333 27.5935 78.5483 30.7691L85.9742 42.3829L85.9673 42.3794Z" fill="white"/>
<path d="M77.5289 42.3794H73.497C72.2281 40.7466 71.6111 38.6179 69.9019 37.3491C67.0453 35.2274 64.1886 36.2362 60.9229 36.0109C55.6845 35.6503 51.5833 32.3985 48.2725 28.5954C48.8549 28.5018 50.668 26.6748 50.8275 26.647C51.3718 26.5534 52.2593 27.8881 52.6025 28.2036C54.953 30.3565 57.3208 32.0241 60.5796 32.4193C64.2198 32.8596 69.5726 31.1712 72.3738 34.1284C74.4538 36.3264 75.8995 39.8209 77.5289 42.3829V42.3794Z" fill="white"/>
<path d="M47.239 0.923424C48.7089 1.00663 50.3245 1.27011 50.1615 3.13525C49.8911 6.21032 46.459 11.9514 43.058 12.2426C37.3517 12.7314 35.0254 5.8047 39.8859 2.78857C41.8273 1.58212 44.9579 0.795152 47.239 0.919958V0.923424Z" fill="white"/>
<path d="M30.8897 11.3413C29.2741 10.2111 27.3778 7.31981 26.7121 5.46853C25.8316 3.01402 25.5057 1.23555 28.6744 0.96167C31.5449 0.715526 36.3464 1.82491 37.9828 4.39035C41.2034 9.4415 35.3931 14.4996 30.8862 11.3413H30.8897Z" fill="white"/>
<path d="M69.274 42.3796C63.4602 42.0745 56.7172 43.4092 51.4719 40.3965C50.3105 39.7309 49.0348 38.7255 47.9912 37.8762C45.2594 35.647 41.4736 32.2807 39.0191 29.7812C38.8562 29.6182 38.6066 29.6251 38.7036 29.2542C39.6952 29.4033 40.6555 29.0427 41.6123 29.0497C45.0445 29.0774 46.764 32.2773 49.118 34.3123C52.3178 37.0788 56.2596 39.1 60.5446 39.3877C63.7965 39.6061 68.2062 38.1778 69.274 42.3796Z" fill="white"/>
<path d="M48.0814 42.3796H42.7355C42.1704 42.3796 35.5904 35.4425 34.2834 34.8809L35.9857 31.6914L48.0814 42.3796Z" fill="white"/>
<path d="M23.3252 42.3796C25.752 39.8592 29.7596 40.1712 32.2349 37.5156L37.3935 42.3796H23.3252Z" fill="white"/>
</svg>
