<svg width="32" height="26" viewBox="0 0 32 26" fill="none" xmlns="http://www.w3.org/2000/svg">
<path d="M2.69036 14.1266C3.00353 12.3447 4.20421 10.6956 5.7585 9.78617C6.15256 9.5562 7.27349 9.18872 7.47457 9.00151C7.67564 8.8143 8.10322 7.89675 8.35398 7.56741C10.0966 5.27815 12.7765 4.71769 15.5072 5.37407C15.5349 5.4827 15.4621 5.49887 15.4136 5.56128C15.3431 5.65373 14.7976 6.21304 14.7283 6.25233C14.4752 6.39793 13.6536 6.23268 13.2838 6.24655C10.931 6.33669 9.74302 7.41833 8.61746 9.33317C8.52963 9.48224 8.37825 9.90288 8.29851 9.98378C8.17602 10.1074 7.00193 10.4714 6.70956 10.6136C5.2535 11.3254 4.29897 12.5388 3.93957 14.1266H2.68921H2.69036Z" fill="white"/>
<path d="M0.00115563 16.0657V15.6277C0.160629 15.4301 0.302769 15.2279 0.59167 15.2498C10.9401 15.2752 21.2943 15.214 31.6381 15.281C31.7618 15.3191 31.9432 15.5017 31.9814 15.6242C32.0877 15.957 31.7098 17.3888 31.5885 17.8014C30.2919 22.2158 26.2657 25.3614 21.6653 25.6329C17.9234 25.4677 14.0059 25.8444 10.2849 25.6295C5.71678 25.366 1.66869 22.1326 0.406773 17.7528L0 16.0645L0.00115563 16.0657Z" fill="white"/>
<path d="M5.12866 14.1267C5.44414 12.8012 6.35938 11.9957 7.56814 11.4711C7.97145 11.2954 8.77806 11.1256 9.07043 10.8482C9.41364 10.5235 9.76495 9.53776 10.1047 9.06859C10.9148 7.94996 12.0149 7.39874 13.4097 7.37216C13.9482 7.36176 14.5619 7.56052 15.0877 7.36176C15.5811 7.17571 16.6096 5.84792 16.8511 5.83405C16.9748 5.82712 17.8542 6.38296 17.8195 6.52972C17.8091 6.57364 17.2013 6.92147 17.0684 7.0301C16.6454 7.37909 16.3195 7.93378 15.9105 8.24811C14.7757 9.12174 13.0191 8.02623 11.6913 9.09285C10.5323 10.0231 10.5843 11.4699 9.17097 12.1367C8.47876 12.4626 7.73571 12.5712 7.10821 13.0751C6.73149 13.3778 6.57663 13.7176 6.34783 14.1267H5.12866Z" fill="white"/>
<path d="M28.5723 14.1265H27.166C26.2369 13.0426 25.5943 11.0018 24.4156 10.1882C22.8729 9.1239 20.9211 10.1073 19.5286 9.51219C19.2316 9.38507 17.7478 8.27222 17.7131 8.03301C17.6842 7.83887 18.5348 7.41708 18.7254 7.43788C18.8768 7.45405 19.695 8.39587 20.1156 8.48832C20.9557 8.67437 22.0836 8.37623 23.0335 8.50797C24.2954 8.68362 25.3609 9.19786 26.0993 10.2564L28.5747 14.1277L28.5723 14.1265Z" fill="white"/>
<path d="M25.7597 14.1266H24.4157C23.9928 13.5823 23.7871 12.8727 23.2174 12.4498C22.2652 11.7425 21.313 12.0788 20.2244 12.0037C18.4783 11.8835 17.1112 10.7996 16.0076 9.53187C16.2017 9.50067 16.8061 8.89167 16.8593 8.88242C17.0407 8.85122 17.3365 9.29613 17.4509 9.40129C18.2344 10.1189 19.0237 10.6748 20.11 10.8065C21.3233 10.9533 23.1076 10.3905 24.0413 11.3762C24.7347 12.1089 25.2166 13.2737 25.7597 14.1277V14.1266Z" fill="white"/>
<path d="M15.663 0.307849C16.153 0.335583 16.6915 0.423409 16.6372 1.04512C16.547 2.07015 15.403 3.98383 14.2693 4.0809C12.3672 4.24384 11.5918 1.93494 13.212 0.929564C13.8591 0.527414 14.9026 0.265091 15.663 0.306693V0.307849Z" fill="white"/>
<path d="M10.2133 3.78048C9.67479 3.40375 9.04267 2.43998 8.8208 1.82288C8.52727 1.00472 8.41865 0.41189 9.47487 0.320597C10.4317 0.238549 12.0322 0.608343 12.5777 1.46349C13.6512 3.14721 11.7144 4.83323 10.2121 3.78048H10.2133Z" fill="white"/>
<path d="M23.0079 14.1266C21.07 14.0249 18.8223 14.4698 17.0739 13.4656C16.6868 13.2437 16.2615 12.9086 15.9137 12.6254C15.003 11.8824 13.7411 10.7603 12.923 9.92709C12.8686 9.87278 12.7854 9.87509 12.8178 9.75144C13.1483 9.80113 13.4684 9.68095 13.7874 9.68326C14.9314 9.69251 15.5046 10.7591 16.2892 11.4375C17.3559 12.3596 18.6698 13.0334 20.0981 13.1293C21.1821 13.2021 22.652 12.726 23.0079 14.1266Z" fill="white"/>
<path d="M15.9438 14.1266H14.1618C13.9735 14.1266 11.7801 11.8142 11.3445 11.627L11.9119 10.5638L15.9438 14.1266Z" fill="white"/>
<path d="M7.69165 14.1266C8.50057 13.2864 9.83645 13.3904 10.6616 12.5052L12.3811 14.1266H7.69165Z" fill="white"/>
</svg>
