<svg width="16" height="16" viewBox="0 0 16 16" fill="none" xmlns="http://www.w3.org/2000/svg">
<path d="M2.92159 0L2.98399 0.0221882L2.9826 6.06987C3.00756 6.4124 3.24951 6.68213 3.59614 6.71402H10.4574C10.8269 6.696 11.066 6.42558 11.0993 6.0671V0.0388294L11.1617 0L12.5039 0C12.6578 0.0104007 12.7874 0.0617112 12.8928 0.154624C13.7656 1.30495 14.6474 2.45388 15.5376 3.60282C15.7955 3.8774 15.9494 4.17555 16 4.49589V15.3917C15.9986 15.7058 15.7165 16.0483 15.3913 15.9846C14.6509 16.0116 13.8446 16.0116 13.0973 15.9846L13.0349 15.9631L13.0349 10.8251L13.0973 10.787L13.0335 10.7627C13.0106 10.5574 12.6848 10.2426 12.4831 10.242C9.47362 10.2295 6.45516 10.244 3.44154 10.2697C3.29388 10.2711 3.0138 10.5914 2.98884 10.744L2.92159 10.7876L2.98399 10.8091L2.98399 15.9471L2.92159 15.9852C2.18119 16.0123 1.37493 16.0123 0.627588 15.9852C0.267784 16.0525 -0.0240797 15.6448 0.00157102 15.3036L0.00295758 0.70101C-0.0157605 0.307862 0.20955 0.0166412 0.612336 0.000693398H2.92229L2.92159 0Z" fill="white"/>
<path d="M9.69508 0C9.71935 0 9.75748 0.00624041 9.75748 0.0214948C9.77828 1.67452 9.79006 3.38371 9.75748 5.04297C9.78105 5.18442 9.76025 5.28358 9.69508 5.33835L9.67359 5.40076H4.42767L4.38954 5.33835L4.32715 5.31686V0.038136L4.38954 0L9.69508 0Z" fill="white"/>
<path d="M11.6315 11.6135H4.38965V13.0807H11.6315V11.6135Z" fill="white"/>
<path d="M11.6315 14.5173H4.38965V15.9845H11.6315V14.5173Z" fill="white"/>
</svg>
