<svg width="18" height="32" viewBox="0 0 18 32" fill="none" xmlns="http://www.w3.org/2000/svg">
<path d="M17.5355 22.3566C17.886 21.9411 17.6409 21.3822 17.1433 21.2425L11.9284 20.4594L10.1414 16.8156C10.1451 16.6502 10.6121 16.497 10.7873 16.3217C11.5104 15.6011 11.1722 14.8302 11.3523 13.9587L16.9007 8.68988L17.1421 8.18125C16.9717 5.76681 17.3615 3.05823 17.1433 0.678104C17.1066 0.271203 16.8884 0.00769839 16.4656 0.000344766H1.53526C1.15777 -0.0119113 0.844015 0.304294 0.857497 0.678104L0.894265 8.36019L1.10017 8.68988L6.64848 13.9587C6.81271 14.2455 6.66931 14.9993 6.72201 15.3841C6.80168 15.97 7.33727 16.5975 7.92923 16.7127L6.06999 20.4569L0.855045 21.2401C0.356224 21.3773 0.116007 21.9423 0.464078 22.3541L4.20094 26.0432C4.23771 26.1535 4.21688 26.2638 4.20707 26.3753C4.08206 27.9024 3.41166 29.7507 3.3565 31.2447C3.33322 31.8636 3.859 32.1357 4.4093 31.9347L8.96854 29.5631C10.5716 30.2593 12.0718 31.1809 13.6381 31.9567C14.1872 32.1124 14.6639 31.8391 14.6419 31.2447C14.5855 29.7494 13.8722 27.8816 13.7913 26.3753C13.7852 26.2638 13.757 26.1535 13.7974 26.0432L17.5343 22.3541L17.5355 22.3566ZM7.69269 12.9844L5.78565 11.1779V1.36077H12.2115V11.1791L10.3951 12.9329C9.51884 13.0775 8.58616 12.9783 7.69269 12.9856V12.9844ZM9.39505 15.4307C8.49791 15.5128 7.90594 15.5238 8.0714 14.4282H9.92819C9.92206 14.9723 10.0581 15.3706 9.39628 15.4307H9.39505Z" fill="white"/>
</svg>
