<svg width="53" height="96" viewBox="0 0 53 96" fill="none" xmlns="http://www.w3.org/2000/svg">
<path d="M51.8563 67.0698C52.9079 65.8233 52.1725 64.1467 50.6797 63.7276L35.0349 61.3781L29.6741 50.4469C29.6851 49.9505 31.086 49.4909 31.6118 48.9652C33.7811 46.8032 32.7663 44.4905 33.3068 41.8763L49.9517 26.0696L50.676 24.5438C50.165 17.3004 51.3342 9.17468 50.6797 2.03431C50.5694 0.813609 49.9149 0.0230952 48.6464 0.0010343H3.85552C2.72307 -0.0357338 1.7818 0.912883 1.82225 2.03431L1.93255 25.0806L2.55025 26.0696L19.1952 41.8763C19.6879 42.7366 19.2577 44.9979 19.4158 46.1524C19.6548 47.9099 21.2616 49.7924 23.0375 50.1381L17.4597 61.3707L1.81489 63.7202C0.318429 64.132 -0.402224 65.827 0.64199 67.0624L11.8526 78.1296C11.9629 78.4605 11.9004 78.7915 11.871 79.126C11.4959 83.7074 9.48472 89.252 9.31927 93.734C9.24941 95.5908 10.8268 96.4071 12.4776 95.8041L26.1554 88.6894C30.9647 90.7779 35.4651 93.5428 40.164 95.8702C41.8113 96.3372 43.2415 95.5173 43.1754 93.734C43.0062 89.2483 40.8663 83.6448 40.6236 79.126C40.6053 78.7915 40.5207 78.4605 40.642 78.1296L51.8526 67.0624L51.8563 67.0698ZM22.3278 38.9532L16.6067 33.5336L16.6067 4.0823H35.8842V33.5372L30.4352 38.7988C27.8063 39.2326 25.0082 38.9348 22.3278 38.9569V38.9532ZM27.4349 46.2921C24.7435 46.5385 22.9676 46.5715 23.464 43.2845H29.0343C29.0159 44.917 29.4241 46.1119 27.4386 46.2921H27.4349Z" fill="white"/>
</svg>
