<svg width="74" height="136" viewBox="0 0 74 136" fill="none" xmlns="http://www.w3.org/2000/svg">
<path d="M73.0088 95.0222C74.4876 93.2694 73.4535 90.9117 71.3542 90.3223L49.3537 87.0183L41.8151 71.6463C41.8306 70.9483 43.8006 70.302 44.5399 69.5626C47.5905 66.5224 46.1635 63.2701 46.9236 59.5939L70.3305 37.3658L71.3491 35.22C70.6304 25.0341 72.2746 13.6073 71.3542 3.56613C71.1991 1.84952 70.2788 0.737861 68.4949 0.706838H5.50771C3.91519 0.655133 2.59154 1.98913 2.64842 3.56613L2.80353 35.9749L3.67218 37.3658L27.0791 59.5939C27.772 60.8038 27.167 63.9836 27.3893 65.6072C27.7254 68.0787 29.9849 70.726 32.4823 71.212L24.6386 87.0079L2.63808 90.3119C0.533675 90.891 -0.479744 93.2746 0.988683 95.0119L16.7536 110.575C16.9087 111.041 16.8208 111.506 16.7794 111.976C16.252 118.419 13.4238 126.216 13.1911 132.519C13.0929 135.13 15.311 136.278 17.6326 135.43L36.8669 125.425C43.6299 128.362 49.9586 132.25 56.5666 135.523C58.883 136.18 60.8943 135.027 60.8012 132.519C60.5634 126.211 57.5541 118.331 57.2129 111.976C57.187 111.506 57.0681 111.041 57.2387 110.575L73.0036 95.0119L73.0088 95.0222ZM31.4844 55.4833L23.4391 47.862V6.44611H50.5481V47.8671L42.8854 55.2661C39.1885 55.8763 35.2537 55.4574 31.4844 55.4885V55.4833ZM38.6662 65.8037C34.8814 66.1501 32.3841 66.1966 33.0821 61.5742H40.9154C40.8896 63.8699 41.4635 65.5503 38.6714 65.8037H38.6662Z" fill="white"/>
</svg>
