<svg width="16" height="19" viewBox="0 0 16 19" fill="none" xmlns="http://www.w3.org/2000/svg">
<path d="M0.0182728 2.25275C0.0803403 1.85673 0.577556 1.43103 0.981669 1.42226L5.23735 1.41754C5.1429 0.665978 5.48967 0.087805 6.27495 0.0291107C7.44682 -0.0585935 8.74416 0.0830825 9.9275 0.0493501C10.6048 0.195749 10.8673 0.758405 10.7809 1.41754L15.0366 1.42226C15.3881 1.3892 16 1.92217 16 2.25275V3.49612H0.0182728C0.0607756 3.11562 -0.0390723 2.61773 0.0182728 2.25275Z" fill="white"/>
<path d="M1.0376 4.92285L1.0376 16.8472C1.0376 17.4693 1.7453 18.1203 2.36328 18.1311L13.5759 18.1338C14.2216 18.1621 14.9805 17.4996 14.9805 16.8479L14.9805 4.92285H1.0376ZM5.23593 15.3387C5.22513 15.9628 4.45671 16.2853 4.02764 15.8346C3.96894 15.7732 3.92981 15.6666 3.88124 15.5931C3.80838 12.9201 3.87179 10.2303 3.84953 7.55128C4.0418 6.74305 5.14755 6.84492 5.2366 7.67406L5.2366 15.3381L5.23593 15.3387ZM8.70227 15.421C8.57948 16.2536 7.39008 16.2367 7.31452 15.3819L7.31587 7.63426C7.34353 7.34888 7.54525 7.0716 7.83467 7.01156C8.28668 6.91778 8.68068 7.20923 8.70362 7.67339L8.70227 15.421ZM11.9898 15.8346C11.5608 16.2853 10.7923 15.9628 10.7815 15.3387L10.7815 7.67474C10.8699 6.84492 11.9763 6.74372 12.1679 7.55195L12.1693 15.4231C12.1693 15.5519 12.0769 15.7435 11.9898 15.8346Z" fill="white"/>
</svg>
