<svg width="25" height="22" viewBox="0 0 25 22" fill="none" xmlns="http://www.w3.org/2000/svg">
<path d="M24.3659 7.30986H19.3881C19.1361 5.77206 16.0382 5.75533 15.4032 6.85521C15.3139 7.01048 15.3102 7.1769 15.1977 7.30986H1.35663L2.62852 6.72691L15.8197 1.12428C19.9822 -0.56878 24.2218 3.14275 24.3668 7.30893L24.3659 7.30986Z" fill="#FEE67B"/>
<path d="M19.388 8.07129C18.9473 10.3901 15.6727 10.378 15.2227 8.07129H0.391464L0.391464 10.0526C1.94971 10.0767 1.93763 12.3593 0.391464 12.389L0.391464 15.4367C2.53545 15.5278 2.52801 18.5458 0.394254 18.6899C0.517909 19.9218 -0.161732 21.7041 1.6336 21.8389H23.225C23.6127 21.8938 24.3658 21.3145 24.3658 20.9482V8.07129H19.388ZM6.27116 18.2138C4.82912 16.7718 6.91082 14.4772 8.48859 15.8188C10.1779 17.2553 7.86287 19.8065 6.27116 18.2138ZM10.5647 12.8994C8.89954 13.1663 8.71359 10.8112 10.0301 10.5872C11.7938 10.2869 11.9844 12.6717 10.5647 12.8994ZM20.4032 16.8685C17.8734 18.014 16.7382 13.8162 19.2885 13.4173C21.4864 13.0733 22.2953 16.0122 20.4032 16.8685Z" fill="#FEE67B"/>
</svg>
