<svg width="25" height="23" viewBox="0 0 25 23" fill="none" xmlns="http://www.w3.org/2000/svg">
<path d="M10.6947 6.34083L12.4762 4.56377C9.24331 5.30221 9.00016 1.10419 11.9059 0.397269C14.3284 -0.192585 18.663 2.08128 18.9271 4.72586C19.1312 6.76859 16.7463 8.40757 15.334 6.54946C15.2649 6.4594 14.9887 5.83053 14.9437 5.84554L14.564 8.35054L10.6947 6.34083Z" fill="white"/>
<path d="M16.5963 15.9617C16.5963 15.6459 16.3403 15.3899 16.0245 15.3899C15.7087 15.3899 15.4526 15.6459 15.4526 15.9617C15.4526 16.2776 15.7087 16.5336 16.0245 16.5336C16.3403 16.5336 16.5963 16.2776 16.5963 15.9617Z" fill="white"/>
<path d="M23.6535 17.8018H0.366821L0.366821 19.9488C0.366821 20.9619 1.72085 22.2293 2.7434 22.2551L16.5659 22.2644C17.6482 22.3171 19.1006 21.0123 19.1006 19.9488V19.3619H23.6547C24.0482 19.3619 24.3668 19.0433 24.3668 18.6498V18.5139C24.3668 18.1204 24.0482 17.8018 23.6547 17.8018H23.6535Z" fill="white"/>
<path d="M10.9246 10.6816C11.1978 10.0707 10.8255 9.38931 10.1651 9.29025C10.0931 9.25873 10.0556 9.18068 10.0466 9.10564C10.1306 8.52329 9.87397 8.07002 9.27061 7.94094C8.87437 7.97096 8.80533 7.82537 8.7618 7.46666C8.63423 7.0329 8.12542 6.90682 7.74569 7.10794C6.87968 7.56722 6.56299 8.80096 6.34085 9.68649L6.16075 10.5105C6.10671 10.6245 5.98514 10.6876 5.86207 10.6801L4.98254 10.3424C4.17656 10.0602 3.04788 9.68949 2.22839 10.0677C1.77061 10.2793 1.55899 10.7836 1.90119 11.1934C2.18036 11.408 2.21038 11.5521 1.98975 11.8463C1.75861 12.4241 2.00325 12.8879 2.53307 13.1416C2.61412 13.2076 2.62763 13.2736 2.61112 13.3772L2.52106 13.7134C2.48354 13.8485 2.52407 13.9836 2.60361 14.0931C2.61262 14.1216 2.62162 14.1517 2.63063 14.1817L2.72519 14.3588C2.81974 14.5119 2.95182 14.6079 3.11992 14.671C3.49064 14.728 3.52667 14.8826 3.47113 15.2233C3.49515 15.7906 3.99495 16.1313 4.52777 16.1103C4.61932 16.1313 4.70337 16.2019 4.71988 16.2964C4.79643 17.158 5.62642 17.2135 6.17125 16.6537C6.83615 15.9708 7.11832 14.7535 7.28342 13.8395C7.32244 13.5963 7.40649 13.3157 7.70667 13.3607L8.46913 13.6594C9.14003 13.8965 9.88448 14.1607 10.6034 14.1337C11.4919 14.1006 12.3024 13.3862 11.4394 12.6598C11.3824 12.5907 11.3869 12.5007 11.4199 12.4211C11.7876 11.9033 11.6781 11.1994 11.0612 10.9382C10.9711 10.8887 10.8991 10.7911 10.9231 10.6846L10.9246 10.6816ZM8.39709 11.4786C8.53367 11.429 8.61472 11.3375 8.77981 11.369C9.03647 11.4185 9.10101 11.7562 8.90739 11.9063C8.77831 12.0069 8.45412 12.1104 8.28902 12.145C7.71418 12.262 7.28792 11.9889 6.7506 12.3866C6.49094 12.5802 6.37087 12.9419 6.17125 13.1956C6.02116 13.3847 5.77201 13.6053 5.55288 13.7104C5.34426 13.811 5.0921 13.6894 5.0876 13.4477C5.0831 13.2121 5.36227 13.1235 5.51686 12.999C5.68196 12.8654 5.80053 12.6673 5.89659 12.4812C5.67445 12.4722 5.44031 12.4526 5.22418 12.5247C5.0831 12.5712 4.93001 12.6883 4.78892 12.6718C4.53227 12.6418 4.4182 12.3431 4.60131 12.157C4.71388 12.0429 5.06059 11.9288 5.22568 11.8943C5.94011 11.7427 6.49244 12.1555 7.03127 11.369C7.33595 10.9247 7.43951 10.5945 7.97833 10.3244C8.2545 10.1863 8.54868 10.4489 8.40459 10.7326C8.34005 10.8602 8.2545 10.8572 8.15694 10.9277C7.9123 11.1048 7.78172 11.2894 7.62712 11.5431C7.88228 11.5971 8.14794 11.5701 8.39258 11.4816L8.39709 11.4786Z" fill="white"/>
<path d="M15.9882 14.8511C15.7106 14.8181 15.4989 14.5899 15.4854 14.3108C15.4254 13.1025 14.5954 12.0504 13.4397 11.7082C13.1726 11.6287 12.9999 11.369 13.033 11.0928C13.075 10.7461 13.4157 10.509 13.7504 10.6066C15.3759 11.0793 16.5541 12.5772 16.6306 14.2672C16.6456 14.6155 16.3349 14.8916 15.9882 14.8496V14.8511Z" fill="white"/>
</svg>
