<svg width="25" height="22" viewBox="0 0 25 22" fill="none" xmlns="http://www.w3.org/2000/svg">
<path d="M17.258 7.42341L17.251 19.7843C17.0804 20.9826 16.1697 21.8229 14.9587 21.9075C11.7514 22.133 8.28339 21.7312 5.04936 21.9075C3.75659 21.7904 2.8642 20.836 2.75988 19.556L2.75988 7.50095C2.72605 7.32614 2.33554 7.22604 2.17623 7.12172C-0.929507 5.11702 0.177169 0.49436 3.86374 0.171521L16.1471 0.168701C18.9709 0.453476 20.5964 3.211 19.1457 5.77538C18.7228 6.52398 18.0672 7.12031 17.258 7.42482V7.42341Z" fill="#C5A468"/>
<path d="M18.1828 21.9047C18.562 21.3098 18.8228 20.6556 18.9173 19.9507V8.57385C18.9441 8.4371 19.3064 8.23691 19.429 8.12272C21.3675 6.30975 22.0019 3.46623 20.6062 1.11472L19.938 0.170166H20.9854C21.3774 0.170166 22.2275 0.519791 22.5799 0.727029C25.0357 2.16923 24.8835 5.5823 22.594 7.09922C22.4276 7.20918 22.0047 7.35016 21.9765 7.4996L21.9793 19.4446C22.054 20.5006 20.929 21.9047 19.8534 21.9047H18.1842H18.1828Z" fill="#C5A468"/>
</svg>
