<svg width="25" height="20" viewBox="0 0 25 20" fill="none" xmlns="http://www.w3.org/2000/svg">
<path d="M23.8939 10.3795C22.526 11.5539 20.5044 12.4243 18.7437 12.8027C17.4842 13.0733 16.1144 13.1003 14.8942 13.4917C13.4056 13.9697 12.0806 15.0334 10.6285 15.6304C6.55549 17.306 2.95558 15.2771 0.483336 12.0802C0.455284 12.044 0.442194 12.0003 0.389832 11.9872L0.389832 12.4531L0.658188 13.6535C1.6671 17.1507 5.68216 20.5335 9.4831 19.5237C10.9754 19.1276 12.2069 18.1131 13.5617 17.4315C15.5534 16.4292 17.7358 16.6049 19.8331 15.7978C21.5189 15.1487 24.3624 13.3169 24.3624 11.2647V9.9834C24.1716 10.0336 24.0435 10.2531 23.8949 10.3804L23.8939 10.3795Z" fill="#E59A61"/>
<path d="M21.3667 3.92871C17.8388 2.10991 12.3407 0.584021 8.37895 1.06941C4.99878 1.48319 0.76866 3.86548 0.389969 7.58861C0.358177 7.90477 0.360048 8.5287 0.389969 8.84671C0.680766 11.9878 4.03476 15.0674 7.11478 15.4589C9.90307 15.8122 11.6965 13.8447 14.0836 12.9474C15.647 12.3597 17.346 12.3848 18.9505 11.9664C23.5238 10.7724 27.1873 6.93121 21.3667 3.92964V3.92871ZM11.6348 9.85653C10.3827 12.1291 7.20922 12.3941 5.54111 10.4061C3.6037 8.09632 5.19982 4.5359 8.19849 4.3862C11.0924 4.24207 13.0345 7.31338 11.6338 9.85653H11.6348Z" fill="#E59A61"/>
<path d="M8.10494 5.78362C11.0419 5.43121 11.6992 9.74573 8.867 10.3167C5.74864 10.9452 5.01089 6.15463 8.10494 5.78362Z" fill="#E59A61"/>
</svg>
