<svg width="25" height="25" viewBox="0 0 25 25" fill="none" xmlns="http://www.w3.org/2000/svg">
<path d="M10.8548 24.2532C8.39699 23.8443 5.99897 22.6243 4.45973 20.6321C4.47901 20.5206 5.68862 19.4577 5.86018 19.2067C6.36041 18.4732 5.75801 17.6553 4.90213 17.8327C4.51949 17.9121 3.91613 18.8104 3.56047 19.0565C3.5171 19.0865 3.51035 19.1282 3.43228 19.1069C2.7576 17.7222 2.4405 16.2067 2.56194 14.6563C2.60531 14.1059 2.75567 13.9528 3.15181 13.602C3.91709 12.9257 4.93972 12.5439 5.96042 12.5168C6.63896 14.8433 8.50879 16.947 10.9878 17.2997C16.2792 18.0516 17.2016 10.6418 12.8894 9.2125C12.4836 9.07781 12.1029 9.04293 11.6972 8.97025C10.7102 6.46444 11.5487 3.49739 13.4629 1.68731C13.6258 1.53324 14.4132 0.880141 14.5761 0.847195C14.7612 0.809405 15.4513 1.0003 15.6759 1.0594C17.4455 1.52549 19.1081 2.49254 20.4777 3.69409V3.79778L17.6103 6.67956C17.0156 7.50805 17.832 8.43053 18.7206 8.00223L21.7548 5.00708C21.9851 5.39274 22.2839 5.73285 22.5249 6.1127C23.6525 7.88692 24.3176 9.99545 24.3667 12.1088H20.1953C20.1808 12.1088 19.9774 12.2348 19.9399 12.2629C19.4753 12.6146 19.4753 13.3007 19.9399 13.6524C19.9774 13.6815 20.1808 13.8065 20.1953 13.8065H24.3157C24.0622 16.2871 22.9933 18.667 21.321 20.4954L18.9163 18.0768C18.1086 17.3172 16.9539 18.2774 17.5871 19.2067C18.1317 20.0051 19.3895 20.8249 19.99 21.6282C20.0141 21.6611 20.0921 21.6921 20.042 21.7319C18.497 22.9606 16.7023 23.8336 14.7525 24.1854C14.0238 24.3171 13.326 24.3549 12.5935 24.4073V21.1398C12.5935 21.0691 12.3805 20.7115 12.313 20.6505C11.9323 20.3094 11.2692 20.3821 10.9964 20.821C10.9714 20.8608 10.8538 21.1234 10.8538 21.1408V24.2542L10.8548 24.2532Z" fill="#E7A5AD"/>
<path d="M6.03384 10.7603C4.59387 10.801 3.23294 11.2923 2.11875 12.2051C0.122651 10.4706 -0.162644 7.26707 1.23684 5.06165C2.18718 5.39983 2.90331 6.09653 3.58667 6.80874C3.76401 5.92211 4.244 5.00932 4.84062 4.33781C4.91483 4.25448 5.26856 3.87754 5.32832 3.84653C5.37747 3.82134 5.38036 3.82134 5.42952 3.84653C5.56253 3.91436 6.0377 4.61591 6.13697 4.78549C7.22418 6.64789 7.1702 8.93374 6.03481 10.7603H6.03384Z" fill="#E7A5AD"/>
</svg>
