<svg width="25" height="18" viewBox="0 0 25 18" fill="none" xmlns="http://www.w3.org/2000/svg">
<path d="M11.4201 17.1262C12.5947 15.8149 13.33 14.0926 13.511 12.3354C13.8947 8.61451 11.7444 4.28937 9.10481 1.76198C8.58066 1.25951 7.96884 0.867348 7.38342 0.444072C9.41024 0.302666 11.4927 0.581707 13.4639 1.05118C15.8961 1.63 19.2559 3.06857 21.5523 1.55364C22.249 1.0936 23.0456 0.054734 23.8233 1.05212C24.42 1.81854 24.5077 3.48525 24.173 4.36856C23.729 5.54129 22.3951 5.97399 21.4731 6.67819C20.2353 7.62279 19.9035 8.87093 19.1625 10.1549C17.6523 12.7719 15.2739 15.2069 12.5891 16.6162C12.2214 16.8095 11.817 17.0112 11.421 17.1253L11.4201 17.1262Z" fill="#734A84"/>
<path d="M8.69472 3.63143C7.74164 2.54354 6.05231 1.11723 4.5025 1.28503C2.77075 1.47263 2.81882 3.16479 2.54544 4.43461C1.9751 7.08456 0.21601 8.4562 0.377213 11.4144C0.685478 17.0678 7.5729 20.5492 10.9054 15.2267C13.2452 11.4889 11.3456 6.65657 8.69566 3.63237L8.69472 3.63143ZM6.09473 14.4509C4.24985 14.2793 3.89634 10.6207 5.71671 10.3294C8.04331 9.95699 8.48732 14.6734 6.09473 14.4509Z" fill="#734A84"/>
</svg>
