<svg width="25" height="25" viewBox="0 0 25 25" fill="none" xmlns="http://www.w3.org/2000/svg">
<path d="M20.3794 5.41602C20.0017 6.19996 19.2736 6.51426 18.4051 6.39842C18.3458 6.45499 18.6715 6.91207 18.7162 7.00456C19.228 8.05521 19.5929 9.69315 18.1916 10.2382C16.9198 10.733 16.5257 9.84581 15.6124 9.3564C15.3497 9.21542 15.0687 9.12203 14.7895 9.01965C14.6116 10.4026 14.2476 11.79 13.5241 12.996C13.0205 13.8356 12.5333 14.4013 11.4385 14.2603C10.4331 14.1301 9.99789 12.9268 9.78714 12.0935C9.52986 11.0734 9.48516 10.0182 9.41217 8.97386C9.09924 9.09239 8.79726 9.24954 8.51261 9.42195C7.64772 9.94548 7.19337 10.7052 6.03288 10.4977C5.34863 10.3747 4.79849 9.71829 4.75196 9.0439C4.6954 8.21954 5.47453 7.17069 5.93982 6.51605C5.90151 6.43883 5.80024 6.5394 5.77378 6.5394H5.01289C4.92987 6.5394 4.5257 6.33376 4.43082 6.26911C4.24653 6.14339 4.12063 5.98534 3.99108 5.81023H3.89528C0.205796 9.08341 -0.753069 14.3331 1.79508 18.6039C3.80587 21.9732 7.59662 23.9999 11.5078 24.2846H13.2203C17.7199 24.026 22.1475 21.1838 23.734 16.9579C25.3087 12.7634 23.8535 8.17913 20.3794 5.41602Z" fill="#B74A35"/>
<path d="M13.5521 3.30841C15.031 2.64389 16.5993 2.863 18.0408 3.50237C18.3291 3.62989 19.2634 4.10044 19.4358 4.30608C19.6812 4.59792 19.6356 5.08823 19.3573 5.34774C18.9869 5.69437 17.7252 5.52555 17.1887 5.55428C16.9059 5.56955 16.5984 5.65396 16.311 5.65037C17.1431 6.25561 17.8657 7.01442 18.1631 8.01747C18.2981 8.47275 18.4541 9.09237 17.945 9.3887C17.3319 9.74521 16.9269 9.17588 16.488 8.87056C15.7217 8.33716 14.8659 8.07764 13.9326 7.99143C13.9289 9.51712 13.5722 11.1048 12.8159 12.4401C12.5258 12.9519 12.076 13.7161 11.368 13.3021C10.8836 13.0193 10.6135 11.7612 10.5223 11.2323C10.3352 10.1502 10.307 9.04118 10.3188 7.94473C9.43842 7.88636 8.58447 8.32728 7.86738 8.78615C7.32089 9.13637 6.71145 9.90595 6.03449 9.56291C5.20609 9.14265 6.0126 7.9591 6.35929 7.44276C6.82823 6.74592 7.4176 6.14247 8.08178 5.62702C8.0836 5.56596 7.70316 5.51657 7.63017 5.51028C7.3665 5.48963 6.99153 5.49322 6.72513 5.50759C6.12117 5.54081 5.17143 5.92964 4.77456 5.37109C4.18337 4.53955 5.3247 4.04925 5.94235 3.8014C7.34187 3.24016 8.82989 3.16652 10.3179 3.356V1.50614C10.3179 1.16221 10.5579 0.678191 10.8562 0.490511C11.2138 0.266013 12.1526 0.259727 12.5787 0.310913C13.0047 0.362098 13.3341 0.780562 13.4445 1.14425C13.4773 1.25291 13.5531 1.59953 13.5531 1.69292V3.30841H13.5521Z" fill="#B74A35"/>
</svg>
