<svg width="25" height="25" viewBox="0 0 25 25" fill="none" xmlns="http://www.w3.org/2000/svg">
<path d="M12.7566 0.317795C14.4109 0.562004 14.4513 1.9217 15.6121 2.58277C16.1889 2.87349 16.8617 2.8395 17.4233 3.14543C18.3949 3.63832 18.9232 4.7717 18.7447 5.84604C18.6622 6.34877 18.4541 6.84792 18.5375 7.36497C18.6389 8.12264 19.2139 8.67725 19.4525 9.38394C19.7459 10.2042 19.7055 11.1247 19.3449 11.9173C19.1161 12.4281 18.7438 12.8628 18.6326 13.4255C18.507 13.9649 18.655 14.4712 18.7357 15.0007C19.0112 16.4785 17.9607 17.2773 16.8492 18.0386C15.1662 19.3527 14.0341 21.3529 13.7533 23.4622C13.7354 23.7905 13.5667 24.1241 13.2124 24.1537C12.9477 24.1859 12.7692 24.0964 12.7916 23.8388C12.7943 22.9094 12.7836 20.2007 12.7961 19.3902C12.8544 19.0637 13.1603 18.9716 13.451 18.6621C14.4046 17.8078 16.2221 16.1914 16.7245 15.7343C16.8967 15.5929 16.7936 15.3908 16.6563 15.253C16.2885 14.7941 15.9987 15.253 15.6112 15.5724C14.9285 16.1762 14.0996 16.9052 13.4474 17.4822C13.3173 17.56 12.8033 18.1629 12.8006 17.9053C12.7961 17.8749 12.7943 17.8355 12.7934 17.7863C12.7907 17.1977 12.7925 15.1287 12.7925 14.4488C12.7791 14.1992 12.8266 14.057 13.0374 13.896C14.0126 13.0292 15.8956 11.3537 16.5469 10.7749C16.6985 10.6479 16.8366 10.5128 16.7397 10.3026C16.4069 9.60668 16.0992 9.99848 15.6354 10.4225C14.8164 11.156 13.9309 11.9495 13.1352 12.6624C12.9244 12.8494 12.8338 12.9442 12.8078 12.8556C12.7638 12.0693 12.8033 10.1121 12.7916 9.34547C12.7656 9.02791 12.9136 8.90715 13.1657 8.69693C13.8646 8.07433 15.1573 6.9821 15.7987 6.38008C16.0463 6.12693 15.6713 5.57142 15.3448 5.71275C14.7554 6.10814 14.0054 6.83629 13.4142 7.30593C13.1926 7.44816 12.7477 8.02245 12.7916 7.57608C12.7898 6.80141 12.7916 3.60701 12.7898 2.72947C12.8105 2.48705 12.6275 2.42354 12.3862 2.42533C12.1377 2.42264 11.9233 2.46558 11.9466 2.72947C11.9448 3.60701 11.9466 6.80141 11.9448 7.57608C11.9475 7.74335 11.9259 7.81671 11.7591 7.67179C11.4003 7.37659 10.9051 6.94274 10.4888 6.59208C10.1605 6.31299 9.84918 6.04552 9.64196 5.87019C9.43652 5.64835 9.11806 5.61704 8.9494 5.91581C8.72693 6.21012 8.95389 6.43196 9.18623 6.61355C9.73256 7.09124 11.0163 8.21299 11.5833 8.70767C11.7851 8.89463 11.9331 8.9644 11.9412 9.22024C11.9502 10.0003 11.9475 11.9378 11.943 12.7483C11.9349 12.988 11.8694 12.8959 11.6021 12.6624C10.7391 11.8895 9.78639 11.0353 8.90275 10.2436C8.53943 9.8822 8.37078 9.80079 8.0873 10.1157C7.90788 10.2829 7.86034 10.5119 8.08282 10.656C8.78165 11.2813 10.6835 12.9853 11.6909 13.8861C11.9008 14.0481 11.9609 14.184 11.9457 14.4354C11.9457 15.1027 11.9475 17.1933 11.9457 17.7854C11.9439 18.0135 11.9215 18.052 11.6523 17.7997C11.5339 17.6942 11.4155 17.5913 11.2917 17.4813C10.6377 16.9016 9.81151 16.1762 9.12792 15.5715C8.7341 15.2485 8.4569 14.795 8.08461 15.253C7.94915 15.389 7.8406 15.5938 8.01374 15.7343C8.51252 16.1887 10.3157 17.7908 11.2729 18.6487C11.4819 18.8356 11.6505 18.985 11.7582 19.0825C11.8766 19.1952 11.9259 19.231 11.9412 19.3741C11.9573 20.1434 11.943 22.7922 11.9475 23.786C11.9502 23.9452 11.9448 24.1071 11.7519 24.1438C11.3698 24.2458 10.9831 23.9139 10.9903 23.4962C10.7104 21.318 9.51726 19.2561 7.75538 17.9321C4.52137 15.7602 6.84573 15.0464 5.92083 12.8861C5.24442 11.7679 4.72322 10.418 5.39424 9.18177C5.67323 8.61911 6.1137 7.99383 6.19265 7.35691C6.27428 6.40244 5.69835 5.46318 6.1146 4.52033C6.39539 3.77429 7.04129 3.17495 7.80831 2.954C8.25416 2.81982 8.7341 2.79209 9.15035 2.56845C9.74961 2.27594 10.0304 1.66407 10.4449 1.18102C11.0019 0.529801 11.882 0.174669 12.7405 0.315112L12.7584 0.317795H12.7566Z" fill="#78B591"/>
<path d="M8.04702 0.313445C8.49018 0.385902 9.35228 0.652475 9.33524 1.15699C9.27065 1.60605 8.75392 1.89052 8.32781 1.97997C6.82249 2.16514 5.47955 3.22695 5.20145 4.73157C5.15301 4.95431 5.13327 5.32375 4.83723 5.22714C4.62193 5.17705 4.23977 4.93105 3.97244 4.82639C3.83877 4.77361 3.68447 4.74051 3.55709 4.81565C3.43419 4.88632 3.3696 5.03213 3.3696 5.17168C3.38036 5.59211 3.95719 5.74866 4.27476 5.95082C4.75829 6.1995 5.40868 6.49291 5.38715 7.12714C5.37549 7.66744 4.96372 8.13528 4.70805 8.64696C4.55734 8.91532 4.47571 9.23914 4.36267 9.51645C4.29091 9.69446 4.13122 9.69178 3.9859 9.62201C3.72395 9.5084 3.34986 9.23199 3.06189 9.10407C2.78469 8.9511 2.48596 9.19352 2.45187 9.47262C2.43303 9.63364 2.5676 9.74635 2.6914 9.83222C2.98654 10.0299 3.4925 10.3376 3.81007 10.5461C3.99846 10.6677 4.18056 10.8278 4.25323 11.0345C4.40304 11.5274 4.5071 12.0695 4.77444 12.5248C5.30372 13.4166 5.50108 13.7011 5.21132 14.7432C5.10367 15.169 5.17185 15.5546 4.64346 15.1905C4.23529 14.9365 3.57324 14.5178 3.20543 14.2915C3.00448 14.1502 2.74522 14.0974 2.59541 14.3335C2.37742 14.6475 2.61963 14.9517 2.90939 15.1189C3.60822 15.5984 4.39945 15.9804 5.08035 16.493C5.39791 16.7542 5.60155 17.1343 5.86889 17.4447C6.14519 17.7605 6.47801 18.011 6.81711 18.2579C8.59245 19.4297 9.8708 21.3333 10.1776 23.4417C10.2054 23.6358 10.2494 23.8836 10.1238 24.0223C10.0655 24.0858 9.97128 24.1251 9.84837 24.1466C9.58104 24.1833 9.25002 24.1824 9.0087 24.0795C8.6382 23.9024 8.56464 23.4328 8.39599 23.0911C6.40176 17.8204 1.89568 18.5611 1.28925 15.9285C1.0883 15.1216 1.59784 14.3398 1.4256 13.5329C1.31706 12.9255 0.962706 12.4631 0.699859 11.9192C0.351788 11.2429 0.27105 10.326 0.48366 9.64169C0.646931 9.1157 0.98603 8.69348 1.21927 8.19075C1.66333 7.30336 1.48661 6.77559 1.28207 5.90431C1.0578 4.88364 1.55927 3.78157 2.44829 3.23858C3.04126 2.83515 3.79123 2.88793 4.4174 2.58736C5.0642 2.29574 5.35306 1.62305 5.79712 1.11942C6.35511 0.509348 7.21362 0.19626 8.02728 0.309866L8.04433 0.31255L8.04702 0.313445Z" fill="#78B591"/>
<path d="M17.4224 0.320532C18.2899 0.426982 18.969 1.01827 19.4185 1.75C19.7163 2.20353 20.1523 2.58908 20.6842 2.7331C21.0458 2.84134 21.4217 2.8798 21.7787 3.00593C22.5574 3.26625 23.1889 3.94967 23.4123 4.73955C23.7164 5.65019 23.1064 6.53489 23.2571 7.4491C23.3307 7.92679 23.6025 8.31054 23.8411 8.7113C24.3363 9.52085 24.5032 10.4923 24.2493 11.4056C24.1165 11.8896 23.8169 12.3583 23.5576 12.7984C23.014 13.7198 23.4213 14.414 23.493 15.3532C23.5765 17.3597 21.2871 17.9071 19.9172 18.7927C18.071 19.8984 16.9129 21.4567 16.1916 23.4667C16.0544 23.8165 15.901 24.0857 15.5323 24.1367C15.212 24.1716 14.8307 24.2154 14.6172 24.0106C14.5033 23.888 14.5464 23.6116 14.5751 23.4211C14.8603 21.6168 15.8113 19.893 17.2681 18.7695C17.7373 18.4009 18.2397 18.07 18.6685 17.6549C19.0192 17.3382 19.2265 16.9428 19.5153 16.6181C20.1729 16.093 21.462 15.3846 22.099 14.9552C22.4524 14.7727 22.343 14.4838 22.0738 14.236C21.811 14.0374 21.637 14.244 21.3158 14.4238C20.8762 14.694 20.3371 15.0482 19.9477 15.2763C19.7477 15.389 19.6499 15.3622 19.6015 15.084C19.5512 14.7924 19.4508 14.439 19.4068 14.1349C19.3027 13.5302 19.6831 13.0373 19.9675 12.5247C20.12 12.2438 20.2402 11.9451 20.3236 11.6373C20.4232 11.2965 20.4268 10.9467 20.7174 10.7052C21.0772 10.4217 21.602 10.1336 21.9859 9.8742C22.1339 9.7758 22.3196 9.64788 22.2829 9.45108C22.2434 9.23013 22.0191 8.99576 21.7769 9.0709C21.3598 9.19166 20.9444 9.63625 20.5551 9.66845C20.4124 9.65861 20.3604 9.48955 20.3155 9.36073C20.2563 9.17735 20.1926 8.98234 20.1092 8.80612C19.884 8.2855 19.4795 7.84896 19.3736 7.30598C19.2713 6.75494 19.4911 6.43201 20.0671 6.16186C20.3792 5.9919 20.8224 5.76111 21.1086 5.5992C21.4145 5.43908 21.4764 5.26017 21.3445 5.00433C20.9381 4.1903 19.7109 5.90961 19.579 4.9283C19.3799 3.50151 18.2083 2.29388 16.7613 2.06041C16.4751 2.00137 16.1737 1.94591 15.9225 1.79831C14.4961 0.872462 16.5289 0.128206 17.4054 0.320532L17.4233 0.323216L17.4224 0.320532Z" fill="#78B591"/>
</svg>
