<svg width="24" height="26" viewBox="0 0 24 26" fill="none" xmlns="http://www.w3.org/2000/svg">
<path d="M22.3896 17.5331C21.4991 20.0365 19.3812 22.1597 16.9604 23.2115C16.6143 23.3617 16.0048 23.623 15.6459 23.6565C13.3194 23.872 10.6644 23.4905 8.30316 23.6547C5.91639 22.9893 3.79421 21.3795 2.46702 19.2924C2.30644 19.0403 1.60634 17.8224 1.60938 17.6081C1.6106 17.5343 1.64466 17.5233 1.69332 17.4867C1.85086 17.3688 2.35084 17.1479 2.55704 17.0569C4.02352 16.4055 5.65181 16.0912 7.25941 16.1943C8.46921 17.4775 9.84568 18.2107 11.6485 17.8285C11.8 17.7962 12.1138 17.638 12.2252 17.6496C12.3596 17.6637 12.924 17.9659 13.1247 18.0385C16.1988 19.1477 19.4615 18.9957 22.3902 17.5331H22.3896Z" fill="white"/>
<path d="M0.614509 11.6307L23.2961 11.6179C24.2346 11.8285 24.2346 13.0696 23.2961 13.2802H0.70453C-0.189596 13.0757 -0.246771 11.9415 0.613901 11.6307H0.614509Z" fill="white"/>
<path d="M23.1652 14.1086C23.1116 14.8925 23.0076 15.6763 22.7917 16.4314C21.6026 16.9985 20.5114 17.5418 19.1945 17.7757C17.2098 18.1279 14.9702 17.9893 13.1382 17.1438C14.14 16.4174 14.8912 15.3112 15.205 14.1086H23.1652Z" fill="white"/>
<path d="M11.9485 8.97275C10.8463 9.18335 9.46015 9.60091 8.53014 10.237C8.38659 10.3353 7.93284 10.7889 7.89087 10.7889H6.8313C8.38172 8.56374 11.4674 8.18709 13.9417 7.72559L14.0968 7.77747L16.1606 9.85608C16.2683 10.0911 16.0554 10.5227 16.084 10.7889H13.345L13.9131 10.0111C13.7495 10.0697 12.9691 10.7895 12.9059 10.7895H11.5878L13.1382 9.49286C13.0616 9.43547 11.6876 10.1381 11.4832 10.2437C11.3348 10.3206 10.6322 10.7895 10.5799 10.7895H9.15846C10.01 10.0649 11.0319 9.47943 12.0531 9.02586C12.0872 8.98618 12.0531 8.96908 11.9497 8.97397L11.9485 8.97275Z" fill="white"/>
<path d="M21.6015 0.84086C22.8496 0.643683 23.5436 2.0807 22.7018 2.98234L19.0061 6.6933L18.9082 6.73847L17.1704 5.00417L21.0456 1.11251C21.1909 0.986759 21.4111 0.870162 21.6009 0.84025L21.6015 0.84086Z" fill="white"/>
<path d="M15.8625 5.1957C16.0109 5.16274 16.1514 5.18532 16.2646 5.2891L18.7091 7.76389C18.7298 7.89758 18.7511 8.05386 18.6708 8.17106C18.3594 8.38106 17.5194 9.47439 17.2347 9.53421C17.0541 9.57206 16.989 9.51285 16.8582 9.41456C16.4835 9.13375 14.7677 7.42387 14.5055 7.05515C14.3486 6.83539 14.3486 6.69987 14.5055 6.4801C14.6399 6.29147 15.4775 5.45698 15.6697 5.31413C15.7336 5.26652 15.7774 5.21463 15.8631 5.1957H15.8625Z" fill="white"/>
<path d="M6.15933 14.1085C6.19704 14.5596 6.44216 14.954 6.62403 15.3532C4.75427 15.3825 2.96481 15.8709 1.32801 16.7555C1.0026 15.9179 0.9071 15.0022 0.835327 14.1079H6.15933V14.1085Z" fill="white"/>
<path d="M15.3085 24.4844V25.444C15.3085 25.6149 15.0196 25.7181 14.8718 25.7315C13.0325 25.8988 10.9444 25.6003 9.07886 25.7303C8.95174 25.7608 8.69202 25.5423 8.69202 25.444V24.4844H15.3085Z" fill="white"/>
<path d="M14.3779 14.109C14.075 14.952 13.5702 15.7908 12.8518 16.3384C12.7594 16.4086 12.3586 16.6955 12.2813 16.7028C12.2375 16.7071 11.5587 16.4232 11.535 16.3903C11.4985 16.3402 11.5563 16.2969 11.5891 16.2639C11.7035 16.1497 11.9796 15.9953 12.1274 15.8708C12.5897 15.4813 12.9924 15.0473 13.3646 14.5705C13.4352 14.4802 13.5976 14.1682 13.6535 14.134C13.7904 14.0516 14.1997 14.1395 14.3767 14.1084L14.3779 14.109Z" fill="white"/>
<path d="M12.6723 14.1086C12.4655 14.506 10.8798 15.9718 10.5368 15.965C10.5015 15.9644 9.92185 15.7923 9.8598 15.7679C9.80689 15.7471 9.81723 15.6806 9.82939 15.6659C9.84642 15.6458 10.1688 15.4449 10.243 15.3802C10.4364 15.2136 11.5185 14.1086 11.6122 14.1086H12.6717H12.6723Z" fill="white"/>
<path d="M10.398 14.1086C9.97892 14.5317 9.46921 15.0262 8.9668 15.3442C8.71863 15.5011 8.63834 15.5634 8.33057 15.4321C8.41268 15.2398 9.2326 14.1086 9.33844 14.1086H10.398Z" fill="white"/>
<path d="M8.22674 14.109C8.07832 14.3611 7.8995 14.5937 7.73345 14.8348C7.69452 14.8916 7.74865 14.971 7.60632 14.9386C7.60997 14.7872 7.6118 14.2604 7.68053 14.1579C7.74926 14.0553 8.10022 14.1279 8.22613 14.1096L8.22674 14.109Z" fill="white"/>
<path d="M10.2684 17.1176C10.2477 17.1152 10.0683 17.0694 10.0878 17.0144L10.6267 16.8594L11.1729 17.1176C10.8834 17.0938 10.5513 17.15 10.2684 17.1176Z" fill="white"/>
<path d="M11.9486 8.97278C12.0058 8.96179 12.1013 8.87266 12.2071 8.9215C12.2241 8.98499 12.1232 8.99353 12.052 9.02467L11.9486 8.97278Z" fill="white"/>
</svg>
