<svg width="18" height="25" viewBox="0 0 18 25" fill="none" xmlns="http://www.w3.org/2000/svg">
<path d="M11.9651 24.2463V10.2357C11.9651 10.2301 12.0431 10.1521 12.0487 10.1521H17.4175C17.4231 10.1521 17.5012 10.2301 17.5012 10.2357V21.8127C17.5012 22.8907 16.4811 24.2452 15.3474 24.2452H11.964L11.9651 24.2463Z" fill="#93CBDC"/>
<path d="M14.3697 3.27295L10.9863 9.25709H0.555176L0.608685 9.05866L4.1069 3.27295H14.3697Z" fill="#93CBDC"/>
<path d="M14.3696 2.32201H4.07788V1.45471C4.07788 1.41793 4.16929 1.1292 4.19493 1.069C4.41009 0.559547 4.87384 0.401248 5.38999 0.36223C7.87709 0.174947 10.5983 0.506037 13.1099 0.365575C13.528 0.417969 13.8836 0.479282 14.1355 0.849389C14.1757 0.907358 14.3685 1.30979 14.3685 1.34324V2.32201H14.3696Z" fill="#93CBDC"/>
<path d="M17.4465 9.25714H12.1323L14.9015 4.28076L17.4465 9.25714Z" fill="#93CBDC"/>
<path d="M0.582999 10.1521C0.577425 10.1521 0.49939 10.2301 0.49939 10.2357V22.1494C0.49939 23.2028 1.72677 24.3031 2.76465 24.3031H11.0141V10.1532H0.582999V10.1521Z" fill="#93CBDC"/>
</svg>
