<svg width="22" height="25" viewBox="0 0 22 25" fill="none" xmlns="http://www.w3.org/2000/svg">
<path d="M10.3852 0.303223C10.5262 0.365575 10.861 0.593989 10.861 0.755596V2.30359C11.8628 2.09999 12.3647 3.29741 11.3972 3.72116L6.31757 3.73452C5.14422 3.46347 5.65625 2.04718 6.77178 2.30359V0.851034C6.77178 0.649979 7.08307 0.395479 7.2476 0.303223H10.3858H10.3852Z" fill="#FFA92D"/>
<path d="M3.65658 24.6397C3.30972 24.5818 2.78499 23.9201 2.56773 23.6344C0.897606 21.44 0.501834 18.4814 1.56273 15.9224L12.5027 15.8728L12.5777 15.9033C12.732 16.7935 13.0154 17.674 13.5223 18.4242C11.067 19.4822 10.5905 22.8709 12.5719 24.6391H3.65594L3.65658 24.6397Z" fill="#FFA92D"/>
<path d="M10.8601 5.06533C10.9643 6.78766 10.559 8.74667 11.3175 10.3456C11.6929 11.1364 12.3111 11.7848 13.0505 12.241C12.8078 12.9599 12.6026 13.6878 12.5239 14.4468H2.39514C2.51457 14.1796 2.74645 13.9048 2.94147 13.684C4.12943 12.3428 5.71696 11.9184 6.44562 10.1452C6.53964 9.91674 6.7696 9.20986 6.7696 8.99354V5.0647H10.8588L10.8601 5.06533Z" fill="#FFA92D"/>
<path d="M18.6985 19.3645C20.2956 19.3213 21.2822 20.6886 20.9671 22.2124C20.5808 24.0823 18.1401 25.5298 16.5189 24.1879C14.5757 22.5795 16.3982 19.4269 18.6985 19.3645Z" fill="#FFA92D"/>
<path d="M16.3769 12.9237C15.9005 12.4802 15.4628 12.0094 14.9107 11.6537L14.8917 7.71979C14.8116 7.2426 14.1757 6.58917 13.6904 6.58917H12.2877V5.16016H13.881C15.0302 5.16016 16.3776 6.72215 16.3776 7.85086V12.923L16.3769 12.9237Z" fill="#FFA92D"/>
<path d="M16.8054 18.4486C16.679 18.3538 16.8346 17.3097 16.8747 17.1137C17.1129 15.9328 17.832 14.6292 18.7538 13.8523C19.229 13.4521 19.6317 13.2778 19.7048 14.0915C19.8274 15.4576 19.4519 16.8681 18.6121 17.9491C17.9832 18.0134 17.3714 18.1667 16.8054 18.4486Z" fill="#FFA92D"/>
<path d="M15.4254 18.5909C14.3118 17.4737 13.7864 15.7075 14.005 14.1436C14.1358 13.2057 14.3607 12.9996 15.0697 13.7325C15.4565 14.1321 15.7786 14.6583 16.0359 15.1495C15.5791 16.2495 15.353 17.3916 15.4254 18.5909Z" fill="#FFA92D"/>
<path d="M14.6168 23.9734C12.549 24.0383 12.1164 20.7883 13.7592 19.9001C13.9269 19.8091 14.317 19.6698 14.4974 19.6876C14.5508 19.6927 14.9815 20.0534 14.9904 20.0992C14.998 20.1387 14.6784 20.6941 14.6283 20.8182C14.221 21.8318 14.2191 22.956 14.6168 23.974V23.9734Z" fill="#FFA92D"/>
</svg>
