<svg width="16" height="25" viewBox="0 0 16 25" fill="none" xmlns="http://www.w3.org/2000/svg">
<path d="M13.3454 2.0049H4.55859L12.7818 0.303844C13.0236 0.206456 13.3454 0.500476 13.3454 0.724933V2.0049Z" fill="white"/>
<path d="M15.8792 3.43248C15.9344 3.26089 15.7174 2.85742 15.5547 2.85742H0.585754L0.585754 24.2847H15.5538C15.6972 24.2847 15.9215 23.9202 15.8783 23.7598L15.8783 3.43248H15.8792ZM10.2524 19.8549C10.2083 19.9097 10.0713 19.9653 9.99593 19.9718L6.42034 19.9681C6.03603 19.8271 6.03695 19.3077 6.42034 19.1677H10.0419C10.3141 19.2205 10.4124 19.6528 10.2515 19.8549H10.2524ZM11.9405 18.1483C11.8835 18.217 11.729 18.2717 11.6362 18.2661L4.65875 18.2364C4.32316 18.0278 4.35902 17.5037 4.78103 17.4592H11.684C12.0196 17.4583 12.1317 17.9202 11.9414 18.1483H11.9405ZM13.3876 11.9581C12.71 13.5553 10.0879 15.6431 8.44029 16.0902C8.10378 16.182 7.73786 15.9845 7.41974 15.8463C5.5846 15.0486 3.1408 13.0916 2.78315 10.9982C2.46779 9.14871 3.60878 7.40221 5.4899 7.18611C6.56929 7.06182 7.54294 7.47642 8.21136 8.32416C8.29686 8.34271 8.44397 8.07744 8.52855 7.9986C11.0431 5.64644 14.8707 8.45957 13.3876 11.9572V11.9581Z" fill="white"/>
<path d="M5.48878 8.03928C6.23994 7.93633 7.03063 8.16264 7.50689 8.78314C7.76156 9.11426 7.85259 9.83123 8.38217 9.65964C8.60283 9.58822 8.72603 9.13652 8.85566 8.9334C9.74657 7.5375 11.9651 7.82317 12.6584 9.2469C13.8232 11.6389 10.6761 14.248 8.76096 15.0605C8.42906 15.2015 8.34171 15.2933 7.98406 15.1765C6.69505 14.7544 4.53351 13.0376 3.92118 11.8068C3.17278 10.3024 3.65455 8.29064 5.48878 8.04021V8.03928Z" fill="white"/>
</svg>
