<svg width="17" height="25" viewBox="0 0 17 25" fill="none" xmlns="http://www.w3.org/2000/svg">
<path d="M3.22335 5.81307L0.950256 8.92849L1.01167 4.47855C1.06849 3.11286 1.10057 1.00109 2.9942 1.00292C3.25543 1.00292 3.8512 1.25406 3.90436 1.24948C3.93827 1.24673 4.32506 0.891097 4.43413 0.824188C7.39282 -0.97412 10.917 2.03772 9.61549 5.22647C8.73192 7.38957 5.93822 8.13199 4.09959 6.65448C3.82278 6.43267 3.61105 6.07337 3.38558 5.8754C3.32967 5.8259 3.31317 5.79107 3.22243 5.81307H3.22335Z" fill="#FB8FEF"/>
<path d="M12.2 11.4966C12.3311 10.7102 12.2239 10.0531 11.7729 9.39587C11.387 8.83402 9.12496 7.15853 8.46778 6.79282C7.22216 6.09989 5.24329 7.18878 4.41471 8.18234C3.69246 9.04849 3.4294 10.0915 3.34416 11.2024L2.17554 24.2846H13.5373L13.1084 21.8465C13.4337 21.5642 13.8187 21.3818 14.1523 21.1014C17.5473 18.2527 16.3631 12.8165 12.2 11.4966ZM11.5924 17.392C11.2221 17.8732 10.4274 17.7449 9.89579 17.7018C8.12498 17.403 6.27443 15.6038 5.87114 13.8742C5.7584 13.3646 5.80148 12.9237 5.79232 12.394C5.79232 12.0658 5.79232 11.7194 5.79232 11.3894C5.7969 10.8853 5.76573 10.5691 5.9298 10.3014C6.2836 9.71117 7.34682 9.82574 7.50263 10.4976L7.5063 10.5123C7.59887 10.9421 7.54571 11.4499 7.56037 11.8981C7.55671 12.6167 7.59612 13.1639 7.85826 13.7963C8.42103 15.1253 9.58416 15.8238 10.9792 15.9979C11.1643 16.0419 11.3641 16.1107 11.5062 16.2463C11.805 16.5249 11.8343 17.0575 11.5924 17.3911V17.392Z" fill="#FB8FEF"/>
</svg>
