<svg width="24" height="25" viewBox="0 0 24 25" fill="none" xmlns="http://www.w3.org/2000/svg">
<path d="M11.7678 24.2837C11.5523 24.1403 11.3581 24.0437 11.2646 23.7794C10.4869 19.1233 9.44075 14.4163 7.5112 10.0977C6.31158 7.41073 4.41049 4.14634 2.06107 2.33065C1.78659 2.11818 0.930587 1.63731 0.807575 1.42789C0.425324 0.780297 1.07901 0.0625596 1.81607 0.37263C3.36744 1.0253 5.41899 3.52417 6.36851 4.91288C9.17237 9.00988 10.6882 13.9151 11.8369 18.7075C12.2141 16.9711 12.6482 15.2408 13.2653 13.5735C13.431 13.1262 13.6597 12.4329 13.8824 12.0354C14.162 11.5362 14.8502 10.7676 15.2355 10.2949C16.4219 8.83807 17.6886 7.42292 19.1709 6.26296C19.0448 6.22432 18.87 6.31277 18.75 6.3575C16.9373 7.03152 14.8787 8.52698 13.5459 9.91772C13.4737 9.99295 13.126 10.4789 13.0325 10.4108C12.0098 7.71266 12.8007 4.96574 15.4368 3.65328C17.3074 2.72205 19.056 2.24017 20.8463 1.0009C21.3221 0.671518 21.8903 -0.0818012 22.5024 0.496658C22.7545 0.735565 22.8439 1.43195 22.907 1.77862C23.2526 3.66141 23.3645 5.81971 22.8897 7.6842C22.1679 10.5185 19.2522 12.6707 16.3365 12.6606L15.2894 12.5752C13.7624 16.0958 13.0081 19.9122 12.6919 23.7337C12.6075 24.0112 12.392 24.1718 12.1419 24.2847H11.7668L11.7678 24.2837Z" fill="#648E31"/>
</svg>
