<svg width="340" height="128" viewBox="0 0 340 128" fill="none" xmlns="http://www.w3.org/2000/svg">
<path d="M157.414 100.476C150.595 100.476 147.264 93.2616 147.264 81.87C147.264 73.5162 148.479 66.7594 153.325 66.7594C158.172 66.7594 159.915 73.3654 160.979 79.5917H161.436L166.817 71.7684C163.637 68.4291 158.94 65.6929 153.331 65.6929C141.058 65.6929 133.332 75.3366 133.332 87.2587C133.332 97.7401 139.164 107.306 151.286 107.306C160.077 107.306 164.316 101.839 167.575 95.5344L167.118 95.2328C165.224 98.1924 161.737 100.471 157.42 100.471L157.414 100.476Z" fill="#D5AC71"/>
<path d="M189.006 65.6985C177.034 65.6985 169.157 74.0523 169.157 86.6612C169.157 99.2702 176.733 107.317 188.855 107.317C200.977 107.317 208.704 98.963 208.704 86.3541C208.704 73.7452 201.127 65.6985 189.006 65.6985ZM189.006 106.25C184.309 106.25 183.702 96.5284 183.702 86.5049C183.702 76.4814 184.159 66.7595 188.855 66.7595C193.551 66.7595 194.159 76.4814 194.159 86.5049C194.159 96.5284 193.702 106.25 189.006 106.25Z" fill="#D5AC71"/>
<path d="M109.628 65.6985C97.6569 65.6985 89.7799 74.0523 89.7799 86.6612C89.7799 99.2702 97.3561 107.317 109.478 107.317C121.6 107.317 129.326 98.963 129.326 86.3541C129.326 73.7452 121.75 65.6985 109.628 65.6985ZM109.628 106.25C104.932 106.25 104.325 96.5284 104.325 86.5049C104.325 76.4814 104.782 66.7595 109.478 66.7595C114.174 66.7595 114.781 76.4814 114.781 86.5049C114.781 96.5284 114.325 106.25 109.628 106.25Z" fill="#D5AC71"/>
<path d="M252.417 98.5051V77.5424C252.417 69.948 249.465 65.6929 242.267 65.6929C236.964 65.6929 232.19 69.1103 228.63 72.7568V65.8436H228.329L210.826 69.1829V69.6408C213.4 70.551 214.692 71.9192 214.692 76.7773V98.4995C214.692 103.358 214.464 105.943 211.361 105.943V106.401H231.967V105.943C228.858 105.943 228.636 103.363 228.636 98.4995V73.667C230.301 72.9857 232.273 72.5278 233.638 72.5278C237.883 72.5278 238.485 75.7163 238.485 80.8816V98.4995C238.485 103.358 238.256 105.943 235.153 105.943V106.401H255.759V105.943C252.651 105.943 252.428 103.363 252.428 98.4995L252.417 98.5051Z" fill="#D5AC71"/>
<path d="M296.437 96.3774V47.0139H296.136L278.633 49.7501V50.208C281.207 51.1182 282.499 52.4863 282.499 57.3445V66.1562C281.212 65.8547 279.847 65.6983 278.41 65.6983C265.987 65.6983 257.954 74.2029 257.954 88.0236C257.954 100.175 264.394 107.311 272.277 107.311C276.823 107.311 280.46 104.804 282.733 101.537L284.02 107.311H284.321L300.309 104.731V104.273C297.735 103.363 296.443 101.236 296.443 96.3774H296.437ZM282.493 100.476C281.129 101.314 279.691 101.694 278.555 101.694C273.48 101.694 272.494 94.4788 272.494 83.9975C272.494 75.1857 273.33 66.7593 278.098 66.7593C281.658 66.7593 282.493 71.3941 282.493 78.4525V100.476Z" fill="#D5AC71"/>
<path d="M339.543 100.102C339.086 100.633 338.178 101.699 336.663 101.699C334.312 101.699 334.312 99.4991 334.312 96.3832V79.8263C334.312 70.8638 329.159 65.6985 320.525 65.6985C311.89 65.6985 305.294 70.4841 302.799 78.38L303.255 78.609C305.228 74.8118 309.088 71.4725 313.784 71.4725C320.831 71.4725 320.831 79.0668 320.831 81.1944V85.0698L314.163 86.8902C305.372 89.3193 301.283 93.1946 301.283 98.963C301.283 104.128 304.843 107.317 310.224 107.317C314.692 107.317 319.087 104.659 321.511 101.163C321.812 103.972 323.176 107.317 328.936 107.317C335.298 107.317 338.786 102.838 340 100.404L339.543 100.102ZM320.831 100.633C319.923 101.47 318.937 101.85 318.029 101.85C315.907 101.85 313.862 99.4935 313.862 95.244C313.862 90.6874 314.921 88.7106 319.466 86.7394L320.831 86.1307V100.638V100.633Z" fill="#D5AC71"/>
<path d="M59.7426 82.5679L59.7538 80.0606V74.9065C59.7538 68.5797 59.7538 62.2529 59.7538 55.9317C59.7538 55.485 59.7649 55.0326 59.7148 54.5915C59.5811 53.2513 58.8903 52.5142 57.804 52.6594C57.2859 52.7264 56.74 52.933 56.2888 53.2513C54.3613 54.5915 52.4728 55.9987 50.5676 57.3724C47.1305 59.8406 43.6878 62.3032 40.2395 64.7602C39.4875 65.3018 38.9248 66.0278 38.7911 67.1167C38.7187 67.7086 38.7354 68.3284 38.7577 68.9371C38.8858 72.1982 39.0474 75.4482 39.1421 78.7093C39.2312 81.7917 39.2145 84.8741 38.5293 87.884C37.9945 90.2516 36.7467 91.8934 35.0977 93.3396C34.3958 93.9595 33.1647 94.9199 33.1034 94.9367C32.4739 95.1154 31.8389 95.1545 31.1537 95.0819C29.3376 94.8809 27.75 94.0097 26.3461 92.636C22.4689 88.8556 20.5804 83.7406 20.0568 77.827C19.8785 75.8167 19.873 73.8399 20.0234 71.8967C20.0846 71.1205 20.1682 70.3499 20.274 69.5848C20.4802 68.1106 20.7754 66.6644 21.1542 65.2292C21.0038 65.1957 20.8534 65.1622 20.703 65.1176C17.7282 64.3469 14.9763 63.0179 12.4695 61.164C8.72037 58.3943 5.96843 54.826 4.16352 50.4872C3.81813 49.6607 3.52288 48.8175 3.28334 47.9688C1.6734 53.2122 2.74298 58.8801 2.08564 64.9333C1.58427 69.5569 0.308576 73.1028 0.0467518 78.4747V78.5027C0.0188982 79.0387 0.002185 79.5916 0.002185 80.1667C-0.00338572 80.5967 0.00218738 81.0378 0.0133288 81.4902C-0.00338334 82.7633 0.0523244 83.9472 0.17488 85.0696C0.17488 85.0807 0.17488 85.0975 0.17488 85.1143C0.55926 88.6769 1.60656 91.6197 3.11622 94.8753C6.00185 101.09 9.90136 106.15 14.7367 110.12C15.7618 110.958 16.7812 110.985 17.8452 110.204C21.0929 107.825 24.3462 105.452 27.6107 103.112C29.6997 101.621 31.7776 100.113 33.8777 98.6501C34.6855 98.0806 35.4988 97.5277 36.3177 96.9805C36.418 96.9079 36.5238 96.8353 36.6353 96.7627C36.73 96.6957 36.8302 96.6287 36.9305 96.5673C36.9472 96.5561 36.9584 96.5449 36.9751 96.5393L37.3427 96.2992C37.3427 96.2992 37.3817 96.2769 37.3929 96.2657L37.404 96.2601C37.482 96.2099 37.56 96.1596 37.6436 96.1094C37.716 96.0647 37.7884 96.02 37.8664 95.9753C38.5572 95.5454 39.2646 95.1545 39.9777 94.8027C42.0723 93.7752 44.2616 93.0995 46.5734 92.9488C48.2614 92.8371 49.9214 93.066 51.4868 93.898C56.2553 96.4332 58.2775 103.039 56.0102 108.785C54.8905 111.611 52.9965 113.258 50.4284 113.537C48.59 113.738 47.0748 112.851 45.8158 111.17C43.504 108.071 40 106.602 36.535 108.238C31.4656 110.628 30.2568 117.268 32.7525 122.209C34.4905 125.649 37.1923 127.096 40.3454 127.392C44.5234 127.782 48.2836 126.319 51.6539 123.31C54.9239 120.395 57.1634 116.519 58.5226 111.873C59.4307 108.78 59.7872 105.563 59.7816 102.274C59.7649 94.8753 59.7259 89.978 59.7259 82.5791L59.7426 82.5679Z" fill="#D5AC71"/>
<path d="M80.3709 83.6345H69.6751C67.8312 83.6345 66.3326 85.1366 66.3326 86.985C66.3326 88.8333 67.8312 90.3355 69.6751 90.3355H80.3709C82.2148 90.3355 83.7133 88.8333 83.7133 86.985C83.7133 85.1366 82.2148 83.6345 80.3709 83.6345Z" fill="#D5AC71"/>
<path d="M57.7706 78.4692C58.5728 77.9946 59.7538 76.8442 59.7538 74.9121C59.7928 74.739 59.8095 74.5436 59.8095 74.3314C59.7427 59.7122 59.8095 45.093 59.7204 30.4682C59.7037 28.0391 59.3472 25.571 58.8012 23.2089C57.8431 19.0822 55.9602 15.3744 53.3754 12.0351C48.0943 5.21688 41.2033 1.25216 32.8417 0.219099C25.7223 -0.657606 19.082 1.10697 13.177 5.32856C4.63154 11.4376 0.163822 19.9143 0.0914021 30.5967C-0.00330014 43.9315 0.0356951 57.2719 0.0524072 70.6124C0.0524072 73.2313 0.0356958 75.8726 0.0356958 78.4916V78.5195C0.0356958 78.9271 0.0245519 79.117 0.0245519 79.5246C0.0245519 79.8373 0.00226906 80.4572 0.0245519 81.077C0.375507 80.8704 0.938152 80.5577 1.22783 80.4013C2.36426 79.7759 3.4784 79.1058 4.60926 78.4692C8.1968 76.4254 11.7899 74.3872 15.383 72.3435C17.0153 71.4165 18.653 70.4951 20.2853 69.5737L20.4858 68.5798L21.0819 65.6258V65.6034L21.1654 65.2237C21.015 65.1902 20.8646 65.1567 20.7142 65.112C17.7394 64.3414 14.9875 63.0124 12.4807 61.1585C8.73159 58.3888 5.97966 54.8205 4.17474 50.4817C3.82936 49.6552 3.53411 48.812 3.29457 47.9632C3.289 47.9409 3.28343 47.913 3.27228 47.8906C2.52024 45.2326 2.23613 42.4852 2.25284 39.682C2.26398 36.929 2.28069 34.1705 2.25284 31.4175C2.21942 27.7823 3.01046 24.3983 5.10505 21.422C7.91269 17.4293 11.7119 15.1733 16.5139 14.788C19.8062 14.5256 22.9035 15.218 25.7167 17.0105C28.7026 18.9147 30.9532 21.489 32.0618 24.8506C32.1676 25.1689 32.2623 25.4928 32.3459 25.8278C32.8695 27.9051 33.0812 30.1164 33.0924 32.2719C33.1035 36.4265 33.1091 40.9161 33.1091 45.5844C33.1258 61.7783 33.1091 80.2059 33.1091 94.9312L57.7706 78.4692Z" fill="#C42032"/>
</svg>
