<svg width="257" height="96" viewBox="0 0 257 96" fill="none" xmlns="http://www.w3.org/2000/svg">
<path d="M118.566 75.6801C113.43 75.6801 110.921 70.2459 110.921 61.6656C110.921 55.3734 111.836 50.2841 115.486 50.2841C119.137 50.2841 120.45 55.2598 121.251 59.9495H121.595L125.649 54.0569C123.253 51.5417 119.716 49.4807 115.49 49.4807C106.247 49.4807 100.427 56.7445 100.427 65.7244C100.427 73.6191 104.82 80.824 113.95 80.824C120.572 80.824 123.765 76.7063 126.219 71.9577L125.875 71.7306C124.449 73.9598 121.822 75.6759 118.57 75.6759L118.566 75.6801Z" fill="#D5AC71"/>
<path d="M142.361 49.4849C133.344 49.4849 127.411 55.7771 127.411 65.2743C127.411 74.7715 133.118 80.8324 142.248 80.8324C151.378 80.8324 157.198 74.5402 157.198 65.043C157.198 55.5458 151.492 49.4849 142.361 49.4849ZM142.361 80.029C138.824 80.029 138.367 72.7064 138.367 65.1565C138.367 57.6067 138.711 50.284 142.248 50.284C145.785 50.284 146.243 57.6067 146.243 65.1565C146.243 72.7064 145.898 80.029 142.361 80.029Z" fill="#D5AC71"/>
<path d="M82.5734 49.4849C73.5563 49.4849 67.6233 55.7771 67.6233 65.2743C67.6233 74.7715 73.3298 80.8324 82.4601 80.8324C91.5905 80.8324 97.4102 74.5402 97.4102 65.043C97.4102 55.5458 91.7038 49.4849 82.5734 49.4849ZM82.5734 80.029C79.0362 80.029 78.5789 72.7064 78.5789 65.1565C78.5789 57.6067 78.9229 50.284 82.4601 50.284C85.9973 50.284 86.4547 57.6067 86.4547 65.1565C86.4547 72.7064 86.1106 80.029 82.5734 80.029Z" fill="#D5AC71"/>
<path d="M190.124 74.1953V58.4059C190.124 52.6857 187.9 49.4807 182.479 49.4807C178.484 49.4807 174.888 52.0548 172.207 54.8013V49.5943H171.981L158.797 52.1095V52.4544C160.735 53.14 161.709 54.1704 161.709 57.8297V74.1911C161.709 77.8504 161.537 79.7978 159.2 79.7978V80.1427H174.72V79.7978C172.379 79.7978 172.211 77.8546 172.211 74.1911V55.4869C173.466 54.9738 174.951 54.6289 175.979 54.6289C179.177 54.6289 179.63 57.0305 179.63 60.9211V74.1911C179.63 77.8504 179.458 79.7978 177.121 79.7978V80.1427H192.641V79.7978C190.3 79.7978 190.132 77.8546 190.132 74.1911L190.124 74.1953Z" fill="#D5AC71"/>
<path d="M223.28 72.5929V35.4116H223.054L209.87 37.4726V37.8175C211.809 38.5031 212.782 39.5335 212.782 43.1928V49.8299C211.813 49.6028 210.785 49.485 209.702 49.485C200.345 49.485 194.295 55.8908 194.295 66.3007C194.295 75.453 199.145 80.8283 205.083 80.8283C208.507 80.8283 211.246 78.9398 212.958 76.4793L213.928 80.8283H214.154L226.197 78.8851V78.5402C224.258 77.8547 223.285 76.2522 223.285 72.5929H223.28ZM212.778 75.6801C211.75 76.311 210.667 76.5971 209.811 76.5971C205.989 76.5971 205.246 71.1629 205.246 63.2681C205.246 56.631 205.876 50.2841 209.467 50.2841C212.149 50.2841 212.778 53.7751 212.778 59.0916V75.6801Z" fill="#D5AC71"/>
<path d="M255.748 75.3982C255.404 75.7978 254.72 76.6011 253.579 76.6011C251.808 76.6011 251.808 74.944 251.808 72.597V60.1261C251.808 53.3754 247.927 49.4849 241.423 49.4849C234.919 49.4849 229.951 53.0894 228.072 59.0368L228.416 59.2092C229.901 56.3491 232.809 53.8339 236.346 53.8339C241.654 53.8339 241.654 59.5541 241.654 61.1566V64.0756L236.631 65.4467C230.01 67.2764 226.93 70.1954 226.93 74.5402C226.93 78.4308 229.612 80.8324 233.665 80.8324C237.03 80.8324 240.341 78.8303 242.166 76.1974C242.392 78.313 243.42 80.8324 247.759 80.8324C252.551 80.8324 255.177 77.4592 256.092 75.6253L255.748 75.3982ZM241.654 75.7978C240.97 76.4287 240.227 76.7147 239.543 76.7147C237.945 76.7147 236.405 74.9398 236.405 71.739C236.405 68.3068 237.202 66.8179 240.626 65.3332L241.654 64.8747V75.802V75.7978Z" fill="#D5AC71"/>
<path d="M44.9989 62.1914L45.0073 60.3029V56.4207C45.0073 51.6553 45.0073 46.8899 45.0073 42.1287C45.0073 41.7922 45.0157 41.4515 44.9779 41.1192C44.8772 40.1098 44.3569 39.5546 43.5387 39.6639C43.1485 39.7144 42.7373 39.87 42.3974 40.1098C40.9456 41.1192 39.5232 42.1791 38.0882 43.2138C35.4993 45.0729 32.9062 46.9277 30.3089 48.7784C29.7424 49.1864 29.3187 49.7332 29.218 50.5533C29.1634 50.9992 29.176 51.466 29.1928 51.9245C29.2893 54.3808 29.411 56.8287 29.4823 59.285C29.5494 61.6068 29.5369 63.9285 29.0208 66.1956C28.6179 67.9789 27.678 69.2155 26.4361 70.3048C25.9074 70.7717 24.9801 71.4951 24.9339 71.5078C24.4598 71.6424 23.9814 71.6718 23.4653 71.6171C22.0975 71.4657 20.9016 70.8096 19.8442 69.7749C16.9239 66.9274 15.5014 63.0747 15.107 58.6205C14.9728 57.1063 14.9686 55.6174 15.0818 54.1537C15.128 53.5691 15.1909 52.9886 15.2707 52.4124C15.4259 51.302 15.6483 50.2126 15.9336 49.1317C15.8203 49.1065 15.707 49.0812 15.5938 49.0476C13.3531 48.4671 11.2803 47.4661 9.39216 46.0697C6.56829 43.9835 4.4955 41.2959 3.13601 38.0278C2.87586 37.4053 2.65348 36.7702 2.47305 36.1309C1.26043 40.0803 2.06605 44.3494 1.57093 48.9088C1.19329 52.3914 0.232423 55.0622 0.035214 59.1084L0.035214 59.1294C0.0142343 59.5332 0.00164577 59.9496 0.00164577 60.3828C-0.00255017 60.7067 0.00164756 61.039 0.0100394 61.3796C-0.00254837 62.3386 0.0394114 63.2303 0.131722 64.0757C0.131722 64.0841 0.131722 64.0967 0.131722 64.1094C0.421242 66.7928 1.21008 69.0094 2.34718 71.4615C4.52067 76.1428 7.45783 79.9535 11.0999 82.944C11.872 83.5749 12.6398 83.5959 13.4412 83.0071C15.8875 81.2153 18.3379 79.4277 20.7967 77.6654C22.3702 76.5424 23.9353 75.4068 25.5171 74.3048C26.1256 73.8758 26.7382 73.4594 27.355 73.0472C27.4305 72.9925 27.5102 72.9378 27.5941 72.8831C27.6655 72.8327 27.741 72.7822 27.8165 72.7359C27.8291 72.7275 27.8375 72.7191 27.8501 72.7149L28.127 72.534C28.127 72.534 28.1564 72.5172 28.1648 72.5088L28.1732 72.5046C28.2319 72.4667 28.2907 72.4289 28.3536 72.391C28.4081 72.3574 28.4627 72.3237 28.5214 72.2901C29.0417 71.9662 29.5746 71.6718 30.1117 71.4068C31.6894 70.6329 33.3384 70.124 35.0797 70.0104C36.3511 69.9263 37.6014 70.0987 38.7805 70.7254C42.3722 72.635 43.8954 77.6107 42.1876 81.9387C41.3442 84.067 39.9176 85.3078 37.9833 85.5181C36.5986 85.6695 35.4573 85.0007 34.509 83.7347C32.7677 81.4003 30.1285 80.2942 27.5186 81.5265C23.7003 83.3267 22.7898 88.3277 24.6696 92.05C25.9787 94.6409 28.0137 95.7303 30.3886 95.9532C33.5356 96.2476 36.3678 95.1457 38.9064 92.8786C41.3694 90.6831 43.0562 87.7641 44.08 84.2647C44.7639 81.9345 45.0324 79.5118 45.0283 77.0345C45.0157 71.4615 44.9863 67.7728 44.9863 62.1998L44.9989 62.1914Z" fill="#D5AC71"/>
<path d="M60.5367 62.9946H52.4805C51.0916 62.9946 49.9629 64.1261 49.9629 65.5182C49.9629 66.9104 51.0916 68.0419 52.4805 68.0419H60.5367C61.9255 68.0419 63.0542 66.9104 63.0542 65.5182C63.0542 64.1261 61.9255 62.9946 60.5367 62.9946Z" fill="#D5AC71"/>
<path d="M43.5133 59.1041C44.1175 58.7466 45.007 57.8801 45.007 56.4249C45.0364 56.2945 45.049 56.1473 45.049 55.9874C44.9986 44.9761 45.049 33.9647 44.9819 22.9491C44.9693 21.1195 44.7007 19.2604 44.2895 17.4812C43.5678 14.373 42.1496 11.5802 40.2027 9.06499C36.2249 3.92943 31.0346 0.943144 24.7365 0.165029C19.3741 -0.495318 14.3725 0.833788 9.92481 4.01354C3.48824 8.61494 0.123101 14.9997 0.068554 23.0458C-0.0027769 33.0898 0.0265948 43.138 0.0391826 53.1862C0.0391826 55.1588 0.0265953 57.1483 0.0265953 59.1209L0.0265953 59.142C0.0265953 59.449 0.0182016 59.592 0.0182016 59.899C0.0182016 60.1346 0.00141788 60.6014 0.0182016 61.0683C0.282546 60.9127 0.706337 60.6772 0.924525 60.5594C1.7805 60.0883 2.61968 59.5836 3.47146 59.1041C6.17364 57.5647 8.88002 56.0295 11.5864 54.4901C12.8158 53.7919 14.0494 53.0979 15.2788 52.4039L15.4299 51.6552L15.8788 49.4302V49.4134L15.9418 49.1274C15.8285 49.1022 15.7152 49.0769 15.6019 49.0433C13.3613 48.4629 11.2885 47.4618 9.40032 46.0654C6.57645 43.9792 4.50366 41.2916 3.14418 38.0235C2.88403 37.401 2.66164 36.7659 2.48122 36.1266C2.47702 36.1097 2.47283 36.0887 2.46443 36.0719C1.89798 34.0698 1.68399 32.0005 1.69658 29.889C1.70497 27.8155 1.71756 25.7377 1.69658 23.6641C1.6714 20.926 2.26722 18.3771 3.8449 16.1353C5.95965 13.128 8.82128 11.4288 12.4382 11.1386C14.918 10.9409 17.2509 11.4624 19.3699 12.8126C21.6189 14.2468 23.314 16.1858 24.149 18.7178C24.2288 18.9576 24.3001 19.2015 24.363 19.4539C24.7574 21.0185 24.9169 22.6841 24.9253 24.3076C24.9337 27.4369 24.9379 30.8186 24.9379 34.3348C24.9505 46.5323 24.9379 60.4122 24.9379 71.5035L43.5133 59.1041Z" fill="#C42032"/>
</svg>
