<svg width="22" height="25" viewBox="0 0 22 25" fill="none" xmlns="http://www.w3.org/2000/svg">
<path d="M21.0217 10.1171C20.5906 10.1084 20.1663 10.4375 19.8661 10.7396C19.4186 11.3064 18.8201 11.6336 18.0927 11.5123C17.3806 11.418 16.7253 10.9023 15.9998 10.9994C15.5841 11.0495 15.1896 11.2063 14.7797 11.2737C14.4997 11.3227 14.1773 11.3122 13.8887 11.214C12.7436 10.8532 12.5357 9.72736 12.0566 8.76897C11.6717 7.98186 10.8903 8.17238 10.3572 7.62679C9.54799 6.77136 9.9377 5.49062 9.77027 4.43793C9.70772 4.07035 9.58552 3.39198 9.1198 3.38428C7.14143 3.7201 5.29297 4.75932 3.83903 6.19883C2.10604 7.91835 0.913822 10.2133 0.74543 12.6526C0.531813 15.3218 1.0851 17.738 2.66317 19.8578C4.54724 22.4328 7.66874 24.2803 10.8682 24.108C11.001 24.1446 11.2136 24.1128 11.3532 24.1225C11.4378 24.1234 11.4802 24.0897 11.5571 24.0917C11.5956 24.0917 11.6303 24.1042 11.6678 24.1109C16.9178 24.1937 21.755 19.2401 21.5827 13.9679C21.5789 13.5619 21.5895 13.1472 21.5789 12.7401C21.5298 11.8693 21.3922 10.9244 21.0342 10.1248L21.0227 10.118L21.0217 10.1171ZM3.92948 13.5003C3.93237 13.1702 4.18543 12.8787 4.51356 12.8344C4.68772 12.8133 4.72333 12.8296 5.04953 12.8248C5.79911 12.8306 6.85565 12.8142 7.11834 12.8325C7.89487 12.9326 7.91796 14.0449 7.15491 14.1825C6.86142 14.2133 5.53257 14.1873 4.84553 14.195C4.37211 14.2403 3.9545 14.0334 3.92852 13.5186V13.5013L3.92948 13.5003ZM8.37887 18.2769C8.34231 18.6059 8.06133 18.8706 7.72936 18.8811C7.55423 18.884 7.52056 18.8648 7.19532 18.8359C6.54869 18.7695 5.38535 18.6492 5.23812 18.6338C5.0553 18.6184 4.85515 18.5155 4.74642 18.3654C4.37596 17.8939 4.7801 17.1895 5.37765 17.2675C5.54219 17.2848 6.97304 17.432 7.53691 17.4897C8.01226 17.4926 8.40678 17.7428 8.37984 18.2576L8.37791 18.2749L8.37887 18.2769ZM8.24897 10.8108C8.01515 11.0456 7.62448 11.0793 7.35698 10.8753C7.21938 10.7666 7.20494 10.731 6.97112 10.5039C6.44477 9.96984 5.68556 9.23373 5.51236 9.03551C5.02258 8.39562 5.84241 7.5883 6.47268 8.07615C6.66801 8.24647 7.6187 9.21833 8.08539 9.67828C8.44912 9.97561 8.59923 10.4221 8.26052 10.8012L8.24993 10.8128L8.24897 10.8108ZM10.6911 16.4091C10.4246 16.2128 10.338 15.8366 10.4948 15.5441C10.5805 15.3911 10.6142 15.3719 10.8018 15.1053C11.2473 14.502 11.8554 13.6369 12.0248 13.4358C12.5637 12.8671 13.4778 13.5032 13.14 14.2008C12.9928 14.4568 12.1893 15.5152 11.7919 16.0762C11.5523 16.4852 11.1338 16.7026 10.7046 16.4197L10.6902 16.4091H10.6911ZM13.3296 19.3767C13.2584 19.9271 13.1198 21.7842 13.0303 21.9921C12.7243 22.7157 11.6389 22.4385 11.7159 21.6533C11.7265 21.5465 11.8506 20.3476 11.919 19.6846C11.9594 19.3344 11.9353 18.9976 12.2298 18.7791C12.683 18.4221 13.371 18.784 13.3306 19.3661V19.3757L13.3296 19.3767ZM18.6979 16.4553C18.3265 16.617 16.5435 17.382 16.4655 17.4156C16.4107 17.4378 16.3424 17.458 16.2673 17.4676C15.5052 17.5532 15.2031 16.5054 15.8949 16.1686C16.1239 16.0781 17.6308 15.3988 18.2572 15.1659C19.0453 14.9889 19.4398 16.0858 18.7066 16.4515L18.6979 16.4563V16.4553Z" fill="#A55D56"/>
<path d="M18.0772 4.45918C17.5018 3.55179 16.7801 2.72619 15.9488 2.01317C15.0029 1.22414 13.9319 0.513041 12.7676 0.126221C12.7224 0.128145 12.68 0.151239 12.6444 0.180106C12.402 0.386025 12.1883 0.63717 12.0132 0.915257C11.4089 1.87653 11.2453 3.17459 11.8362 4.15319C12.1816 4.70936 12.7541 5.06539 13.1708 5.56191C13.7404 6.21816 13.7385 7.02355 13.9444 7.82606C14.0512 8.22539 14.2004 8.65647 14.5506 8.90184C15.5783 9.48977 16.324 8.21769 17.9704 9.70146C18.2601 9.95164 18.6835 9.98725 19.0029 9.78133C19.2262 9.6495 19.4051 9.45705 19.5466 9.24536C19.587 9.18185 19.6034 9.11065 19.5976 9.03367C19.4561 7.40941 19.0202 5.94584 18.0869 4.47458L18.0772 4.45918ZM16.5752 7.26122C16.2115 7.39016 15.7929 7.2006 15.6476 6.84361C15.6043 6.73776 15.5918 6.69061 15.5494 6.57515C15.3416 5.99395 14.8114 4.51211 14.7556 4.35526C14.6796 4.15319 14.6959 3.89627 14.8104 3.71345C15.0847 3.21405 15.8756 3.23522 16.1162 3.76348C16.2182 4.0002 16.6002 5.10966 16.8754 5.86501C16.9899 6.20276 17.0188 6.22682 17.063 6.42504C17.1314 6.77433 16.9264 7.13228 16.5925 7.25449L16.5761 7.26026L16.5752 7.26122Z" fill="#A55D56"/>
</svg>
