<svg width="25" height="22" viewBox="0 0 25 22" fill="none" xmlns="http://www.w3.org/2000/svg">
<path d="M22.5908 17.6689C23.2796 17.6471 23.9824 17.5864 24.2757 18.3399C24.7102 19.4561 23.5769 20.0604 22.5908 19.9004C22.9722 22.2164 19.9488 22.2025 20.3432 19.9004C17.9795 20.2344 17.9084 17.2574 20.3432 17.6689C20.2722 16.9135 20.3572 15.9981 21.2863 15.8887C22.3926 15.7585 22.7019 16.7555 22.5898 17.6689H22.5908Z" fill="white"/>
<path d="M2.80126 13.6552C4.24091 13.4494 4.59832 15.6938 3.14966 15.8648C1.5278 16.0566 1.45272 13.848 2.80126 13.6552Z" fill="white"/>
<path d="M24.1085 1.96409C23.8372 1.18581 22.9822 0.773306 22.1983 1.04267L19.4452 2.40442C14.8729 3.97391 9.86519 3.89936 5.34402 2.1937L2.40666 0.717644C1.63077 0.425415 0.763782 0.812071 0.469446 1.58141C0.175109 2.35075 0.564555 3.21252 1.33944 3.50475L4.2768 4.98081C5.0647 5.27801 5.86562 5.53048 6.67454 5.7412C6.8137 8.67542 6.48633 11.7736 6.67554 14.686C7.14508 21.9192 17.4218 21.8685 17.9154 14.7605C18.1136 11.8979 17.7833 8.82948 17.9084 5.93403C18.7574 5.74418 19.5983 5.50762 20.4273 5.22334L23.1804 3.86159C23.9643 3.59222 24.3798 2.74337 24.1085 1.96508V1.96409ZM13.4193 11.4874C13.4193 11.9396 12.6914 12.3601 12.2579 12.3492C11.8535 12.3392 11.1717 11.9039 11.1717 11.4874V6.46283C11.6763 6.49463 12.1828 6.51153 12.6884 6.51153C12.9327 6.51153 13.176 6.50656 13.4203 6.49861V11.4874H13.4193Z" fill="white"/>
</svg>
