<svg width="28" height="29" viewBox="0 0 28 29" fill="none" xmlns="http://www.w3.org/2000/svg">
<path d="M14.9233 20.1542C14.9282 20.7118 15.8556 20.9891 16.0917 20.2309C16.3277 19.4726 16.3455 18.5077 16.5819 17.7241C17.909 16.678 19.1443 15.5214 20.2667 14.2557L20.0538 18.1215C20.1514 18.698 20.9312 18.781 21.1509 18.241L21.5496 12.7009C22.2499 11.7605 22.9472 10.8129 23.5586 9.81116C23.6025 9.7897 23.9367 10.1769 23.992 10.2406C27.5877 14.4621 25.4897 20.1381 21.5252 23.2419C15.821 27.7078 7.97845 27.2487 2.42505 22.7207C1.92356 22.3114 0.917938 21.6915 1.67048 21.0389C3.6465 20.5045 5.58373 19.416 6.6739 17.6251C7.39214 16.4468 7.5321 15.0637 8.03158 13.7739C9.87134 9.01237 14.3268 6.10776 19.4648 7.3977C20.2745 7.60155 21.0171 7.98842 21.7703 8.33193C22.1926 7.54299 22.6658 6.78263 23.1061 6.00378C23.3186 5.62838 23.5116 5.15848 23.74 4.80385C24.1573 4.1567 25.075 4.55388 24.8001 5.33012C24.5756 5.96441 23.8314 7.11663 23.4626 7.74761C22.6302 9.1751 21.7398 10.576 20.7233 11.8786L14.5328 11.9574C13.7128 11.8821 13.4314 12.9061 14.2785 13.1116L19.7316 13.0686C19.7622 13.111 19.1297 13.7899 19.0566 13.8711C18.0949 14.9341 17.0123 15.9285 15.8652 16.7866L12.6639 16.4554C12.2553 16.5199 12.0197 16.9871 12.2388 17.3456C12.5023 17.7779 13.9292 17.6142 14.3842 17.8331C13.3358 18.4821 12.2494 19 11.1104 19.469C10.8112 19.592 10.0583 19.7554 9.93086 20.0453C9.77636 20.3953 9.93867 20.8016 10.3266 20.8792C10.5984 20.9335 11.4384 20.5754 11.7399 20.4572C12.3466 20.2193 12.9952 19.9242 13.5731 19.6232C14.1509 19.3222 14.6471 18.9735 15.2043 18.7051C15.1824 19.137 14.9228 19.7468 14.9265 20.1548L14.9233 20.1542Z" fill="#84C2A5"/>
</svg>
