<svg width="25" height="24" viewBox="0 0 25 24" fill="none" xmlns="http://www.w3.org/2000/svg">
<path d="M7.65047 0.862223C11.6232 0.492787 14.8175 3.06961 16.6884 6.34176C17.4114 7.60576 18.2954 9.80654 18.335 11.2619C18.3377 11.3635 18.3535 11.4624 18.2783 11.5469L11.4886 18.3946L11.3395 18.4764C5.68983 18.0252 -0.957342 12.6472 1.07454 6.43939L6.26377 1.24353C6.56987 1.02055 7.26652 0.896528 7.65047 0.860904V0.862223Z" fill="#30709D"/>
<path d="M21.2508 15.6885C21.6809 14.3176 20.5502 12.8253 19.2242 12.0337L11.8883 19.4105C14.7224 23.7475 17.2359 20.5795 20.8431 16.393C21.0212 16.1859 21.169 15.9497 21.2508 15.6885Z" fill="#30709D"/>
<path d="M18.8101 23.0046C19.2323 22.5138 20.0583 23.1973 19.5371 23.7039C19.0991 24.1301 18.409 23.4704 18.8101 23.0046Z" fill="#30709D"/>
<path d="M23.6444 21.9886C24.3014 21.8804 24.4466 22.9518 23.7354 22.9887C23.1852 23.0178 22.9913 22.0955 23.6444 21.9886Z" fill="#30709D"/>
<path d="M19.1228 20.5902C19.7798 20.482 19.925 21.5534 19.2138 21.5903C18.6636 21.6193 18.4697 20.6971 19.1228 20.5902Z" fill="#30709D"/>
<path d="M21.3974 19.1559C20.966 19.6296 20.202 18.9448 20.6717 18.458C21.0966 18.0186 21.8434 18.6691 21.3974 19.1559Z" fill="#30709D"/>
<path d="M24.122 18.8365C24.7329 18.7191 24.9242 19.6585 24.3806 19.7826C23.5982 19.9607 23.5071 18.954 24.122 18.8365Z" fill="#30709D"/>
<path d="M21.5505 20.6047C22.3065 20.4477 22.3791 21.8318 21.4489 21.5389C21.0056 21.4004 21.119 20.6945 21.5505 20.6047Z" fill="#30709D"/>
</svg>
