<svg width="25" height="26" viewBox="0 0 25 26" fill="none" xmlns="http://www.w3.org/2000/svg">
<path d="M15.7145 5.13573C15.7388 5.1526 15.9158 5.54682 15.996 5.65223C16.0697 5.7492 16.6558 6.26781 16.5968 6.33316C16.3301 6.37743 15.1664 6.99196 15.1074 7.19013C15.0357 7.42835 15.1601 7.7003 15.4236 7.7256C15.7114 7.75301 16.7981 6.89288 17.2261 6.88761L18.2274 7.90374C18.1104 8.15566 18.0208 8.42234 17.8954 8.67111C17.7331 8.99471 17.2071 9.5734 17.4811 9.897C17.9882 10.4968 18.6659 8.84608 18.7734 8.50878C18.8472 8.45502 19.3479 9.02738 19.4544 9.10855C19.5608 9.18971 19.954 9.36574 19.9709 9.38999C20.0025 9.43426 20.0773 10.111 20.0805 10.2227C20.1596 12.937 18.5384 14.9323 16.1593 15.9769C14.5297 16.6926 12.7894 17.3462 11.1293 18.0071C10.5506 18.2379 9.64935 18.6859 9.08964 18.8229C9.02745 18.8377 8.97264 18.8746 8.90834 18.8324L6.2489 16.1255L9.25197 8.63632C10.1848 6.42381 12.5133 4.92702 14.9292 5.02505C15.0378 5.02927 15.6713 5.10411 15.7135 5.13468L15.7145 5.13573Z" fill="#FFCFDC"/>
<path d="M7.98811 22.8685C9.41955 22.8559 9.66199 24.7975 8.29064 25.178L1.63203 25.1854C0.226945 24.8512 0.435653 22.8601 1.89344 22.8685C1.78065 22.4258 1.83968 21.9999 2.16539 21.6658C2.6334 21.1851 3.06663 21.4339 3.57153 21.1862C4.13652 20.9079 4.35577 20.0267 4.60347 19.486C4.6762 19.4659 4.68358 19.5049 4.72469 19.5334C5.56163 20.1163 6.03913 21.4444 7.24077 21.3686C7.87744 21.6078 8.17047 22.2108 7.98811 22.8696V22.8685Z" fill="#FFCFDC"/>
<path d="M17.0184 3.87931C17.3219 3.82977 17.479 3.90356 17.7088 4.08486C18.6427 5.2201 20.1753 6.28366 21.0439 7.42207C21.6416 8.2063 20.7477 9.12756 19.8886 8.48036C18.7808 7.64553 17.7436 6.15085 16.6452 5.24434C16.1983 4.81428 16.3828 3.98261 17.0184 3.87931Z" fill="#FFCFDC"/>
<path d="M20.3198 0.43543C21.2853 0.552433 22.1739 1.34721 22.4132 2.28217C22.5534 2.83029 22.4069 3.29936 22.6546 3.82956C22.877 4.306 23.364 4.68652 23.8857 4.77401C24.1429 4.81723 24.4233 4.71182 24.6014 4.97639C24.7617 5.21356 24.6689 5.40962 24.4454 5.55192L21.6479 6.94857L18.1558 3.45747L19.5925 0.56719L19.739 0.434376C19.9245 0.450187 20.1385 0.41224 20.3198 0.434376V0.43543Z" fill="#FFCFDC"/>
<path d="M5.90844 16.9224L8.15784 19.195L6.22888 19.9581C6.1572 19.9434 5.23805 19.02 5.17797 18.9293C5.14951 18.8861 5.12737 18.8608 5.15161 18.8071L5.90844 16.9224Z" fill="#FFCFDC"/>
</svg>
