<svg width="25" height="22" viewBox="0 0 25 22" fill="none" xmlns="http://www.w3.org/2000/svg">
<path d="M18.7718 7.85947C23.8676 7.39288 24.1635 13.4499 21.4104 16.3931C17.1895 20.9067 10.4607 22.6596 4.60894 20.52C3.40683 20.0804 1.54047 19.1397 0.892435 17.998C0.596497 17.4764 0.590017 17.1858 1.26722 17.1286C2.14531 17.0541 3.11629 17.1567 4.01922 17.0811C7.68281 16.7722 10.7815 14.8216 13.2063 12.17C14.9711 10.241 15.7552 8.13705 18.7708 7.86055L18.7718 7.85947Z" fill="#9B3944"/>
<path d="M7.53159 8.43511C5.93633 9.14471 4.82386 9.72903 4.65321 11.5219C4.48256 13.3148 5.0496 13.5319 5.41142 13.8808C3.48026 14.3269 2.41748 12.507 2.29327 12.1948C1.94225 11.3156 2.24359 10.268 2.7847 9.60806C3.11844 9.20196 3.153 9.11231 3.47378 8.67597C4.7785 6.90034 5.50431 4.79097 4.90379 2.58872C4.7785 2.12969 4.31623 1.42765 4.54089 0.998862C4.85951 0.390785 5.67604 0.982661 6.07242 1.22352C8.78446 2.86521 10.5677 5.59022 10.383 8.85526C10.2868 10.5466 9.37958 12.2164 8.04678 13.2403C6.68482 12.0177 7.04772 9.99581 7.53051 8.43511H7.53159Z" fill="#9B3944"/>
<path d="M23.6084 9.04236C23.5328 9.06072 23.5144 9.04128 23.4896 8.99052C23.3222 8.65462 23.0381 8.33708 22.7757 8.08326C22.4635 7.78084 22.0499 7.55295 21.6988 7.30022C22.1309 6.46532 22.4452 5.36906 22.011 4.47584C21.9105 4.26955 21.7377 4.11618 21.6351 3.91853C21.1178 2.92163 22.0034 1.84913 23.0705 2.13966C23.8222 2.3438 24.3731 3.55023 24.5481 4.24795C24.9844 5.97713 24.4336 7.39526 23.6073 9.04344L23.6084 9.04236Z" fill="#9B3944"/>
</svg>
