<svg width="25" height="21" viewBox="0 0 25 21" fill="none" xmlns="http://www.w3.org/2000/svg">
<path d="M24.6871 10.0103H1.87878L7.79711 6.58216C7.88943 6.56848 7.96464 6.79414 8.03758 6.87734C8.67922 7.6204 9.57614 7.97484 10.554 7.73665C10.8423 7.66713 11.0714 7.48022 11.3506 7.44375C12.1051 9.04386 14.2967 9.26609 15.425 7.8962C16.3777 6.73943 16.0278 4.86695 14.6773 4.22303C14.8369 3.66459 14.8654 3.17225 14.732 2.60356L18.9181 0.146419C19.1882 0.0427088 19.8606 0.365237 20.1375 0.504277C23.5998 2.2457 24.8592 6.35423 24.6859 10.0103H24.6871Z" fill="#DDB1ED"/>
<path d="M24.6871 11.5956V12.8424C24.6871 13.2869 24.3235 13.6504 23.879 13.6504H1.42973C1.02742 13.6504 0.701477 13.3245 0.701477 12.9222L0.701477 11.5945C0.701477 11.1922 1.02742 10.8662 1.42973 10.8662H23.9588C24.3611 10.8662 24.6871 11.1922 24.6871 11.5945V11.5956Z" fill="#DDB1ED"/>
<path d="M24.6871 14.9928V16.6203C24.6871 16.9599 24.409 17.2391 24.0682 17.2391H1.2394C0.941948 17.2391 0.701477 16.9987 0.701477 16.7012L0.701477 14.994C0.701477 14.6965 0.941948 14.4561 1.2394 14.4561H24.148C24.4454 14.4561 24.6859 14.6965 24.6859 14.994L24.6871 14.9928Z" fill="#DDB1ED"/>
<path d="M24.1024 20.8258H1.28499C0.962463 20.8258 0.701477 20.5648 0.701477 20.2423L0.701477 18.6262C0.701477 18.3037 0.962463 18.0427 1.28499 18.0427H24.0226C24.3873 18.0427 24.6871 18.3413 24.6871 18.7072V20.2434C24.6871 20.566 24.4261 20.8269 24.1035 20.8269L24.1024 20.8258Z" fill="#DDB1ED"/>
<path d="M12.1449 1.72596C14.3228 1.4399 14.5906 4.6629 12.6623 4.91933C10.4171 5.21906 10.1003 1.99379 12.1449 1.72596Z" fill="#DDB1ED"/>
<path d="M9.95908 3.75122C10.1186 4.60028 10.7329 5.3707 11.5694 5.62257C11.3119 7.0369 9.40292 7.4734 8.61426 6.24711C7.91678 5.16214 8.67922 3.75578 9.95908 3.75122Z" fill="#DDB1ED"/>
<path d="M12.3797 5.78905C12.9108 5.76512 13.4384 5.58163 13.867 5.26822C14.2305 5.00267 14.1883 4.72003 14.6738 5.22035C16.209 6.80108 13.6664 9.1226 12.2669 7.35952C11.7118 6.65976 12.2612 6.5173 12.3797 5.78905Z" fill="#DDB1ED"/>
</svg>
