<svg width="25" height="25" viewBox="0 0 25 25" fill="none" xmlns="http://www.w3.org/2000/svg">
<path d="M2.2809 5.77563L19.1477 5.76147C21.4696 5.82896 21.6372 9.00313 19.2011 9.19036L2.15899 9.13702C0.188739 8.79739 0.257317 6.01837 2.2809 5.77563Z" fill="white"/>
<path d="M18.4782 4.95697H3.20386C3.42265 3.95552 4.48615 2.72656 5.54094 2.60465C6.45313 2.49906 7.14217 2.88984 7.99123 2.26829C8.18499 2.12678 8.32759 1.92432 8.51481 1.7741C9.5979 0.901093 11.3243 0.741079 12.5652 1.35719C13.2097 1.67722 13.5613 2.29442 14.2851 2.53063C14.9383 2.74398 15.488 2.52519 16.14 2.60465C17.1861 2.73201 18.2517 3.96314 18.4771 4.95697H18.4782Z" fill="white"/>
<path d="M18.6285 14.9954C15.0135 15.3317 13.0487 19.4943 14.9188 22.5857C17.0654 26.1354 22.4656 25.6554 23.8927 21.7606C25.2076 18.1717 22.4003 14.6448 18.6285 14.9964V14.9954ZM19.5451 23.2541C18.4173 23.7548 17.9232 21.9065 19.1097 21.7421C19.9892 21.6202 20.3451 22.8992 19.5451 23.2541ZM19.9761 20.0407C19.8564 20.8147 18.5948 20.8059 18.438 20.032C18.3597 19.6445 18.3716 17.7406 18.425 17.3096C18.4424 17.1702 18.561 16.9177 18.659 16.8197C19.0324 16.4453 19.8575 16.6184 19.9685 17.1626C20.0425 17.5273 20.0382 19.6499 19.9772 20.0407H19.9761Z" fill="white"/>
<path d="M19.175 10.0046H2.50742C0.516488 12.9459 0.229114 16.6861 1.18267 20.0649C1.32962 20.5874 1.54624 21.0892 1.70299 21.6073C-0.0114512 21.5703 -0.367402 24.1501 1.07708 24.8326C1.13695 24.8609 1.48311 24.984 1.51576 24.984H16.1206C15.7658 24.6476 15.338 24.3994 14.994 24.0478C14.7643 23.8127 14.552 23.5482 14.3615 23.263C13.7041 22.2779 13.4309 20.903 13.4287 19.9745C13.3514 20.0551 13.2654 20.1334 13.1718 20.2086C13.0542 20.3033 12.7516 20.5406 12.633 20.5906L12.0375 20.8377C11.7033 19.9713 11.4726 18.8729 12.0397 18.0543C12.4381 17.4807 13.0782 17.1041 13.7008 16.8156C13.8042 17.0475 13.8891 17.2804 13.9523 17.5133C13.9838 17.4491 14.0165 17.3838 14.0513 17.3207L14.084 17.2597C15.3195 14.9956 17.8699 13.7242 20.4018 14.2162C20.5477 14.2445 20.6935 14.2782 20.8383 14.3185C20.6304 12.7771 20.0339 11.2935 19.1772 10.0046H19.175ZM7.59958 11.6734C7.71278 11.6015 8.5368 12.1305 8.66525 12.2329C9.82345 13.1483 9.79733 14.2619 9.30531 15.5333C9.28898 15.5747 9.30857 15.6378 9.30531 15.6443H9.3064C9.29007 15.677 9.25306 15.6694 9.21714 15.653C8.55313 15.357 7.71061 14.8029 7.40908 14.1139C7.08688 13.3769 7.27737 12.3798 7.59849 11.6734H7.59958ZM5.79914 16.8853L5.56837 16.329C6.14965 16.1276 6.78753 15.9295 7.40799 15.997C8.53572 16.1211 9.16598 17.0213 9.58942 17.9923H9.58833L9.03209 18.2231C8.60212 18.4016 7.68448 18.4038 7.24036 18.247C6.72875 18.0663 6.00487 17.3816 5.79914 16.8853ZM10.5451 21.4364C10.0455 21.6432 9.05495 21.6171 8.56293 21.3809C8.15364 21.185 7.4831 20.5123 7.31112 20.0975L7.08035 19.5413C7.96532 19.2191 9.02882 18.9731 9.86373 19.5435C10.4439 19.9397 10.8129 20.5797 11.1014 21.2046L10.5451 21.4353V21.4364ZM12.658 15.8414C12.4827 16.3541 11.7926 17.0768 11.2962 17.2826L10.74 17.5133C10.5147 16.919 10.3274 16.2822 10.4058 15.6411C10.5397 14.5482 11.4715 13.9157 12.4033 13.4923L12.634 14.0485C12.8082 14.4676 12.8071 15.4059 12.658 15.8403V15.8414Z" fill="white"/>
</svg>
