<svg width="24" height="25" viewBox="0 0 24 25" fill="none" xmlns="http://www.w3.org/2000/svg">
<path d="M19.4202 4.61423C20.073 4.49359 20.7046 4.25142 21.3761 4.21416C22.0051 4.17868 23.1689 4.31263 23.7366 4.58141C23.8182 4.62044 23.938 4.64616 23.9273 4.76947C23.9105 4.95664 23.2931 5.90935 23.1379 6.10805C21.8303 7.77662 19.6916 8.55103 17.5928 8.32749L8.23335 19.1577C7.61418 19.8097 6.93735 20.4298 6.11947 20.8289C5.93851 20.9168 5.00886 21.2281 4.97427 21.2787C4.91395 21.3656 4.99822 21.7896 5.07539 21.8517C5.16499 21.9236 6.27116 21.4517 6.45212 21.3603C7.1396 21.0143 7.72418 20.5211 8.30166 20.0226L17.8279 8.96175C18.9074 9.06287 19.9364 8.86417 20.9468 8.49781C21.0994 8.44281 21.5695 8.1625 21.644 8.15895C22.0104 8.14121 24.001 9.29085 24.001 9.5614C22.6615 10.9523 20.7002 11.4553 18.8196 11.0889L10.1228 22.242C9.00954 23.444 7.37378 24.175 5.73448 24.1457C4.97427 24.1324 4.25131 23.8095 3.71552 23.2693L1.16609 20.6968C0.237327 19.76 -0.189352 18.4214 0.0812033 17.1307C0.331356 15.9394 0.951416 14.8306 1.85977 13.979L13.0129 5.28219C12.6439 3.39451 13.1521 1.44917 14.5404 0.10083C14.803 0.10083 15.9544 2.09673 15.9411 2.45777C15.9366 2.58018 15.6377 3.05743 15.5685 3.25258C15.3361 3.9028 15.1241 4.75439 15.1028 5.44275C15.093 5.74524 15.1906 6.00426 15.1392 6.27482L4.08099 15.801C3.61351 16.3377 3.14602 16.885 2.81071 17.5184C2.70692 17.7136 2.17113 18.9244 2.25186 19.0264C2.31395 19.1045 2.73708 19.1887 2.8249 19.1275C2.87369 19.0938 3.1336 18.2795 3.209 18.1154C3.45738 17.5778 3.81753 17.0935 4.18212 16.6322C7.95304 13.1585 11.9484 9.9251 15.7761 6.50901C15.5144 4.13433 16.5869 1.65409 18.7132 0.486704C18.817 0.429932 19.2711 0.180666 19.3341 0.174457C19.5523 0.154054 19.7652 1.20434 19.8007 1.41458C19.9781 2.48704 19.8788 3.62071 19.4219 4.61512L19.4202 4.61423Z" fill="#A5C295"/>
<path d="M9.85932 6.87276C9.56304 5.81094 9.53909 4.52203 9.95956 3.48771C10.0083 3.36795 10.2124 2.87474 10.3463 2.89515C10.3862 2.90136 10.9398 3.28989 11.0196 3.35465C11.2627 3.55424 12.3546 4.71275 12.3059 4.97L9.86021 6.87187L9.85932 6.87276Z" fill="#A5C295"/>
<path d="M17.2291 14.2423L19.131 11.7966C19.9994 12.2136 20.7614 12.9605 21.212 13.8076C20.0704 14.59 18.5242 14.5811 17.2291 14.2423Z" fill="#A5C295"/>
</svg>
