<svg width="24" height="28" viewBox="0 0 24 28" fill="none" xmlns="http://www.w3.org/2000/svg">
<path d="M2.68884 0.184228C2.79998 0.547935 2.83927 0.938583 2.80896 1.35617C2.90886 2.81437 3.01887 4.4286 3.88099 5.62973L3.96519 5.87445L3.85854 5.63197V2.26881L3.96519 2.20482C4.17735 2.01623 4.61627 2.24187 4.85425 2.36984C7.03873 3.5429 7.49 7.39775 7.41367 9.63949C7.4204 10.1211 7.5349 10.6621 8.06362 10.7968C8.37008 8.75379 8.99422 6.68044 10.293 5.046C9.6801 4.45217 9.46345 3.57321 9.29955 2.77845C8.13771 2.13522 8.36784 0.28189 9.76429 0.184228H10.2425C11.5379 0.280767 11.8242 1.91857 10.8745 2.68078C10.8431 2.82672 11.2449 3.90212 11.3651 3.94702C11.8691 3.44412 12.1205 3.44636 12.6313 3.93804C12.7929 3.73149 13.2004 2.83794 13.1039 2.62466C12.152 1.92306 12.4977 0.248213 13.7538 0.183105H14.232C15.633 0.284135 15.8564 2.13522 14.6934 2.78181C14.534 3.57434 14.3129 4.45329 13.7033 5.04488C15.0021 6.67932 15.6263 8.75267 15.9327 10.7957C16.4614 10.661 16.5759 10.1188 16.5827 9.63836C16.5052 7.39775 16.9576 3.5429 19.1421 2.36871C19.3789 2.24074 19.8179 2.01511 20.0312 2.2037C20.0727 2.20819 20.1367 2.22391 20.1378 2.25309C20.1715 3.21063 20.1681 4.27705 20.1378 5.23796C20.1692 5.47033 20.1333 5.68249 20.0312 5.87332L20.1153 5.62861C20.9775 4.42747 21.0875 2.81325 21.1874 1.35505C21.1571 0.937461 21.1975 0.546812 21.3075 0.183105H21.4669C22.5221 0.721931 23.2327 1.63008 23.6098 2.74701C24.7223 6.04507 23.428 9.51488 20.1569 10.8653C19.9548 10.9484 19.2106 11.1381 19.1275 11.2189C19.0601 11.2851 18.9344 11.6578 18.8502 11.7937C18.1958 12.8556 17.236 13.4775 15.9888 13.6391V14.5709C15.9888 14.6146 16.0248 14.6506 16.0685 14.6506H17.3988C17.5458 14.6506 18.0049 14.5203 18.1531 14.4474C18.5314 14.261 18.8098 13.9187 18.9569 13.528C19.0893 13.1755 19.4351 12.9488 19.8123 12.9488C20.1546 12.9488 20.4173 13.2631 20.3455 13.5987C20.1243 14.627 19.3228 15.525 18.3193 15.836C18.2048 15.8719 17.8074 15.9808 17.7198 15.9808H15.9911V16.9383H17.5065C17.575 16.9383 17.9196 16.9967 18.015 17.0147C19.1466 17.2369 20.0547 18.154 20.3241 19.2519C20.4139 19.6179 20.1266 19.9703 19.7494 19.9703C19.3834 19.9703 19.0669 19.7335 18.9434 19.3889C18.8491 19.1251 18.7009 18.8882 18.4629 18.6951C17.7445 18.1125 16.8453 18.3786 15.9911 18.3213C16.0517 18.8657 15.743 19.2934 15.4646 19.7234C16.1033 20.3733 16.1763 21.4667 15.6633 22.2222C15.5757 22.3501 15.1402 22.7082 15.1481 22.8059L16.6568 25.875C15.3378 27.1726 13.2319 27.5083 11.4403 27.4185C10.0135 27.3477 8.3364 26.9077 7.33509 25.848L8.85502 22.8059C8.864 22.7071 8.42733 22.3501 8.33977 22.2222C7.82564 21.4667 7.89973 20.3733 8.53846 19.7234C8.26119 19.2934 7.95249 18.8657 8.01199 18.3213C7.15772 18.3786 6.25744 18.1125 5.54013 18.6951C5.25275 18.9286 5.09784 19.225 5.00804 19.5572C4.94181 19.802 4.71954 19.9703 4.46697 19.9703C3.95733 19.9703 3.59025 19.4686 3.75864 18.9881C4.09989 18.0104 4.95079 17.2201 5.98915 17.0158C6.08457 16.9967 6.42919 16.9394 6.49766 16.9394H8.01311V15.9819H6.28438C6.19682 15.9819 5.79944 15.873 5.68494 15.8371C4.77567 15.5553 4.03366 14.7931 3.73619 13.8883C3.58464 13.4247 3.94498 12.9499 4.43329 12.9499H4.43441C4.69934 12.9499 4.92497 13.1306 4.99793 13.3854C5.12703 13.8345 5.42563 14.2408 5.84883 14.4496C5.99588 14.5226 6.45613 14.6528 6.60318 14.6528H7.93341C7.97719 14.6528 8.01311 14.6169 8.01311 14.5731V13.6414C6.77269 13.4842 5.80168 12.8511 5.15172 11.7959C5.06865 11.6601 4.94293 11.2885 4.87445 11.2212C4.79138 11.1403 4.04713 10.9506 3.84507 10.8676C0.573956 9.51713 -0.720347 6.0462 0.392103 2.74926C0.76928 1.6312 1.47986 0.724176 2.53505 0.18535H2.69446L2.68884 0.184228Z" fill="#E1664F"/>
</svg>
