<svg width="24" height="25" viewBox="0 0 24 25" fill="none" xmlns="http://www.w3.org/2000/svg">
<path d="M12.2863 23.8606C13.5939 23.0357 14.7258 22.0999 15.66 20.8739C16.1085 20.2853 17.3526 18.2655 17.3896 17.5971C17.415 17.1401 17.0077 16.7234 16.5412 16.7234C15.9826 16.7234 14.8697 17.2779 14.2434 17.366C14.1873 17.3743 14.1355 17.4064 14.0805 17.366C13.9525 17.2727 13.4553 14.7555 13.3051 14.343C13.1453 13.9057 12.8703 13.6932 12.3794 13.7222L9.16758 14.6425C8.86713 13.6849 8.75288 12.5502 8.42387 11.6164C7.9732 10.3366 6.56724 11.3231 5.65109 11.4827C5.69024 10.8122 5.88912 10.0785 6.08695 9.42459C7.70555 4.08958 13.0744 -2.05792 18.9416 2.55788C23.3086 5.99331 25.3155 13.4528 23.0791 18.5111C21.2298 22.6937 16.9083 25.0908 12.2863 23.8606Z" fill="#D8C3AC"/>
<path d="M3.3391 12.8896L7.30203 11.8035L8.25203 15.613L12.1367 14.5518L13.1184 18.4308L16.2361 17.5758C15.029 20.5967 12.5038 23.3181 9.16288 24.0073C6.02407 24.654 2.89267 23.4259 1.20213 20.7563C-0.983507 17.3074 0.0109259 12.7849 2.59751 9.83447L3.3391 12.8896Z" fill="#D8C3AC"/>
</svg>
