<svg width="24" height="19" viewBox="0 0 24 19" fill="none" xmlns="http://www.w3.org/2000/svg">
<path d="M23.9392 10.2044C22.2233 6.92872 18.847 4.48796 15.1452 4.08676C14.9489 4.04558 14.8522 4.05133 14.7086 3.91632C13.1995 2.25212 10.5586 1.65654 8.47596 1.21607C7.9407 1.10595 7.33554 0.992007 6.83379 0.950833C6.6576 0.935512 6.4661 0.921149 6.29661 0.994879C5.99978 1.1117 5.9586 1.46407 6.07159 1.73027C6.49674 2.97793 7.03966 4.19304 7.33171 5.48093C7.36522 5.58721 7.3116 5.67818 7.20819 5.71457C6.42013 6.0813 5.65123 6.49304 4.92351 6.96989C4.8019 7.05799 4.68221 7.08671 4.5855 6.94308C4.4591 6.787 4.30686 6.53709 4.1594 6.38484C3.37422 5.59679 1.83546 4.94662 0.692164 4.92077C0.420224 4.893 0.143497 5.02131 0.0257202 5.27697L0.0228475 5.28463C-0.0853539 7.03979 0.177011 9.07838 1.51086 10.3347C1.58267 10.4046 1.5731 10.4687 1.50511 10.5338C0.406819 11.6216 -0.0422647 13.3002 0.0218901 14.8245C0.0171025 15.0869 0.0247626 15.0524 0.0180599 15.176C0.00752703 15.3062 -0.00492092 15.4364 0.0180599 15.5686C0.0697668 15.7524 0.260316 15.9046 0.44895 15.9267C0.585878 15.9458 0.756319 15.9391 0.898992 15.9276C2.02984 15.8405 3.37805 15.2746 4.17472 14.4693C4.34899 14.3008 4.51368 14.026 4.66976 13.8594C4.73966 13.7713 4.81818 13.8258 4.89287 13.8756C5.96914 14.589 7.13924 15.1616 8.33712 15.6423C8.4051 15.6701 8.46351 15.7112 8.44628 15.7926C8.21551 16.4006 8.03645 17.0432 8.01443 17.6962C8.00581 17.9796 7.98283 18.2975 8.02783 18.5733C8.06614 18.7868 8.26435 18.9046 8.47883 18.9285C10.2828 18.9956 12.3827 18.3176 13.6869 17.0221C13.728 16.9847 13.774 16.956 13.8276 16.9426C18.0389 16.8411 21.936 14.4224 23.9152 10.7253C24.0062 10.529 24.0397 10.4161 23.9411 10.2054L23.9392 10.2044ZM13.6217 7.26769C12.9802 8.85624 12.8251 10.6018 13.1985 12.2813C13.3019 12.7477 13.9071 13.9886 12.9658 13.9235C12.4957 13.891 12.3061 12.8041 12.2238 12.4125C11.8436 10.5932 11.971 8.47992 12.7609 6.78126C12.8835 6.51698 13.0961 6.01332 13.3986 5.96448C13.6083 5.93001 13.8822 6.0114 13.9511 6.23259C14.0708 6.62039 13.7587 6.92776 13.6217 7.26673V7.26769ZM15.4229 13.1019C15.5253 13.4036 15.9658 14.1753 15.9849 14.3707C16.0261 14.7929 15.6718 15.0094 15.2869 14.8782C15.0226 14.7882 14.6492 13.8383 14.5467 13.5568C13.8353 11.5919 13.8391 9.2651 14.5467 7.30216C14.6731 6.95074 15.0198 6.03055 15.4133 5.96544C15.6824 5.92044 15.9792 6.12439 15.9897 6.40112C16.0003 6.6472 15.6948 7.10108 15.5895 7.36248C14.8685 9.15977 14.7986 11.2635 15.4219 13.1029L15.4229 13.1019ZM18.0657 9.93442C16.8237 10.0216 16.6638 8.16873 17.7554 7.98105C19.2664 7.7206 19.3947 9.84154 18.0657 9.93442Z" fill="#4591C7"/>
</svg>
