<svg width="24" height="25" viewBox="0 0 24 25" fill="none" xmlns="http://www.w3.org/2000/svg">
<path d="M0.00549608 11.1345C0.0355623 10.7745 0.142673 10.2416 0.21502 9.87419C0.628431 7.77717 1.59243 5.81572 3.02809 4.23291L6.65577 7.8529C6.31095 8.42039 6.39645 9.29173 6.48007 9.93869C6.57779 10.6997 6.82114 11.4598 7.22327 12.1133C6.68866 12.118 6.47349 12.4368 6.42746 12.9304C6.33444 13.9149 6.56369 15.3229 7.02784 16.2026C7.85466 17.7677 9.61354 18.3277 11.3001 18.3165V20.7183C11.3001 20.9903 11.7501 21.3119 12.0245 21.3035C12.2829 21.2951 12.7057 20.9707 12.7057 20.7183V18.3165C13.5804 18.3211 14.5068 18.1678 15.2998 17.7967C15.5986 17.6564 15.8485 17.4423 16.1435 17.2974L19.9685 21.0913C18.3215 22.5647 16.2187 23.5782 14.0276 23.9465C13.6678 24.0073 13.245 24.0755 12.8926 24.0998H12.4708C12.3815 24.0615 12.2791 24.0615 12.1898 24.0998H11.3461C11.3123 24.0802 11.2878 24.0868 11.2521 24.0998H11.0182C5.27836 23.8549 0.245087 18.8559 0.00455667 13.1398V12.8603C0.0242876 12.8266 0.0177106 12.8023 0.00455667 12.7668V11.8805C0.0440186 11.7758 0.0440186 11.6589 0.00455667 11.5542C0.0130128 11.4159 -0.00671817 11.2719 0.00455667 11.1345H0.00549608Z" fill="#F9AD73"/>
<path d="M0.00180054 11.3542V11.0579C0.0722683 11.1112 0.0722683 11.3009 0.00180054 11.3542Z" fill="#F9AD73"/>
<path d="M12.4708 24.1007H12.1898C12.2368 24.0241 12.4266 24.026 12.4708 24.1007Z" fill="#F9AD73"/>
<path d="M0.00180054 12.2433V12.1592L0.0299876 12.2097L0.00180054 12.2433Z" fill="#F9AD73"/>
<path d="M11.3462 24.1009H11.2531L11.3095 24.0691L11.3462 24.1009Z" fill="#F9AD73"/>
<path d="M16.7825 12.1133C17.3988 11.098 17.6732 9.72555 17.5811 8.54381C17.5435 8.0642 17.3744 7.74072 16.8529 7.68276C16.1548 7.60423 15.2594 7.69211 14.5801 7.86974C14.847 6.57395 14.3603 5.33986 13.5673 4.33015C13.2929 3.98143 12.4605 3.03062 12.0236 3.01753C11.6139 3.00444 10.9337 3.73835 10.6649 4.045C9.75261 5.08556 9.12498 6.47017 9.42283 7.86974C9.1372 7.72109 8.71345 7.80804 8.46259 7.63695L4.03439 3.22976C5.01906 2.36309 6.14373 1.63386 7.36235 1.13274C12.8626 -1.13162 19.1464 0.900884 22.2367 5.91577C24.983 10.3725 24.4935 16.2064 20.9748 20.09L17.0362 16.1718C17.0061 16.1007 17.2833 15.4566 17.3293 15.2967C17.5257 14.6086 17.6431 13.6428 17.5764 12.9323C17.5294 12.4368 17.3096 12.1292 16.7806 12.1152L16.7825 12.1133Z" fill="#F9AD73"/>
<path d="M11.3001 12.4874H10.6208C10.0956 12.4874 9.13907 12.0957 8.74539 11.7423C8.29064 11.3346 7.83307 10.3156 7.83307 9.71256V9.03662C8.52459 9.07776 9.27531 9.14694 9.89167 9.48351C11.0126 10.0968 11.2794 11.3001 11.301 12.4883L11.3001 12.4874Z" fill="#F9AD73"/>
<path d="M16.1737 9.03564V9.71159C16.1737 10.2211 15.7678 11.1925 15.4249 11.5786C15.0209 12.0349 13.9902 12.4864 13.3851 12.4864H12.7058C12.7274 11.774 12.8082 11.0336 13.1662 10.4034C13.7778 9.32921 15.0209 9.07398 16.1737 9.03564Z" fill="#F9AD73"/>
<path d="M12.7058 16.9178C12.7321 15.8763 12.966 14.6394 13.9103 14.0354C14.5727 13.6119 15.4014 13.4969 16.1747 13.4661C16.2151 14.9638 15.7058 16.3063 14.1593 16.7542C13.9958 16.8018 13.5777 16.9178 13.433 16.9178H12.7067H12.7058Z" fill="#F9AD73"/>
<path d="M11.3 16.9178H10.6207C10.011 16.9178 8.99152 16.4643 8.58093 16.009C8.23893 15.6304 7.83209 14.645 7.83209 14.142V13.4661C8.89193 13.5128 10.1059 13.7148 10.7288 14.6646C11.1619 15.3247 11.269 16.1465 11.3 16.9178Z" fill="#F9AD73"/>
<path d="M12.0489 9.54878C12.0179 9.57495 11.9831 9.55158 11.9521 9.51886C11.3884 8.92612 10.7504 7.99121 10.7344 7.14791C10.7175 6.24666 11.3461 5.29491 11.9859 4.70124C12.1353 4.67506 12.7639 5.57726 12.8541 5.739C13.665 7.18531 13.1566 8.32778 12.0949 9.43285C12.0602 9.46931 12.0536 9.54317 12.048 9.54784L12.0489 9.54878Z" fill="#F9AD73"/>
</svg>
