<svg width="18" height="25" viewBox="0 0 18 25" fill="none" xmlns="http://www.w3.org/2000/svg">
<path d="M12.1639 24.3754V10.3649C12.1639 10.3593 12.2419 10.2812 12.2475 10.2812H17.6163C17.6219 10.2812 17.6999 10.3593 17.6999 10.3649V21.9419C17.6999 23.0198 16.6799 24.3743 15.5462 24.3743H12.1628L12.1639 24.3754Z" fill="#93CBDC"/>
<path d="M14.5685 3.40186L11.1851 9.386H0.754028L0.807538 9.18757L4.30575 3.40186H14.5685Z" fill="#93CBDC"/>
<path d="M14.5685 2.45092H4.27676V1.58362C4.27676 1.54683 4.36818 1.25811 4.39382 1.19791C4.60897 0.688453 5.07273 0.530154 5.58887 0.491137C8.07597 0.303854 10.7972 0.634943 13.3088 0.494481C13.7269 0.546875 14.0825 0.608188 14.3344 0.978296C14.3745 1.03626 14.5674 1.4387 14.5674 1.47214V2.45092H14.5685Z" fill="#93CBDC"/>
<path d="M17.6454 9.38605H12.3311L15.1003 4.40967L17.6454 9.38605Z" fill="#93CBDC"/>
<path d="M0.781852 10.2812C0.776278 10.2812 0.698242 10.3593 0.698242 10.3649V22.2785C0.698242 23.332 1.92563 24.4323 2.9635 24.4323H11.213V10.2824H0.781852V10.2812ZM8.35352 17.6845C8.18741 19.729 5.6847 20.6487 4.36145 19.0055C3.22102 17.5897 4.14183 15.7816 5.14403 14.5854C5.32128 14.3736 5.61782 13.9834 5.88425 13.9277C6.55313 13.7883 7.05367 14.5798 7.39925 15.0715C7.90648 15.7927 8.42709 16.7737 8.35352 17.6834V17.6845Z" fill="#93CBDC"/>
</svg>
