<svg width="24" height="24" viewBox="0 0 24 24" fill="none" xmlns="http://www.w3.org/2000/svg">
<path d="M23.9887 11.2308C24.0346 13.3535 24.0159 15.7106 22.7361 17.5201C19.6215 19.4047 16.2368 20.8832 13.0199 22.4706C12.8062 22.5587 12.4593 22.5746 12.6365 22.3487C13.3603 21.5161 18.6839 15.4303 19.4414 14.5574C19.8427 14.0286 19.2642 13.3123 18.6707 13.6554C17.9047 14.3792 16.1327 16.5582 15.2186 17.5614C14.8792 17.9017 14.6373 18.3658 14.2097 18.5449C14.0475 18.5402 14.1422 18.2936 14.1685 18.153C15.1342 15.0487 16.3334 12.0175 17.39 8.94221C17.6685 8.34591 17.0965 7.5649 16.534 8.16214C15.1783 11.1774 14.2257 14.4036 13.0593 17.4948C12.1049 20.1266 12.8718 6.97329 12.5802 6.48387C12.4977 6.21947 12.1892 6.02164 11.9061 6.09009C11.5151 6.18009 11.3904 6.55231 11.4101 6.91703C11.4045 10.4939 11.4476 14.0802 11.3942 17.6551C11.3473 17.9824 11.2001 17.9786 11.067 17.6973C9.95593 14.6811 8.89927 11.6415 7.78261 8.62156C7.60822 7.95306 6.82628 7.64272 6.5572 8.40779C6.67439 9.48882 8.48299 13.8045 9.41869 16.6435C9.74591 17.6973 10.0281 18.018 10.0337 18.5815C9.91467 19.0465 9.41776 18.1268 9.15992 17.9214C7.80512 16.4841 6.10059 14.1955 5.24364 13.602C4.35482 13.4117 4.32388 14.3764 4.86955 14.8687C6.98192 17.2857 9.12992 19.6813 11.2104 22.1171C11.321 22.2502 11.4814 22.6412 11.2592 22.5746C9.27149 21.5977 5.90839 19.9325 3.70414 18.8412C2.41684 18.1699 1.7399 17.9374 1.32831 17.6223C0.662623 16.7251 0.342908 15.3918 0.150704 14.337C-2.12199 -2.45691 22.2026 -5.39622 23.9887 11.2149V11.2318V11.2308Z" fill="#162847"/>
<path d="M23.9915 11.5759L23.9596 11.5197L23.9915 11.4822V11.5759Z" fill="#162847"/>
<path d="M23.9915 12.9795L23.9596 12.9232L23.9915 12.8857V12.9795Z" fill="#162847"/>
<path d="M5.00821 20.9329L9.40359 23.108C9.40359 23.1456 9.2742 23.1643 9.23389 23.1718C8.54664 23.3087 7.13089 23.5384 6.49428 23.3518C5.85766 23.1652 5.00821 22.3411 5.00821 21.6576V20.9329Z" fill="#162847"/>
<path d="M19.0354 21.6586C18.9416 22.4021 18.2563 23.1447 17.5493 23.3528C16.9127 23.5403 15.4979 23.3097 14.8097 23.1728C14.7694 23.1643 14.64 23.1465 14.64 23.109L19.0354 20.9338C19.0148 21.1645 19.0635 21.4345 19.0354 21.6586Z" fill="#162847"/>
</svg>
