<svg width="12" height="25" viewBox="0 0 12 25" fill="none" xmlns="http://www.w3.org/2000/svg">
<path d="M7.30523 4.8249L8.3641 4.83922C8.45227 4.84041 8.54125 4.84693 8.62737 4.86759C9.16898 4.99541 9.37961 5.42534 9.50724 5.66984C9.60621 5.85991 9.91347 6.98225 9.64274 6.97859L2.51027 6.88213C2.23954 6.87847 2.57615 5.76483 2.68112 5.57752C2.68934 5.56257 2.69845 5.54763 2.70757 5.5318C2.99639 5.0537 3.52749 4.7738 4.08854 4.78139L4.90518 4.79244C4.99503 4.07595 5.00781 3.39476 5.06789 2.70622C5.1048 2.28231 5.12329 1.57372 5.2388 1.1996C5.43162 0.57577 6.13488 0.276051 6.69063 0.676086C7.04966 0.934351 7.01855 1.32468 7.05748 1.73899C7.14243 2.63682 7.20704 3.39172 7.26998 4.46734C7.2757 4.57109 7.29055 4.72457 7.30612 4.82491L7.30523 4.8249Z" fill="#E2BD17"/>
<path d="M9.5011 7.57465C7.16849 7.56083 4.81529 7.42267 2.52244 7.49888C1.6331 7.52849 0.919326 7.68276 0.789915 8.82135L0.590916 22.8767C0.672403 23.8985 1.32078 24.2325 2.00724 24.3197C4.56197 24.4411 7.19442 24.6105 9.60989 24.4252C9.79446 24.4109 9.97322 24.3654 10.139 24.2932C10.7429 24.0312 11.1208 23.4222 11.1296 22.7667L11.3173 9.08866C11.3312 8.06103 10.4548 7.66109 9.50108 7.57554L9.5011 7.57465ZM9.80152 16.2496C9.66702 16.3815 9.48982 16.3118 9.35473 16.2231C9.06249 16.0322 7.77665 14.4908 7.61685 14.517C7.45783 14.6841 6.41048 15.5959 6.42937 15.714C6.67111 16.0832 8.19673 17.3478 8.19326 17.6703C8.19002 17.9759 7.85311 18.0573 7.62457 17.8983L5.91846 16.1483C5.54896 16.4003 4.33303 17.8564 4.01265 17.9017C3.70387 17.9454 3.57179 17.6353 3.70263 17.3783C3.89292 17.139 5.44152 15.783 5.42014 15.6516L4.27376 14.4674C4.15354 14.4658 2.84642 15.9464 2.54733 16.1302C2.16469 16.366 1.92977 16.0855 2.05705 15.6974L3.7748 14.0185C3.63938 13.625 2.54447 13.0485 2.83216 12.5881C3.15537 12.0706 4.02156 13.3573 4.28637 13.5354L5.53458 12.3269C5.35665 12.0472 4.14861 11.2077 4.58234 10.8822C5.06286 10.5219 5.63236 11.6832 6.03296 11.8313C6.40826 11.6113 6.94233 10.6501 7.42181 10.8931C7.97295 11.1726 6.63778 12.0929 6.46966 12.3396L7.62867 13.5115C8.01426 13.3865 8.6653 12.2071 9.09991 12.6064C9.50285 12.9769 8.31162 13.7263 8.11436 14.0205L9.82679 15.7644C9.92862 15.8747 9.89814 16.1525 9.80064 16.2487L9.80152 16.2496Z" fill="#E2BD17"/>
<path d="M5.97285 12.836C6.09961 12.8156 6.99489 13.8617 7.17995 14.0086L5.93174 15.2172C5.79 15.0283 4.76206 14.1097 4.78601 13.9851L5.97285 12.836Z" fill="#E2BD17"/>
</svg>
