<svg width="24" height="22" viewBox="0 0 24 22" fill="none" xmlns="http://www.w3.org/2000/svg">
<path d="M9.29472 0.20619C11.751 -0.00246058 14.9348 1.40187 16.7597 3.00405C19.7132 5.59759 22.2375 11.2798 19.2937 14.7058C18.1889 15.9912 16.8894 17.1025 15.1867 15.9415L5.25361 5.90137C3.01467 3.27865 6.80389 0.417002 9.29472 0.20619Z" fill="#81582F"/>
<path d="M3.84808 5.36531C3.95835 5.70045 4.15944 6.04964 4.38214 6.32207C5.6708 7.89398 7.51838 9.48318 8.97029 10.9621C10.3217 12.3394 11.6579 13.76 13.0179 15.1286C13.7757 15.8919 14.5563 16.8757 15.6071 17.1816C15.6298 17.267 15.5844 17.2746 15.552 17.3222C14.4374 18.9481 11.379 20.4314 9.48489 20.8206C7.36811 21.2541 2.68267 21.2141 1.29347 19.2584C-0.721685 16.4205 -0.161681 11.1664 1.47617 8.25398C1.89239 7.51452 3.03294 5.88639 3.70754 5.42152C3.75511 5.38909 3.76268 5.3426 3.84808 5.36639V5.36531Z" fill="#81582F"/>
<path d="M18.9326 4.01067L17.6894 2.52525C19.2072 1.6074 21.3121 1.31335 23.0462 1.66903C23.6937 1.802 24.0559 2.0993 23.9943 2.8085C23.884 4.0658 22.3089 3.45283 21.5445 3.4485C21.3337 3.4485 20.9726 3.48418 20.7564 3.50904C20.124 3.58364 19.5218 3.7804 18.9326 4.01067Z" fill="#81582F"/>
</svg>
