<svg width="24" height="24" viewBox="0 0 24 24" fill="none" xmlns="http://www.w3.org/2000/svg">
<path d="M5.2764 15.1484C6.60922 16.1827 7.84015 17.3619 8.83569 18.7234C8.10406 19.4933 7.33677 20.2328 6.46656 20.8466C5.59636 21.4605 4.3746 22.1686 3.33219 22.3125C0.374096 22.7207 1.87403 19.395 2.70857 18.069C3.39129 16.985 4.28901 15.9568 5.27742 15.1484H5.2764Z" fill="#A08B40"/>
<path d="M15.4654 4.96387C16.8359 5.97182 18.0597 7.18642 19.0716 8.54892C18.1596 9.52547 16.9643 10.1181 15.8964 10.8839C15.2769 11.3276 14.7287 11.8503 14.1234 12.3102L11.683 9.84153C13.1931 8.40102 13.9889 6.42565 15.4644 4.96387H15.4654Z" fill="#A08B40"/>
<path d="M11.0631 10.5127C11.9812 11.1934 12.8036 12.0109 13.4893 12.9247C12.9085 13.5669 12.288 14.1768 11.7357 14.8433C10.8971 15.8543 10.2154 16.9808 9.40323 18.011C8.37202 16.7508 7.22771 15.5899 5.94788 14.5759C6.61429 14.0147 7.38463 13.5953 8.08569 13.0797C9.14339 12.3017 10.1012 11.4011 11.0642 10.5137L11.0631 10.5127Z" fill="#A08B40"/>
<path d="M20.9401 1.61861C22.972 1.48996 22.4788 3.52409 21.9408 4.74376C21.4028 5.96343 20.5672 7.01089 19.6919 7.94083C19.3893 7.57007 19.1019 7.17803 18.7819 6.82247C18.2928 6.27949 17.6906 5.68789 17.1475 5.19759C17.0018 5.0659 16.1132 4.41149 16.1326 4.30006C16.1581 4.15621 17.6784 3.02164 17.9117 2.86867C18.7178 2.34191 19.9711 1.67939 20.9412 1.61861H20.9401Z" fill="#A08B40"/>
<path d="M10.3397 9.91522C10.3611 9.99322 10.3183 10.0044 10.2877 10.0489C10.1583 10.2363 9.70283 10.6426 9.51126 10.8219C8.21105 12.0365 6.71111 12.9836 5.26416 14.0098L2.41001 12.3647C2.34683 12.2766 2.69124 12.0567 2.76767 12.002C3.60832 11.4064 4.42453 11.22 5.33957 10.83C6.48082 10.3437 7.52222 9.63867 8.43726 8.81104L10.3397 9.91623V9.91522Z" fill="#A08B40"/>
<path d="M12.0354 2.83643C13.0055 3.27607 13.9328 3.82107 14.7877 4.45421C13.2949 5.91497 12.5419 7.95924 10.9584 9.32984C10.779 9.13636 9.0855 8.24085 9.11097 8.13449C9.12422 8.07776 9.77025 7.39397 9.88132 7.24709C10.079 6.98573 10.3022 6.66866 10.4581 6.38197C11.0766 5.24335 11.1632 3.83728 12.0365 2.83744L12.0354 2.83643Z" fill="#A08B40"/>
<path d="M0.801113 20.4627L0.386389 19.6239C-0.362559 17.5685 -0.0120309 15.0461 1.36868 13.329C1.43594 13.246 1.67234 12.9532 1.73654 12.9512C2.72698 13.4172 3.67565 13.9774 4.55197 14.6297C2.86352 16.2232 1.28309 18.1358 0.801113 20.4627Z" fill="#A08B40"/>
<path d="M11.0326 22.2688C10.6851 22.4988 10.3723 22.7733 10.0136 22.9891C8.04596 24.1723 5.50055 24.2746 3.47992 23.1532C5.82764 22.671 7.74332 21.0796 9.34719 19.3979C10.0105 20.2874 10.5853 21.2538 11.0316 22.2688H11.0326Z" fill="#A08B40"/>
<path d="M20.5224 0.856932C18.5639 1.20946 16.8796 2.4737 15.4469 3.78049L12.5907 2.18803C12.5693 2.108 12.6121 2.0999 12.6437 2.05533C12.7598 1.88818 13.1409 1.58225 13.3162 1.44448C15.1524 0.00802646 17.6601 -0.351594 19.8397 0.496299C20.0588 0.581392 20.3706 0.688772 20.5224 0.855919V0.856932Z" fill="#A08B40"/>
<path d="M23.2023 3.521L23.5773 4.2919C24.5117 6.70794 23.8789 9.71051 21.8898 11.4053L20.2136 8.60734C21.5852 7.19216 22.8039 5.4832 23.2023 3.521Z" fill="#A08B40"/>
<path d="M14.0734 13.7821C13.9949 13.7619 13.9847 13.8044 13.9399 13.8358C13.7534 13.9675 13.353 14.4274 13.1767 14.6209C11.9774 15.9338 11.0511 17.4421 10.0433 18.8978L11.7481 21.7069C11.8378 21.7677 12.0528 21.4213 12.1068 21.3443C12.6917 20.4984 12.8649 19.6839 13.2419 18.7672C13.7117 17.6245 14.4025 16.577 15.2187 15.6532L14.0744 13.7811L14.0734 13.7821Z" fill="#A08B40"/>
<path d="M21.1633 11.9739C20.7048 11.0166 20.1403 10.1049 19.4892 9.26709C18.0463 10.7765 16.0032 11.5595 14.6521 13.1581C14.8498 13.3323 15.7801 15.0007 15.8871 14.9734C15.9441 14.9592 16.6197 14.3048 16.7654 14.1924C17.0253 13.9918 17.3401 13.7639 17.6254 13.6048C18.7606 12.9697 20.1719 12.8602 21.1623 11.9739H21.1633Z" fill="#A08B40"/>
</svg>
