<svg width="24" height="25" viewBox="0 0 24 25" fill="none" xmlns="http://www.w3.org/2000/svg">
<path d="M6.60735 0.479463C3.24182 0.791744 0.51316 4.35357 0.158618 7.53518C0.0732648 8.29563 -0.00158258 9.45982 0.00104366 10.2177C0.00892238 12.3252 1.40214 13.202 3.38758 13.0961C4.64949 13.0282 6.02301 12.9994 7.22451 12.6101C9.64459 11.8235 12.041 9.71723 12.6031 7.17325C13.4251 3.45854 10.3878 0.12929 6.60735 0.479463ZM4.79524 4.37971C4.75322 4.51167 4.23717 5.0108 4.09929 5.19634C3.56091 5.92412 3.13415 6.91454 3.02384 7.81479C2.98051 8.16235 3.14728 8.61967 2.74284 8.82089C2.37122 9.00512 2.10072 8.74902 2.06527 8.37533C1.97466 7.41366 2.4789 6.06132 2.95688 5.23293C3.14071 4.91411 3.91677 3.78781 4.24373 3.71595C4.6705 3.62187 4.92262 3.98642 4.79524 4.37971Z" fill="#CAABD5"/>
<path d="M12.1133 12.6664C8.81996 12.9447 6.32241 16.3876 6.11362 19.4987C6.07292 20.105 6.02302 20.9242 6.0217 21.52C6.01908 22.9547 6.84109 24.0509 8.33017 24.1685C9.02481 24.2234 10.4246 24.1359 11.1402 24.0548C13.9109 23.7386 16.8602 21.588 17.4892 18.801C18.2416 15.4652 15.5234 12.3789 12.112 12.6677L12.1133 12.6664ZM14.8446 19.9116C14.6095 20.2199 14.037 20.9177 13.6719 20.3611C13.3975 19.9416 13.7744 19.7626 13.9766 19.4961C14.6725 18.5736 15.0875 17.6355 14.4178 16.5444C14.2445 16.2609 13.6811 15.8193 14.1066 15.4612C14.6988 14.9647 15.3987 16.2635 15.5353 16.7182C15.8806 17.8602 15.5484 18.9891 14.8446 19.9116Z" fill="#CAABD5"/>
<path d="M19.4156 2.71517C16.8366 3.00524 15.0665 5.80793 14.8748 8.20295C14.7514 9.75913 14.6581 11.6407 16.7013 11.8131C17.1793 11.8536 18.1129 11.7935 18.6132 11.7543C20.6906 11.5897 22.8953 10.2021 23.6845 8.24738C24.8716 5.3088 22.5592 2.36108 19.4156 2.71387V2.71517ZM21.3682 5.94382C20.9296 6.18815 20.7746 5.78441 20.4779 5.64983C20.0721 5.4656 19.6887 5.55053 19.3131 5.74521C18.9862 5.91376 18.3532 6.67683 18.0197 6.08362C17.8188 5.72692 18.0604 5.51786 18.302 5.29704C18.6592 4.9717 19.2685 4.66725 19.7504 4.61499C20.2796 4.5575 20.835 4.70907 21.25 5.04748C21.5323 5.27744 21.7752 5.71516 21.3669 5.94382H21.3682Z" fill="#CAABD5"/>
</svg>
