<svg width="24" height="19" viewBox="0 0 24 19" fill="none" xmlns="http://www.w3.org/2000/svg">
<path d="M0.0300978 3.77813C0.0611961 2.67648 0.675906 2.26529 1.5394 1.72528C3.86452 0.276342 6.56489 -0.0235463 8.61323 2.02414C8.91903 2.32197 9.19269 2.65174 9.42075 3.00007C9.59179 3.25152 9.71203 3.54935 9.91417 3.69156C10.0997 3.83481 10.3703 3.83274 10.6087 3.82553C10.8523 3.81935 11.0959 3.83171 11.3385 3.8616C12.995 4.03473 14.4732 5.12917 15.2113 6.608C15.3813 6.94705 15.7202 7.05731 16.0789 7.03464C16.7662 7.02743 17.4607 7.15728 18.1044 7.39945C18.2527 7.45407 18.6777 7.61896 18.3159 7.69728C17.5136 7.8127 16.7092 7.96625 15.9566 8.27644C15.8488 8.3187 15.7368 8.35889 15.6259 8.38465C15.3139 8.46606 15.0039 8.38156 14.7137 8.25274C12.9784 7.49632 11.0119 7.5427 9.29843 8.36919C8.79153 8.61652 8.30847 8.25686 7.82851 8.10125C6.23939 7.55197 4.4927 7.553 2.95748 8.27129C2.67656 8.40114 2.40912 8.56191 2.15204 8.72988C1.81203 8.98031 1.4544 9.03493 1.1797 8.66599C0.101624 7.30361 -0.0797829 5.46615 0.0280245 3.79564V3.77607L0.0300978 3.77813Z" fill="#375C0B"/>
<path d="M0.132843 4.93991V4.61426C0.210589 4.673 0.210589 4.88117 0.132843 4.93991Z" fill="#375C0B"/>
<path d="M5.42358 18.4403H5.09601C5.1551 18.363 5.36449 18.363 5.42358 18.4403Z" fill="#375C0B"/>
<path d="M0.132843 3.86912V3.58984C0.209552 3.63725 0.208516 3.82481 0.132843 3.86912Z" fill="#375C0B"/>
<path d="M19.0021 18.4401H18.7212C18.7688 18.3638 18.9575 18.3649 19.0021 18.4401Z" fill="#375C0B"/>
<path d="M6.17303 18.3927V18.4391H5.93875C5.97918 18.3628 6.09735 18.3958 6.17303 18.3927Z" fill="#375C0B"/>
<path d="M11.6971 18.4401H11.4629V18.3937C11.5375 18.3999 11.6567 18.3628 11.6971 18.4401Z" fill="#375C0B"/>
<path d="M12.6808 18.3927V18.4391H12.4466C12.487 18.3628 12.6052 18.3958 12.6808 18.3927Z" fill="#375C0B"/>
<path d="M23.9956 13.3389C23.8795 12.6186 23.3995 11.9322 22.9963 11.2974C21.4559 8.81072 18.4974 7.91209 15.909 9.35382C15.541 9.54756 15.1927 9.63516 14.8143 9.46099C13.1817 8.44797 11.0711 8.39541 9.42705 9.41565C9.04558 9.63 8.65167 9.57848 8.26812 9.36103C7.91568 9.17656 7.5425 9.01889 7.15895 8.9045C3.86357 7.86984 1.30418 10.1793 0.205371 13.1287C-0.0475617 13.9191 0.377448 14.7034 0.76825 15.3742C1.38296 16.4069 2.21328 17.3972 3.26959 17.9599C4.33004 18.5494 5.59574 18.4906 6.76193 18.3639C7.21078 18.3031 7.6503 18.1577 8.05666 17.9547C8.44849 17.7404 8.88076 17.4941 9.31821 17.7342C9.80853 18.0052 10.3248 18.2835 10.8866 18.3556C11.6485 18.471 12.4778 18.4721 13.2387 18.3618C13.6222 18.3031 14.0058 18.1742 14.352 17.9908C14.6391 17.8434 14.9408 17.6136 15.2694 17.6311C15.4798 17.6353 15.7151 17.7527 15.9225 17.8671C16.307 18.0774 16.7279 18.2309 17.1581 18.3247C18.288 18.5442 19.5267 18.5133 20.5841 18.0011C21.8477 17.3982 22.8387 16.2244 23.4918 15.0033C23.754 14.5003 24.0443 13.9356 23.9956 13.3595L23.9935 13.342L23.9956 13.3389ZM6.01246 15.5855C3.14105 16.2966 2.38122 11.6952 5.36043 11.4664C7.02834 11.2737 8.07635 13.1174 7.38908 14.5292C7.1631 15.0228 6.63857 15.4402 6.03527 15.5804L6.01246 15.5855ZM12.5669 15.5855C9.69554 16.2966 8.9357 11.6952 11.9149 11.4664C13.5828 11.2737 14.6308 13.1174 13.9436 14.5292C13.7176 15.0228 13.1931 15.4402 12.5898 15.5804L12.5669 15.5855ZM19.1225 15.5855C16.2511 16.2966 15.4912 11.6952 18.4704 11.4664C20.1383 11.2737 21.1864 13.1174 20.4991 14.5292C20.2731 15.0228 19.7486 15.4402 19.1453 15.5804L19.1225 15.5855Z" fill="#375C0B"/>
<path d="M5.36454 12.865C6.3628 12.7042 6.50689 14.0893 5.67034 14.2398C4.69075 14.4149 4.50726 13.0041 5.36454 12.865Z" fill="#375C0B"/>
<path d="M11.92 12.865C12.9182 12.7042 13.0623 14.0893 12.2258 14.2398C11.2462 14.4149 11.0627 13.0041 11.92 12.865Z" fill="#375C0B"/>
<path d="M18.4745 12.865C19.4728 12.7042 19.6168 14.0893 18.7803 14.2398C17.8007 14.4149 17.6172 13.0041 18.4745 12.865Z" fill="#375C0B"/>
</svg>
