<svg width="18" height="25" viewBox="0 0 18 25" fill="none" xmlns="http://www.w3.org/2000/svg">
<path d="M11.8118 0.976767C12.5472 1.23403 12.8662 2.21564 12.3674 2.87352C12.1175 3.23047 11.4824 3.34629 11.0697 3.37002C9.57618 3.45451 8.13185 3.43268 6.64777 3.34439C6.3695 3.32635 6.05811 3.27129 5.82527 3.10896C5.00373 2.5517 5.29524 1.141 6.25592 0.94354C6.86735 0.920756 10.3353 0.94354 11.5979 0.935945C11.6707 0.935945 11.7275 0.945439 11.8014 0.972969L11.8118 0.976767Z" fill="#969D9E"/>
<path d="M11.2202 4.12402C11.2808 4.14301 11.2864 4.23035 11.2931 4.28541C11.3953 5.15499 11.2325 6.24387 11.2883 7.14858C11.3527 8.19569 11.7086 9.2314 12.038 10.2159C11.065 10.401 10.18 9.67379 9.34426 9.28552C8.41103 8.85167 7.40113 8.59441 6.38461 8.90389C6.49914 8.33999 6.67234 7.77134 6.71115 7.1932C6.77267 6.2733 6.60609 5.17113 6.70926 4.28541C6.71494 4.23794 6.73008 4.12402 6.78214 4.12402H11.2211H11.2202Z" fill="#969D9E"/>
<path d="M17.5976 21.4406C17.5266 20.6659 16.7098 19.6853 16.299 18.9932C14.795 16.4595 13.4255 13.8042 12.3417 11.0597C12.2499 10.9477 12.0824 11.0549 11.9669 11.0597C10.5406 11.11 9.87048 10.3477 8.67318 9.86543C7.79863 9.51323 7.00643 9.49899 6.1139 9.80372C5.03017 12.9052 3.52811 15.906 1.8604 18.7302C1.43543 19.4498 0.476647 20.664 0.404715 21.4406C0.238134 23.2471 1.46951 24.7737 3.2754 24.9332H14.7259C16.5299 24.7775 17.7632 23.2453 17.5966 21.4406H17.5976ZM8.65993 14.5845C9.27041 14.4023 9.42658 15.1997 8.95618 15.3506C8.38451 15.5339 8.27187 14.7004 8.65993 14.5845ZM5.52518 21.7396C5.08128 21.6903 3.8783 21.0988 4.39603 20.57C4.76137 20.197 5.01882 20.721 5.33873 20.8482C5.72489 21.002 6.35525 20.9498 6.58051 20.5587C6.97709 19.8685 5.50531 19.7726 5.09927 19.6359C3.04919 18.9495 4.44146 16.4034 6.50385 17.1496C6.85499 17.2768 7.61123 17.854 7.14935 18.2224C6.77833 18.5195 6.61175 18.1255 6.33537 17.9746C5.98233 17.7819 5.47218 17.798 5.14754 18.042C4.95256 18.1882 4.82763 18.4749 4.99705 18.6847C5.16647 18.8935 6.27101 19.0492 6.61742 19.1907C8.28229 19.8704 7.32255 21.938 5.52518 21.7387V21.7396ZM7.43518 12.6546C6.96194 12.6498 6.87771 11.8846 7.40206 11.8172C7.96237 11.746 8.03147 12.6593 7.43518 12.6546ZM11.1056 20.4106C10.9542 22.1697 8.20467 22.1592 8.02011 20.4561C7.969 19.9853 7.96995 18.2869 8.13747 17.9015C8.35895 17.3917 8.91454 17.0566 9.46066 17.0234C10.2283 16.9778 11.0176 17.5009 11.1047 18.2993C11.1596 18.8062 11.1501 19.8941 11.1056 20.4096V20.4106ZM10.7289 14.3178C10.3759 13.9191 10.9476 13.4017 11.3224 13.7463C11.7237 14.1146 11.0943 14.7307 10.7289 14.3178ZM13.8372 22.4943C13.8504 22.4943 14.0426 22.6092 14.0681 22.6377C14.2915 22.8779 14.1363 23.2652 13.8258 23.3278C13.5731 23.3791 12.3304 23.3772 12.0644 23.3354C11.4284 23.2367 11.683 22.314 11.9452 21.9561C12.3152 21.4501 12.7629 21.4719 13.1756 21.1748C13.6223 20.8529 13.1898 20.1979 12.6967 20.4599C12.4023 20.6166 12.568 21.1216 12.2395 21.2194C11.5032 21.4387 11.5988 20.4352 11.9679 20.0109C12.8775 18.9657 14.6171 19.9596 14.0842 21.3371C13.8618 21.9124 13.2844 21.9656 12.8358 22.2409C12.744 22.2969 12.5897 22.3709 12.5982 22.4943H13.8362H13.8372Z" fill="#969D9E"/>
<path d="M9.36232 17.8663C9.83367 17.7856 10.2549 17.9793 10.3088 18.4872C10.3476 18.8489 10.3571 20.0574 10.288 20.3877C10.1309 21.1358 8.90517 21.1253 8.81337 20.2681C8.77361 19.896 8.76509 18.8052 8.82472 18.4511C8.87299 18.1644 9.06608 17.9166 9.36232 17.8654V17.8663Z" fill="#969D9E"/>
</svg>
