<svg width="20" height="25" viewBox="0 0 20 25" fill="none" xmlns="http://www.w3.org/2000/svg">
<path d="M2.79377 24.4111C2.45316 24.3541 1.9385 23.7065 1.72515 23.4267C0.0866587 21.2764 -0.301676 18.3783 0.738873 15.8714L11.4737 15.8228L11.5477 15.8527C11.6993 16.7248 11.9772 17.5876 12.475 18.3222C10.0654 19.359 9.59851 22.679 11.543 24.4111H2.79377Z" fill="#5D5F34"/>
<path d="M9.86338 5.23267C9.96537 6.91984 9.56768 8.83908 10.3125 10.4065C10.6803 11.1813 11.2876 11.8167 12.0128 12.264C11.7742 12.9686 11.5739 13.6816 11.4963 14.4256H1.5577C1.67467 14.1635 1.90206 13.894 2.09388 13.6779C3.25982 12.3631 4.81784 11.9477 5.53275 10.2109C5.62445 9.98725 5.8509 9.29479 5.8509 9.08237V5.23267H9.86338Z" fill="#5D5F34"/>
<path d="M17.5543 19.2429C19.1217 19.2008 20.0893 20.5399 19.7805 22.0333C19.4015 23.8656 17.006 25.2842 15.4152 23.9685C13.5082 22.3927 15.2964 19.3037 17.5543 19.2429Z" fill="#5D5F34"/>
<path d="M15.2755 12.9322C14.8077 12.4971 14.3781 12.0367 13.8364 11.6877L13.8176 7.83327C13.739 7.36539 13.1149 6.72533 12.6386 6.72533H11.2621V5.32544H12.8257C13.9533 5.32544 15.2755 6.85634 15.2755 7.96147V12.9313V12.9322Z" fill="#5D5F34"/>
<path d="M15.6968 18.3445C15.5733 18.2519 15.7258 17.2291 15.7642 17.0363C15.9981 15.8797 16.7037 14.6015 17.6085 13.8407C18.0755 13.4486 18.4694 13.2774 18.5415 14.0756C18.6622 15.4137 18.2935 16.7958 17.4691 17.8551C16.8515 17.9178 16.2517 18.0685 15.6959 18.3445H15.6968Z" fill="#5D5F34"/>
<path d="M14.3418 18.4849C13.2489 17.3901 12.7333 15.6599 12.9485 14.128C13.0777 13.2091 13.2976 13.007 13.9937 13.7257C14.3737 14.1177 14.689 14.6333 14.9417 15.1143C14.4934 16.1923 14.2717 17.3115 14.3428 18.4859L14.3418 18.4849Z" fill="#5D5F34"/>
<path d="M13.5494 23.758C11.5207 23.8216 11.0958 20.6372 12.7081 19.767C12.8728 19.6781 13.2555 19.5415 13.4324 19.5583C13.4848 19.563 13.9077 19.9167 13.9162 19.9616C13.9237 20 13.6102 20.5446 13.5606 20.6653C13.161 21.6581 13.1591 22.7605 13.5494 23.7571V23.758Z" fill="#5D5F34"/>
<path d="M10.3517 2.56119H9.8473C9.84823 2.54341 9.8501 2.52469 9.8501 2.50598V1.23241C9.8501 0.817871 9.51417 0.481934 9.09963 0.481934H6.71255C6.29801 0.481934 5.96208 0.817871 5.96208 1.23241V2.50598C5.96208 2.52469 5.96395 2.54247 5.96489 2.56119H5.46052C5.03382 2.56119 4.68853 2.90648 4.68853 3.33319C4.68853 3.75989 5.03382 4.10519 5.46052 4.10519H10.3535C10.7802 4.10519 11.1255 3.75989 11.1255 3.33319C11.1255 2.90648 10.7802 2.56119 10.3535 2.56119H10.3517Z" fill="#5D5F34"/>
</svg>
