<svg width="24" height="23" viewBox="0 0 24 23" fill="none" xmlns="http://www.w3.org/2000/svg">
<path d="M22.0345 18.3897L22.8947 14.3335H1.10109L1.99817 18.5703C2.47743 20.8323 4.47104 22.4526 6.78415 22.4582L16.9724 22.4819C19.4151 22.4875 21.5278 20.7804 22.0354 18.3897H22.0345Z" fill="#E7CAA1"/>
<path d="M0.87043 10.1054L23.0658 10.095C23.6395 10.1942 23.8995 10.5534 23.9553 11.1159C24.0394 11.9562 24.1254 13.411 23.0015 13.4857L0.930929 13.4791C0.311766 13.3676 0.0886785 12.9875 0.037633 12.3911C-0.0294823 11.6122 -0.119285 10.2727 0.87043 10.1063V10.1054Z" fill="#E7CAA1"/>
<path d="M8.63311 8.77337L6.34268 1.03053C6.1177 0.268629 5.31799 -0.166203 4.55609 0.0597209L2.67497 0.616495C1.91307 0.841473 1.47824 1.64213 1.70416 2.40309L3.72802 9.24696L8.68983 9.24412C8.69644 9.0891 8.67943 8.93029 8.63311 8.77337ZM4.43793 2.41348L3.86603 3.40414C3.72707 3.64519 3.41891 3.72743 3.17786 3.58847C2.93681 3.44952 2.85457 3.14135 2.99353 2.90031L3.56543 1.90965C3.70439 1.6686 4.01255 1.58636 4.2536 1.72532C4.49465 1.86427 4.57689 2.17244 4.43793 2.41348ZM5.957 6.8516L5.59307 7.93679C5.50516 8.20053 5.21968 8.34232 4.95595 8.25441C4.69221 8.1665 4.55042 7.88102 4.63833 7.61729L5.00226 6.5321C5.09018 6.26836 5.37565 6.12657 5.63939 6.21448C5.90312 6.30239 6.04492 6.58787 5.957 6.8516ZM5.89651 5.13969C5.63277 5.2276 5.34729 5.08486 5.25938 4.82113L4.89734 3.73499C4.80943 3.47126 4.95216 3.18578 5.2159 3.09787C5.47963 3.00996 5.76511 3.1527 5.85302 3.41643L6.21507 4.50257C6.30298 4.7663 6.16024 5.05178 5.89651 5.13969Z" fill="#E7CAA1"/>
<path d="M13.3208 1.08716H11.3593C10.5653 1.08716 9.92156 1.7309 9.92156 2.52494V9.24309L14.7595 9.2412V2.52494C14.7595 1.7309 14.1158 1.08716 13.3218 1.08716H13.3208ZM11.7129 2.5117C12.0229 2.5117 12.2734 2.76315 12.2734 3.07226C12.2734 3.38137 12.022 3.63281 11.7129 3.63281C11.4038 3.63281 11.1523 3.38137 11.1523 3.07226C11.1523 2.76315 11.4038 2.5117 11.7129 2.5117ZM11.7129 8.48875C11.3669 8.48875 11.0852 8.208 11.0852 7.86108C11.0852 7.51416 11.366 7.23341 11.7129 7.23341C12.0598 7.23341 12.3405 7.51416 12.3405 7.86108C12.3405 8.208 12.0598 8.48875 11.7129 8.48875ZM13.8814 5.68314C13.7159 6.08205 13.2754 6.27867 12.8964 6.1227C12.5173 5.96673 12.3443 5.51583 12.5088 5.11597C12.6733 4.71611 13.1147 4.52044 13.4938 4.67641C13.8729 4.83238 14.0458 5.28329 13.8814 5.68314Z" fill="#E7CAA1"/>
<path d="M21.3737 3.35317L19.5134 2.73212C18.76 2.48067 17.9451 2.88715 17.6937 3.64054L15.823 9.24136L20.9237 9.23853L22.2821 5.17285C22.5335 4.41946 22.1271 3.60462 21.3737 3.35317ZM18.293 7.95388H17.7287V7.41885H18.293V7.95388ZM19.1409 4.35801H18.5766V3.82298H19.1409V4.35801ZM19.5124 6.17674H20.0767V6.71178H19.5124V6.17674ZM20.3594 8.48891H19.795V7.95388H20.3594V8.48891ZM21.3699 5.6748H20.8056V5.13977H21.3699V5.6748Z" fill="#E7CAA1"/>
</svg>
