<svg width="24" height="23" viewBox="0 0 24 23" fill="none" xmlns="http://www.w3.org/2000/svg">
<path d="M0.0107953 8.67866V8.44505C0.0306773 8.41125 0.0237186 8.38739 0.0107953 8.3516C0.0356478 7.94104 -0.0230041 7.49369 0.0107953 7.0881C0.0127835 4.3593 1.97116 1.88201 4.48822 0.962464C7.34128 -0.0793516 10.253 1.0072 11.9867 3.39403C14.467 -0.0634461 19.3251 -0.432257 22.22 2.80155C23.7588 4.52034 24.1127 6.3803 23.9716 8.63989C23.7509 12.1769 20.8123 14.8689 18.347 17.1027C16.8131 18.4934 15.2493 19.8881 13.6429 21.2053C12.9957 21.7361 11.9937 22.5374 11.1676 21.8505C9.24399 20.25 7.34625 18.6087 5.46144 16.9625C3.02192 14.8301 0.246397 12.0606 0.00980117 8.67866H0.0107953Z" fill="#960313"/>
</svg>
