<svg width="16" height="25" viewBox="0 0 16 25" fill="none" xmlns="http://www.w3.org/2000/svg">
<path d="M7.81113 24.8105C7.5885 24.7119 7.43218 24.6039 7.34123 24.3661L5.47205 19.3137L11.0265 14.6934C11.3591 14.826 11.7892 14.7853 12.1075 14.88C12.1615 14.8961 12.1909 14.8478 12.17 14.9444L8.67893 24.3424C8.56241 24.5869 8.42409 24.692 8.1863 24.8114H7.81113V24.8105Z" fill="#E75E83"/>
<path d="M3.51003 2.67215C7.65198 -1.46222 14.709 1.78351 14.3367 7.59949C14.3197 7.86381 14.169 8.36687 14.1946 8.57718C14.2136 8.73255 14.4987 8.98077 14.6067 9.15319C15.3713 10.3602 15.1012 11.9423 14.0061 12.8451C12.8389 13.8077 11.1308 13.6646 10.1275 12.5439C9.88496 12.7125 9.71633 12.9228 9.45485 13.081C8.28957 13.7849 6.80503 13.549 5.90312 12.5439C5.39058 13.0166 4.79658 13.4126 4.07846 13.4761C1.36232 13.7177 -0.061599 10.5089 1.80474 8.58003C1.32916 6.46926 1.9838 4.19554 3.50908 2.6731L3.51003 2.67215Z" fill="#E75E83"/>
<path d="M8.6562 14.7874L4.90172 17.8787L3.82171 14.8812C4.17413 14.8528 4.52088 14.8149 4.86383 14.7267C5.06467 14.6756 5.85384 14.3184 5.91069 14.3203C5.94384 14.3213 6.40048 14.5581 6.5189 14.6007C7.20765 14.8423 7.93524 14.9712 8.65525 14.7874H8.6562Z" fill="#E75E83"/>
</svg>
