<svg width="24" height="17" viewBox="0 0 24 17" fill="none" xmlns="http://www.w3.org/2000/svg">
<path d="M24 14.0659V14.207C23.5529 15.6822 22.2834 16.7299 20.7416 16.8781L3.34975 16.8807C1.77246 16.7787 0.338878 15.6539 0 14.0899L24 14.0659Z" fill="white"/>
<path d="M13.9224 3.00359C14.5754 1.5434 13.4762 -0.0720331 11.8812 0.0024845C10.4068 0.0707923 9.46468 1.66849 10.0786 3.00359C5.43275 3.81353 1.74058 7.93595 1.50017 12.6598H22.4999C22.2649 7.93418 18.5674 3.81353 13.9215 3.00359H13.9224ZM12.0648 2.81375C11.191 2.89537 11.0189 1.54606 11.8954 1.42009C12.8277 1.28525 12.9883 2.7277 12.0648 2.81375Z" fill="white"/>
</svg>
