<svg width="24" height="22" viewBox="0 0 24 22" fill="none" xmlns="http://www.w3.org/2000/svg">
<path d="M0 17.3423H24V18.1161C24 19.6423 22.1628 21.2221 20.651 21.1417C14.732 21.1015 8.80241 21.2114 2.88976 21.0863C1.72992 20.912 0.757735 20.1641 0.288618 19.0937L0.000893576 18.1867V17.3432L0 17.3423Z" fill="#8D3984"/>
<path d="M5.2738 0.139741C6.32909 0.237139 7.14223 1.01543 7.28966 2.06178C7.3817 1.30494 7.90353 0.574009 8.62642 0.304155C8.77118 0.249649 9.1697 0.139741 9.30552 0.139741H11.1337C11.1391 0.139741 11.2043 0.204971 11.2043 0.210332V1.38178C11.2043 1.9483 10.8255 2.65242 10.3832 2.99822C10.2223 3.12422 10.0239 3.17962 9.8917 3.32705H21.8448V5.20173C20.8601 5.15348 20.1211 5.83526 19.1909 5.99253C18.9881 6.02648 18.7263 6.03006 18.5163 6.04525C18.5234 6.74043 18.5082 7.43741 18.5145 8.13349C18.5172 8.44266 18.611 8.60886 18.5029 8.96181C18.2429 9.81158 17.0535 9.75261 16.84 8.91713L16.8266 5.3447C16.1287 5.21603 15.4577 5.11774 14.7491 5.20709C13.3614 5.39653 12.7368 6.38659 11.1132 5.87905C9.85506 5.48588 9.47441 5.00068 7.95268 5.20709C6.77587 5.36704 6.24599 6.10601 4.89851 5.99968C3.95223 5.92462 3.16144 5.11684 2.15797 5.20084V3.32616H4.64206C4.35969 3.07507 4.04338 2.91512 3.80658 2.59166C3.6243 2.34414 3.37678 1.77673 3.37678 1.47471V0.209438C3.37678 0.204077 3.44201 0.138848 3.44737 0.138848C4.02014 0.138848 4.72069 0.087915 5.27559 0.138848L5.2738 0.139741Z" fill="#8D3984"/>
<path d="M21.8439 10.4985V12.3267C21.0414 12.2419 20.3463 12.7717 19.6305 12.9496C17.9363 13.3704 17.0044 12.2758 15.3986 12.2758C13.7322 12.2758 12.7868 13.4356 11.0175 12.9102C10.661 12.8039 10.3143 12.5895 9.94796 12.4804C9.20273 12.2579 8.27612 12.2419 7.51749 12.4143C6.41037 12.6654 6.09316 13.1524 4.75908 13.0291C3.90216 12.9504 3.0792 12.224 2.15705 12.3267V10.4985H16.2895C16.3136 10.4985 16.6014 10.7192 16.6863 10.7586C17.276 11.0338 17.9569 11.0534 18.5627 10.8023C18.6941 10.7478 19.0265 10.4985 19.056 10.4985H21.8448H21.8439Z" fill="#8D3984"/>
<path d="M21.8439 13.7333V15.9368H2.15705V13.7333C3.06044 13.7913 3.74222 14.3623 4.66526 14.4356C6.0744 14.5464 6.39697 14.2283 7.59612 13.8521C9.35821 13.299 10.0302 14.3436 11.5528 14.4383C11.8378 14.4562 12.2587 14.4588 12.5411 14.4383C13.9993 14.3311 14.5953 13.3321 16.3333 13.8298C17.5682 14.1836 17.8666 14.5518 19.3356 14.4356C20.2578 14.3623 20.944 13.7949 21.8439 13.7333Z" fill="#8D3984"/>
<path d="M15.4219 9.09308H2.15705V6.609C2.68157 6.5804 3.11226 6.92264 3.5644 7.10045C4.56876 7.4963 5.69821 7.52579 6.71597 7.16032C7.07518 7.03165 7.42098 6.79396 7.7936 6.69031C9.46901 6.22656 10.1168 7.30418 11.601 7.40784C12.1783 7.44805 12.8252 7.39086 13.373 7.20679C13.7724 7.07275 14.1852 6.78682 14.5784 6.6778C14.7195 6.63849 15.186 6.55628 15.3102 6.56343C15.3531 6.56611 15.4228 6.60274 15.4228 6.63134V9.09219L15.4219 9.09308Z" fill="#8D3984"/>
<path d="M21.8439 6.6084V9.09249H19.9219C20.0112 8.48398 19.8781 7.88351 19.9281 7.27053C20.5938 7.12667 21.138 6.60662 21.8439 6.6084Z" fill="#8D3984"/>
</svg>
