<svg width="24" height="21" viewBox="0 0 24 21" fill="none" xmlns="http://www.w3.org/2000/svg">
<path d="M24 19.1853L23.803 19.7775C22.8249 21.41 20.2755 21.0557 19.9948 19.0914C19.9366 18.6881 19.9948 18.2409 19.9733 17.8336C19.6681 12.3235 17.4516 7.93742 13.2411 4.38346C12.8082 4.01898 12.2753 3.74026 11.9629 3.26041C11.2635 2.19044 11.7965 0.736593 12.9726 0.289412C14.0885 -0.135307 14.7807 0.475227 15.6098 1.11741C20.6074 4.98889 23.7356 11.1759 23.9918 17.4793L23.999 19.1864L24 19.1853Z" fill="#E7B864"/>
<path d="M8.36093 16.5759C9.36351 16.7648 10.1006 17.6111 10.0476 18.6413C10.0363 18.8659 9.93933 19.5316 9.69124 19.5847L6.32309 19.5918C5.40423 18.187 6.73454 16.2696 8.36297 16.5779H8.36195L8.36093 16.5759Z" fill="#E7B864"/>
<path d="M9.17566 6.96973C9.91484 7.21578 10.4753 8.02744 10.4784 8.79929C10.4825 10.4971 8.53654 11.4875 7.20725 10.4012C7.08371 10.3001 6.84685 10.1255 6.91117 9.95501L9.17668 6.97075L9.17566 6.96973Z" fill="#E7B864"/>
<path d="M18.6175 17.2068C18.3725 13.7304 17.1034 10.6777 14.8869 8.0018C13.7955 6.68272 12.5173 5.5464 11.2074 4.4458L11.0879 4.48664L10.0323 5.9364C11.3789 6.55 12.0517 8.21518 11.7118 9.62717C11.186 11.8069 8.61722 12.883 6.71313 11.6711C6.59878 11.5976 6.04849 11.1147 6.00254 11.13L0.115689 18.7076C-0.104839 19.0517 0.00950916 19.4069 0.293336 19.6622L0.589414 19.7602L4.86928 19.6101C4.28427 17.8214 5.30216 15.8744 7.11437 15.3619C9.68821 14.635 12.0538 17.0526 11.1798 19.5734L18.7237 19.4988C18.6196 18.7423 18.6686 17.9735 18.6155 17.2078H18.6175V17.2068ZM11.2972 14.5165C10.5285 14.9015 9.92609 13.6998 10.6959 13.3139C11.479 12.9218 12.0803 14.1245 11.2972 14.5165ZM13.3075 9.39235C13.1717 8.66951 14.0977 8.27644 14.5704 8.97172C14.7164 9.18714 15.3954 10.5389 15.4413 10.7564C15.5077 11.0718 15.4025 11.4047 15.1034 11.5547C14.8042 11.7048 14.453 11.5905 14.259 11.3138C14.1427 11.1484 13.3351 9.53631 13.3085 9.39133H13.3075V9.39235ZM14.2744 17.1231C11.8312 16.4605 12.7051 12.6941 15.2126 13.2189C17.8794 13.7764 16.8819 17.8306 14.2744 17.1231Z" fill="#E7B864"/>
<path d="M14.8737 14.5132C15.8507 14.6643 15.5271 15.9671 14.7348 15.8548C13.8037 15.722 14.0569 14.3876 14.8737 14.5132Z" fill="#E7B864"/>
</svg>
