<svg width="24" height="21" viewBox="0 0 24 21" fill="none" xmlns="http://www.w3.org/2000/svg">
<path d="M0 11.7008V10.9493C0.277187 9.95008 0.993493 9.29855 2.04319 9.21282L21.9502 9.20996C24.9593 9.61669 23.9972 12.4953 23.1675 14.4213C21.5539 18.1666 18.3915 19.965 14.4309 20.4261C11.0475 20.8204 6.80395 20.4603 3.97588 18.4048C1.75743 16.7921 0.601049 14.3222 0 11.6999V11.7008Z" fill="#9E9E26"/>
<path d="M1.80794 8.55547C1.5641 8.58024 1.26881 8.70026 1.03258 8.77075C0.450583 7.82297 0.486779 6.82853 1.48885 6.21796C2.06227 5.86838 2.52044 5.94553 2.5814 5.10444C2.62046 4.56531 2.43566 4.14619 2.79667 3.62897C3.31485 2.88694 3.98639 2.94314 4.75985 2.86885C5.67904 2.78121 5.6819 2.01156 6.29533 1.54101C6.8659 1.1038 7.77271 1.07332 8.40615 1.39432C9.01577 1.7039 9.27581 2.43068 10.0255 2.40782C10.4189 2.39639 10.7846 2.28685 11.1933 2.36305C11.9724 2.50879 12.5106 3.20699 12.5821 3.97855C12.6364 4.57293 12.4106 5.17112 12.9107 5.62167C13.004 5.70549 13.3517 5.89124 13.3803 5.95029C13.4165 6.02364 13.1898 6.09317 13.1307 6.1227C12.0305 6.66279 10.6446 7.08286 9.61015 7.67152C9.26819 7.86584 8.97767 8.16684 8.87384 8.55547H7.98227C8.01656 7.81917 7.8432 7.08286 7.91178 6.34845L9.60253 5.22256C9.87972 4.99109 9.67016 4.55102 9.30725 4.64246C8.87384 4.75201 8.26041 5.34448 7.84225 5.55023C7.83082 5.47879 7.80129 5.41306 7.79462 5.33972C7.75557 4.90632 7.81177 4.31098 7.73652 3.89472C7.64793 3.40512 7.05736 3.50514 7.04022 3.93092C7.03641 4.02998 7.08784 4.12048 7.08975 4.21287C7.11642 5.30162 7.20977 6.38941 7.2774 7.4753L5.60665 6.72566C5.30851 6.66946 5.06275 6.97522 5.23802 7.23812C5.3447 7.39815 5.91527 7.57055 6.12102 7.66962C6.52394 7.86584 6.91639 8.08302 7.3174 8.28019L7.32502 8.55452H1.8089L1.80794 8.55547Z" fill="#9E9E26"/>
<path d="M19.4403 5.87507C19.3793 4.65392 18.4716 3.8938 17.2637 4.29386C16.2779 4.62058 15.2539 5.2483 14.2718 5.6236C14.2214 5.64836 14.1737 5.64836 14.1194 5.63503C14.0699 5.62264 13.3098 5.09685 13.2936 5.04922C13.3498 3.65376 13.0659 2.19924 11.5485 1.77155C11.0532 1.63153 10.6836 1.66963 10.1874 1.67725C10.7046 0.893312 11.3418 0.500868 12.3115 0.63327C12.8192 0.701853 13.4041 1.14097 13.8727 1.14097C14.2728 1.14097 14.7262 0.771388 15.1044 0.632318C16.0759 0.274165 16.9742 0.562782 17.5305 1.42292C17.7581 1.77441 17.8296 2.22686 18.2972 2.34688C18.9478 2.51262 19.345 2.30973 20.0156 2.74123C21.0263 3.39276 20.7834 4.16622 20.9415 5.14828C21.0167 5.61312 21.7788 5.6436 22.1712 5.79696C23.5019 6.31799 23.6248 7.64011 23.1228 8.83554L22.3693 8.5574C22.2636 7.00763 20.9672 5.90174 19.4412 5.87507H19.4403Z" fill="#9E9E26"/>
<path d="M16.5722 5.36253C16.9761 6.45508 16.857 7.62765 16.1036 8.53161L11.4333 8.55351C11.2837 8.54494 10.9056 7.85054 10.9399 7.80387L16.5732 5.36157L16.5722 5.36253Z" fill="#9E9E26"/>
<path d="M16.9485 8.55558C17.0694 8.23362 17.2447 7.94215 17.3371 7.60686C17.5762 6.73814 17.4743 5.90372 17.179 5.06454C18.062 4.59113 18.6278 4.90833 18.7726 5.86372C18.9145 6.80006 18.764 7.67353 18.4506 8.55653H16.9485V8.55558Z" fill="#9E9E26"/>
<path d="M21.6902 8.55558H19.1555C19.3574 7.92024 19.5098 7.25442 19.4841 6.58384C20.5976 6.5324 21.6159 7.45636 21.6911 8.55558H21.6902Z" fill="#9E9E26"/>
<path d="M10.516 8.5555H9.62441C9.68156 8.40786 10.135 8.13067 10.2607 8.13258C10.376 8.13448 10.4922 8.44215 10.5169 8.5555H10.516Z" fill="#9E9E26"/>
</svg>
